  0
SECTION
  2
HEADER
  9
$ACADVER
  1
AC1021
  9
$ACADMAINTVER
 70
    25
  9
$DWGCODEPAGE
  3
ANSI_1251
  9
$INSBASE
 10
0.0
 20
0.0
 30
0.0
  9
$EXTMIN
 10
1.000000000000000E+20
 20
1.000000000000000E+20
 30
1.000000000000000E+20
  9
$EXTMAX
 10
-1.000000000000000E+20
 20
-1.000000000000000E+20
 30
-1.000000000000000E+20
  9
$LIMMIN
 10
0.0
 20
0.0
  9
$LIMMAX
 10
420.0
 20
297.0
  9
$ORTHOMODE
 70
     0
  9
$REGENMODE
 70
     1
  9
$FILLMODE
 70
     1
  9
$QTEXTMODE
 70
     0
  9
$MIRRTEXT
 70
     1
  9
$LTSCALE
 40
1.0
  9
$ATTMODE
 70
     1
  9
$TEXTSIZE
 40
2.5
  9
$TRACEWID
 40
1.0
  9
$TEXTSTYLE
  7
Standard
  9
$CLAYER
  8
0
  9
$CELTYPE
  6
ByLayer
  9
$CECOLOR
 62
   256
  9
$CELTSCALE
 40
1.0
  9
$DISPSILH
 70
     0
  9
$DIMSCALE
 40
1.0
  9
$DIMASZ
 40
2.5
  9
$DIMEXO
 40
0.625
  9
$DIMDLI
 40
3.75
  9
$DIMRND
 40
0.0
  9
$DIMDLE
 40
0.0
  9
$DIMEXE
 40
1.25
  9
$DIMTP
 40
0.0
  9
$DIMTM
 40
0.0
  9
$DIMTXT
 40
2.5
  9
$DIMCEN
 40
2.5
  9
$DIMTSZ
 40
0.0
  9
$DIMTOL
 70
     0
  9
$DIMLIM
 70
     0
  9
$DIMTIH
 70
     0
  9
$DIMTOH
 70
     0
  9
$DIMSE1
 70
     0
  9
$DIMSE2
 70
     0
  9
$DIMTAD
 70
     1
  9
$DIMZIN
 70
     8
  9
$DIMBLK
  1

  9
$DIMASO
 70
     1
  9
$DIMSHO
 70
     1
  9
$DIMPOST
  1

  9
$DIMAPOST
  1

  9
$DIMALT
 70
     0
  9
$DIMALTD
 70
     3
  9
$DIMALTF
 40
0.03937007874016
  9
$DIMLFAC
 40
1.0
  9
$DIMTOFL
 70
     1
  9
$DIMTVP
 40
0.0
  9
$DIMTIX
 70
     0
  9
$DIMSOXD
 70
     0
  9
$DIMSAH
 70
     0
  9
$DIMBLK1
  1

  9
$DIMBLK2
  1

  9
$DIMSTYLE
  2
ISO-25
  9
$DIMCLRD
 70
     0
  9
$DIMCLRE
 70
     0
  9
$DIMCLRT
 70
     0
  9
$DIMTFAC
 40
1.0
  9
$DIMGAP
 40
0.625
  9
$DIMJUST
 70
     0
  9
$DIMSD1
 70
     0
  9
$DIMSD2
 70
     0
  9
$DIMTOLJ
 70
     0
  9
$DIMTZIN
 70
     8
  9
$DIMALTZ
 70
     0
  9
$DIMALTTZ
 70
     0
  9
$DIMUPT
 70
     0
  9
$DIMDEC
 70
     2
  9
$DIMTDEC
 70
     2
  9
$DIMALTU
 70
     2
  9
$DIMALTTD
 70
     3
  9
$DIMTXSTY
  7
Standard
  9
$DIMAUNIT
 70
     0
  9
$DIMADEC
 70
     0
  9
$DIMALTRND
 40
0.0
  9
$DIMAZIN
 70
     0
  9
$DIMDSEP
 70
    44
  9
$DIMATFIT
 70
     3
  9
$DIMFRAC
 70
     0
  9
$DIMLDRBLK
  1

  9
$DIMLUNIT
 70
     6
  9
$DIMLWD
 70
    -2
  9
$DIMLWE
 70
    -2
  9
$DIMTMOVE
 70
     0
  9
$DIMFXL
 40
1.0
  9
$DIMFXLON
 70
     0
  9
$DIMJOGANG
 40
0.7853981633974483
  9
$DIMTFILL
 70
     0
  9
$DIMTFILLCLR
 70
     0
  9
$DIMARCSYM
 70
     0
  9
$DIMLTYPE
  6

  9
$DIMLTEX1
  6

  9
$DIMLTEX2
  6

  9
$LUNITS
 70
     2
  9
$LUPREC
 70
     4
  9
$SKETCHINC
 40
1.0
  9
$FILLETRAD
 40
10.0
  9
$AUNITS
 70
     0
  9
$AUPREC
 70
     0
  9
$MENU
  1
.
  9
$ELEVATION
 40
0.0
  9
$PELEVATION
 40
0.0
  9
$THICKNESS
 40
0.0
  9
$LIMCHECK
 70
     0
  9
$CHAMFERA
 40
10.0
  9
$CHAMFERB
 40
10.0
  9
$CHAMFERC
 40
20.0
  9
$CHAMFERD
 40
0.0
  9
$SKPOLY
 70
     0
  9
$TDCREATE
 40
2456007.814962396
  9
$TDUCREATE
 40
2456007.564962396
  9
$TDUPDATE
 40
2456007.81496294
  9
$TDUUPDATE
 40
2456007.56496294
  9
$TDINDWG
 40
0.0000000116
  9
$TDUSRTIMER
 40
0.0000000116
  9
$USRTIMER
 70
     1
  9
$ANGBASE
 50
0.0
  9
$ANGDIR
 70
     0
  9
$PDMODE
 70
     0
  9
$PDSIZE
 40
0.0
  9
$PLINEWID
 40
0.0
  9
$SPLFRAME
 70
     0
  9
$SPLINETYPE
 70
     6
  9
$SPLINESEGS
 70
     8
  9
$HANDSEED
  5
1AF
  9
$SURFTAB1
 70
     6
  9
$SURFTAB2
 70
     6
  9
$SURFTYPE
 70
     6
  9
$SURFU
 70
     6
  9
$SURFV
 70
     6
  9
$UCSBASE
  2

  9
$UCSNAME
  2

  9
$UCSORG
 10
0.0
 20
0.0
 30
0.0
  9
$UCSXDIR
 10
1.0
 20
0.0
 30
0.0
  9
$UCSYDIR
 10
0.0
 20
1.0
 30
0.0
  9
$UCSORTHOREF
  2

  9
$UCSORTHOVIEW
 70
     0
  9
$UCSORGTOP
 10
0.0
 20
0.0
 30
0.0
  9
$UCSORGBOTTOM
 10
0.0
 20
0.0
 30
0.0
  9
$UCSORGLEFT
 10
0.0
 20
0.0
 30
0.0
  9
$UCSORGRIGHT
 10
0.0
 20
0.0
 30
0.0
  9
$UCSORGFRONT
 10
0.0
 20
0.0
 30
0.0
  9
$UCSORGBACK
 10
0.0
 20
0.0
 30
0.0
  9
$PUCSBASE
  2

  9
$PUCSNAME
  2

  9
$PUCSORG
 10
0.0
 20
0.0
 30
0.0
  9
$PUCSXDIR
 10
1.0
 20
0.0
 30
0.0
  9
$PUCSYDIR
 10
0.0
 20
1.0
 30
0.0
  9
$PUCSORTHOREF
  2

  9
$PUCSORTHOVIEW
 70
     0
  9
$PUCSORGTOP
 10
0.0
 20
0.0
 30
0.0
  9
$PUCSORGBOTTOM
 10
0.0
 20
0.0
 30
0.0
  9
$PUCSORGLEFT
 10
0.0
 20
0.0
 30
0.0
  9
$PUCSORGRIGHT
 10
0.0
 20
0.0
 30
0.0
  9
$PUCSORGFRONT
 10
0.0
 20
0.0
 30
0.0
  9
$PUCSORGBACK
 10
0.0
 20
0.0
 30
0.0
  9
$USERI1
 70
     0
  9
$USERI2
 70
     0
  9
$USERI3
 70
     0
  9
$USERI4
 70
     0
  9
$USERI5
 70
     0
  9
$USERR1
 40
0.0
  9
$USERR2
 40
0.0
  9
$USERR3
 40
0.0
  9
$USERR4
 40
0.0
  9
$USERR5
 40
0.0
  9
$WORLDVIEW
 70
     1
  9
$SHADEDGE
 70
     3
  9
$SHADEDIF
 70
    70
  9
$TILEMODE
 70
     1
  9
$MAXACTVP
 70
    64
  9
$PINSBASE
 10
0.0
 20
0.0
 30
0.0
  9
$PLIMCHECK
 70
     0
  9
$PEXTMIN
 10
1.000000000000000E+20
 20
1.000000000000000E+20
 30
1.000000000000000E+20
  9
$PEXTMAX
 10
-1.000000000000000E+20
 20
-1.000000000000000E+20
 30
-1.000000000000000E+20
  9
$PLIMMIN
 10
0.0
 20
0.0
  9
$PLIMMAX
 10
420.0
 20
297.0
  9
$UNITMODE
 70
     0
  9
$VISRETAIN
 70
     1
  9
$PLINEGEN
 70
     0
  9
$PSLTSCALE
 70
     1
  9
$TREEDEPTH
 70
  3020
  9
$CMLSTYLE
  2
Standard
  9
$CMLJUST
 70
     0
  9
$CMLSCALE
 40
20.0
  9
$PROXYGRAPHICS
 70
     1
  9
$MEASUREMENT
 70
     1
  9
$CELWEIGHT
370
    -1
  9
$ENDCAPS
280
     0
  9
$JOINSTYLE
280
     0
  9
$LWDISPLAY
290
     0
  9
$INSUNITS
 70
     4
  9
$HYPERLINKBASE
  1

  9
$STYLESHEET
  1

  9
$XEDIT
290
     1
  9
$CEPSNTYPE
380
     0
  9
$PSTYLEMODE
290
     1
  9
$FINGERPRINTGUID
  2
{CFB37F17-9943-4303-BA3A-7CCC7C758C3F}
  9
$VERSIONGUID
  2
{FAEB1C32-E019-11D5-929B-00C0DF256EC4}
  9
$EXTNAMES
290
     1
  9
$PSVPSCALE
 40
0.0
  9
$OLESTARTUP
290
     0
  9
$SORTENTS
280
   127
  9
$INDEXCTL
280
     0
  9
$HIDETEXT
280
     1
  9
$XCLIPFRAME
290
     0
  9
$HALOGAP
280
     0
  9
$OBSCOLOR
 70
   257
  9
$OBSLTYPE
280
     0
  9
$INTERSECTIONDISPLAY
280
     0
  9
$INTERSECTIONCOLOR
 70
   257
  9
$DIMASSOC
280
     2
  9
$PROJECTNAME
  1

  9
$CAMERADISPLAY
290
     0
  9
$LENSLENGTH
 40
50.0
  9
$CAMERAHEIGHT
 40
0.0
  9
$STEPSPERSEC
 40
2.0
  9
$STEPSIZE
 40
6.0
  9
$3DDWFPREC
 40
2.0
  9
$PSOLWIDTH
 40
5.0
  9
$PSOLHEIGHT
 40
80.0
  9
$LOFTANG1
 40
1.570796326794897
  9
$LOFTANG2
 40
1.570796326794897
  9
$LOFTMAG1
 40
0.0
  9
$LOFTMAG2
 40
0.0
  9
$LOFTPARAM
 70
     7
  9
$LOFTNORMALS
280
     1
  9
$LATITUDE
 40
37.795
  9
$LONGITUDE
 40
-122.394
  9
$NORTHDIRECTION
 40
0.0
  9
$TIMEZONE
 70
 -8000
  9
$LIGHTGLYPHDISPLAY
280
     1
  9
$TILEMODELIGHTSYNCH
280
     1
  9
$SOLIDHIST
280
     1
  9
$SHOWHIST
280
     1
  9
$DWFFRAME
280
     2
  9
$DGNFRAME
280
     2
  9
$REALWORLDSCALE
290
     1
  9
$INTERFERECOLOR
 62
   256
  9
$CSHADOW
280
     0
  9
$SHADOWPLANELOCATION
 40
0.0
  0
ENDSEC
  0
SECTION
  2
CLASSES
  0
CLASS
  1
ACDBDICTIONARYWDFLT
  2
AcDbDictionaryWithDefault
  3
ObjectDBX Classes
 90
        0
 91
        4
280
     0
281
     0
  0
CLASS
  1
VISUALSTYLE
  2
AcDbVisualStyle
  3
ObjectDBX Classes
 90
     4095
 91
        4
280
     0
281
     0
  0
CLASS
  1
MATERIAL
  2
AcDbMaterial
  3
ObjectDBX Classes
 90
     1153
 91
        4
280
     0
281
     0
  0
CLASS
  1
WIPEOUTVARIABLES
  2
AcDbWipeoutVariables
  3
WipeOut|AutoCAD Express Tool|expresstools@autodesk.com
 90
        0
 91
        4
280
     0
281
     0
  0
CLASS
  1
WIPEOUT
  2
AcDbWipeout
  3
WipeOut|AutoCAD Express Tool|expresstools@autodesk.com
 90
      127
 91
        4
280
     0
281
     1
  0
CLASS
  1
SCALE
  2
AcDbScale
  3
ObjectDBX Classes
 90
     1153
 91
        4
280
     0
281
     0
  0
CLASS
  1
DICTIONARYVAR
  2
AcDbDictionaryVar
  3
ObjectDBX Classes
 90
        0
 91
        4
280
     0
281
     0
  0
ENDSEC
  0
SECTION
  2
TABLES
  0
TABLE
  2
VPORT
  5
8
330
0
100
AcDbSymbolTable
 70
     1
  0
VPORT
  5
29
330
8
100
AcDbSymbolTableRecord
100
AcDbViewportTableRecord
  2
*Active
 70
     0
 10
0.0
 20
0.0
 11
1.0
 21
1.0
 12
99.21220313198171
 22
85.25626995746465
 13
0.0
 23
0.0
 14
10.0
 24
10.0
 15
10.0
 25
10.0
 16
0.0
 26
0.0
 36
1.0
 17
0.0
 27
0.0
 37
0.0
 40
174.4535848708672
 41
1.171960384778612
 42
50.0
 43
0.0
 44
0.0
 50
0.0
 51
0.0
 71
     0
 72
   100
 73
     1
 74
     3
 75
     0
 76
     0
 77
     0
 78
     0
281
     0
 65
     1
110
0.0
120
0.0
130
0.0
111
1.0
121
0.0
131
0.0
112
0.0
122
1.0
132
0.0
 79
     0
146
0.0
 60
     3
 61
     5
292
     1
282
     1
141
0.0
142
0.0
 63
   250
  0
ENDTAB
  0
TABLE
  2
LTYPE
  5
5
330
0
100
AcDbSymbolTable
 70
     3
  0
LTYPE
  5
14
330
5
100
AcDbSymbolTableRecord
100
AcDbLinetypeTableRecord
  2
ByBlock
 70
     0
  3

 72
    65
 73
     0
 40
0.0
  0
LTYPE
  5
15
330
5
100
AcDbSymbolTableRecord
100
AcDbLinetypeTableRecord
  2
ByLayer
 70
     0
  3

 72
    65
 73
     0
 40
0.0
  0
LTYPE
  5
16
330
5
100
AcDbSymbolTableRecord
100
AcDbLinetypeTableRecord
  2
Continuous
 70
     0
  3
Solid line
 72
    65
 73
     0
 40
0.0
  0
LTYPE
  5
42
330
5
100
AcDbSymbolTableRecord
100
AcDbLinetypeTableRecord
  2
K5LT_THIN
 70
     0
  3

 72
    65
 73
     0
 40
0.0
  0
LTYPE
  5
D4
330
5
100
AcDbSymbolTableRecord
100
AcDbLinetypeTableRecord
  2
K5LT_BASIC
 70
     0
  3

 72
    65
 73
     0
 40
0.0
  0
ENDTAB
  0
TABLE
  2
LAYER
  5
2
330
0
100
AcDbSymbolTable
 70
     2
  0
LAYER
  5
10
330
2
100
AcDbSymbolTableRecord
100
AcDbLayerTableRecord
  2
0
 70
     0
 62
     7
  6
Continuous
370
    -3
390
F
347
3E
  0
LAYER
  5
40
330
2
100
AcDbSymbolTableRecord
100
AcDbLayerTableRecord
  2
Системный слой
 70
     0
 62
     7
  6
Continuous
370
    -3
390
F
347
3E
  0
ENDTAB
  0
TABLE
  2
STYLE
  5
3
330
0
100
AcDbSymbolTable
 70
     3
  0
STYLE
  5
11
330
3
100
AcDbSymbolTableRecord
100
AcDbTextStyleTableRecord
  2
Standard
 70
     0
 40
0.0
 41
1.0
 50
0.0
 71
     0
 42
2.5
  3
txt
  4

  0
STYLE
  5
A6
330
3
100
AcDbSymbolTableRecord
100
AcDbTextStyleTableRecord
  2
KTEXTSTYLE
 70
     0
 40
5.0
 41
0.96
 50
0.0
 71
     0
 42
0.2
  3
GOST_AU.SHX
  4

  0
STYLE
  5
A8
330
3
100
AcDbSymbolTableRecord
100
AcDbTextStyleTableRecord
  2
KDIMTEXTSTYLE
 70
     0
 40
5.0
 41
0.96
 50
15.0
 71
     0
 42
0.2
  3
GOST_AU.SHX
  4

  0
ENDTAB
  0
TABLE
  2
VIEW
  5
6
330
0
100
AcDbSymbolTable
 70
     0
  0
ENDTAB
  0
TABLE
  2
UCS
  5
7
330
0
100
AcDbSymbolTable
 70
     0
  0
ENDTAB
  0
TABLE
  2
APPID
  5
9
330
0
100
AcDbSymbolTable
 70
     2
  0
APPID
  5
12
330
9
100
AcDbSymbolTableRecord
100
AcDbRegAppTableRecord
  2
ACAD
 70
     0
  0
APPID
  5
3F
330
9
100
AcDbSymbolTableRecord
100
AcDbRegAppTableRecord
  2
KOMPAS
 70
     0
  0
ENDTAB
  0
TABLE
  2
DIMSTYLE
  5
A
330
0
100
AcDbSymbolTable
 70
     2
100
AcDbDimStyleTable
  0
DIMSTYLE
105
27
330
A
100
AcDbSymbolTableRecord
100
AcDbDimStyleTableRecord
  2
ISO-25
 70
     0
 41
2.5
 42
0.625
 43
3.75
 44
1.25
 73
     0
 74
     0
 77
     1
 78
     8
140
2.5
141
2.5
143
0.03937007874016
147
0.625
171
     3
172
     1
178
     0
271
     2
272
     2
274
     3
278
    44
283
     0
284
     8
340
11
  0
DIMSTYLE
105
A9
102
{ACAD_REACTORS
330
BD
330
D0
102
}
330
A
100
AcDbSymbolTableRecord
100
AcDbDimStyleTableRecord
  2
KDIMSTYLE (1.00)
 70
     0
 41
1.0
 42
0.0
 43
2.0
 44
2.0
 46
1.0
 73
     0
 74
     0
 77
     1
 78
     8
140
5.0
141
0.0
143
0.0394
145
1.0
146
0.667
147
1.0
172
     1
173
     1
178
     0
271
     2
272
     2
273
     8
274
     4
278
    44
340
A8
  0
ENDTAB
  0
TABLE
  2
BLOCK_RECORD
  5
1
330
0
100
AcDbSymbolTable
 70
    27
  0
BLOCK_RECORD
  5
1F
330
1
100
AcDbSymbolTableRecord
100
AcDbBlockTableRecord
  2
*Model_Space
340
22
 70
     0
280
     1
281
     0
  0
BLOCK_RECORD
  5
1B
330
1
100
AcDbSymbolTableRecord
100
AcDbBlockTableRecord
  2
*Paper_Space
340
1E
 70
     0
280
     1
281
     0
  0
BLOCK_RECORD
  5
23
330
1
100
AcDbSymbolTableRecord
100
AcDbBlockTableRecord
  2
*Paper_Space0
340
26
 70
     0
280
     1
281
     0
  0
BLOCK_RECORD
  5
41
330
1
100
AcDbSymbolTableRecord
100
AcDbBlockTableRecord
  2
KDIMARROW_00
340
0
 70
     0
280
     1
281
     0
  0
BLOCK_RECORD
  5
46
330
1
100
AcDbSymbolTableRecord
100
AcDbBlockTableRecord
  2
KDIMARROW_01
340
0
 70
     0
280
     1
281
     0
  0
BLOCK_RECORD
  5
4F
330
1
100
AcDbSymbolTableRecord
100
AcDbBlockTableRecord
  2
KDIMARROW_02
340
0
 70
     0
280
     1
281
     0
  0
BLOCK_RECORD
  5
59
330
1
100
AcDbSymbolTableRecord
100
AcDbBlockTableRecord
  2
KDIMARROW_03
340
0
 70
     0
280
     1
281
     0
  0
BLOCK_RECORD
  5
5F
330
1
100
AcDbSymbolTableRecord
100
AcDbBlockTableRecord
  2
KDIMARROW_04
340
0
 70
     0
280
     1
281
     0
  0
BLOCK_RECORD
  5
65
330
1
100
AcDbSymbolTableRecord
100
AcDbBlockTableRecord
  2
KDIMARROW_05
340
0
 70
     0
280
     1
281
     0
  0
BLOCK_RECORD
  5
6E
330
1
100
AcDbSymbolTableRecord
100
AcDbBlockTableRecord
  2
KDIMARROW_06
340
0
 70
     0
280
     1
281
     0
  0
BLOCK_RECORD
  5
78
330
1
100
AcDbSymbolTableRecord
100
AcDbBlockTableRecord
  2
KDIMARROW_07
340
0
 70
     0
280
     1
281
     0
  0
BLOCK_RECORD
  5
7E
330
1
100
AcDbSymbolTableRecord
100
AcDbBlockTableRecord
  2
KDIMARROW_08
340
0
 70
     0
280
     1
281
     0
  0
BLOCK_RECORD
  5
85
330
1
100
AcDbSymbolTableRecord
100
AcDbBlockTableRecord
  2
KDIMARROW_09
340
0
 70
     0
280
     1
281
     0
  0
BLOCK_RECORD
  5
8B
330
1
100
AcDbSymbolTableRecord
100
AcDbBlockTableRecord
  2
KDIMARROW_10
340
0
 70
     0
280
     1
281
     0
  0
BLOCK_RECORD
  5
92
330
1
100
AcDbSymbolTableRecord
100
AcDbBlockTableRecord
  2
KDIMARROW_11
340
0
 70
     0
280
     1
281
     0
  0
BLOCK_RECORD
  5
98
330
1
100
AcDbSymbolTableRecord
100
AcDbBlockTableRecord
  2
KDIMARROW_12
340
0
 70
     0
280
     1
281
     0
  0
BLOCK_RECORD
  5
9E
330
1
100
AcDbSymbolTableRecord
100
AcDbBlockTableRecord
  2
KDIMARROW_13
340
0
 70
     0
280
     1
281
     0
  0
BLOCK_RECORD
  5
A4
330
1
100
AcDbSymbolTableRecord
100
AcDbBlockTableRecord
  2
U0
340
0
102
{BLKREFS
331
A5
102
}
 70
     0
280
     1
281
     0
  0
BLOCK_RECORD
  5
AA
330
1
100
AcDbSymbolTableRecord
100
AcDbBlockTableRecord
  2
D0
340
0
 70
     0
280
     1
281
     0
  0
BLOCK_RECORD
  5
BE
330
1
100
AcDbSymbolTableRecord
100
AcDbBlockTableRecord
  2
D1
340
0
 70
     0
280
     1
281
     0
  0
BLOCK_RECORD
  5
D2
330
1
100
AcDbSymbolTableRecord
100
AcDbBlockTableRecord
  2
U1
340
0
102
{BLKREFS
331
D3
102
}
 70
     0
280
     1
281
     0
  0
BLOCK_RECORD
  5
DD
330
1
100
AcDbSymbolTableRecord
100
AcDbBlockTableRecord
  2
U2
340
0
102
{BLKREFS
331
DE
102
}
 70
     0
280
     1
281
     0
  0
BLOCK_RECORD
  5
10B
330
1
100
AcDbSymbolTableRecord
100
AcDbBlockTableRecord
  2
U3
340
0
102
{BLKREFS
331
10C
102
}
 70
     0
280
     1
281
     0
  0
BLOCK_RECORD
  5
139
330
1
100
AcDbSymbolTableRecord
100
AcDbBlockTableRecord
  2
U4
340
0
102
{BLKREFS
331
13A
102
}
 70
     0
280
     1
281
     0
  0
BLOCK_RECORD
  5
13B
330
1
100
AcDbSymbolTableRecord
100
AcDbBlockTableRecord
  2
U5
340
0
102
{BLKREFS
331
13C
102
}
 70
     0
280
     1
281
     0
  0
BLOCK_RECORD
  5
145
330
1
100
AcDbSymbolTableRecord
100
AcDbBlockTableRecord
  2
U6
340
0
102
{BLKREFS
331
146
102
}
 70
     0
280
     1
281
     0
  0
BLOCK_RECORD
  5
151
330
1
100
AcDbSymbolTableRecord
100
AcDbBlockTableRecord
  2
U7
340
0
102
{BLKREFS
331
152
102
}
 70
     0
280
     1
281
     0
  0
BLOCK_RECORD
  5
153
330
1
100
AcDbSymbolTableRecord
100
AcDbBlockTableRecord
  2
U8
340
0
102
{BLKREFS
331
154
102
}
 70
     0
280
     1
281
     0
  0
BLOCK_RECORD
  5
15B
330
1
100
AcDbSymbolTableRecord
100
AcDbBlockTableRecord
  2
U9
340
0
102
{BLKREFS
331
15C
102
}
 70
     0
280
     1
281
     0
  0
ENDTAB
  0
ENDSEC
  0
SECTION
  2
BLOCKS
  0
BLOCK
  5
20
330
1F
100
AcDbEntity
  8
0
100
AcDbBlockBegin
  2
*Model_Space
 70
     0
 10
0.0
 20
0.0
 30
0.0
  3
*Model_Space
  1

  0
ENDBLK
  5
21
330
1F
100
AcDbEntity
  8
0
100
AcDbBlockEnd
  0
BLOCK
  5
1C
330
1B
100
AcDbEntity
 67
     1
  8
0
100
AcDbBlockBegin
  2
*Paper_Space
 70
     0
 10
0.0
 20
0.0
 30
0.0
  3
*Paper_Space
  1

  0
ENDBLK
  5
1D
330
1B
100
AcDbEntity
 67
     1
  8
0
100
AcDbBlockEnd
  0
BLOCK
  5
24
330
23
100
AcDbEntity
  8
0
100
AcDbBlockBegin
  2
*Paper_Space0
 70
     0
 10
0.0
 20
0.0
 30
0.0
  3
*Paper_Space0
  1

  0
ENDBLK
  5
25
330
23
100
AcDbEntity
  8
0
100
AcDbBlockEnd
  0
BLOCK
  5
44
330
41
100
AcDbEntity
  8
0
100
AcDbBlockBegin
  2
KDIMARROW_00
 70
     0
 10
0.0
 20
0.0
 30
0.0
  3
KDIMARROW_00
  1

  0
LINE
  5
43
330
41
100
AcDbEntity
  8
0
  6
K5LT_THIN
 62
     0
370
    18
100
AcDbLine
 10
0.0
 20
0.0
 30
0.0
 11
-1.0
 21
0.0
 31
0.0
  0
ENDBLK
  5
45
330
41
100
AcDbEntity
  8
0
100
AcDbBlockEnd
  0
BLOCK
  5
4D
330
46
100
AcDbEntity
  8
0
100
AcDbBlockBegin
  2
KDIMARROW_01
 70
     0
 10
0.0
 20
0.0
 30
0.0
  3
KDIMARROW_01
  1

  0
LINE
  5
47
330
46
100
AcDbEntity
  8
0
  6
K5LT_THIN
 62
     0
370
    18
100
AcDbLine
 10
0.0
 20
0.0
 30
0.0
 11
-5.0
 21
-0.6582624912261956
 31
0.0
  0
LINE
  5
48
330
46
100
AcDbEntity
  8
0
  6
K5LT_THIN
 62
     0
370
    18
100
AcDbLine
 10
-5.0
 20
-0.6582624912261956
 30
0.0
 11
-4.5
 21
0.0000000000000006
 31
0.0
  0
LINE
  5
49
330
46
100
AcDbEntity
  8
0
  6
K5LT_THIN
 62
     0
370
    18
100
AcDbLine
 10
-4.5
 20
0.0000000000000006
 30
0.0
 11
-5.0
 21
0.658262491226197
 31
0.0
  0
LINE
  5
4A
330
46
100
AcDbEntity
  8
0
  6
K5LT_THIN
 62
     0
370
    18
100
AcDbLine
 10
-5.0
 20
0.658262491226197
 30
0.0
 11
0.0
 21
0.0
 31
0.0
  0
HATCH
  5
4B
330
46
100
AcDbEntity
  8
0
 62
     0
100
AcDbHatch
 10
0.0
 20
0.0
 30
0.0
210
0.0
220
0.0
230
1.0
  2
SOLID
 70
     1
 71
     0
 91
        1
 92
        1
 93
        4
 72
     1
 10
0.0
 20
0.0
 11
-5.0
 21
0.658262491226197
 72
     1
 10
-5.0
 20
0.658262491226197
 11
-4.5
 21
0.0000000000000006
 72
     1
 10
-4.5
 20
0.0000000000000006
 11
-5.0
 21
-0.6582624912261956
 72
     1
 10
-5.0
 20
-0.6582624912261956
 11
0.0
 21
0.0
 97
        0
 75
     0
 76
     1
 98
        0
  0
LINE
  5
4C
330
46
100
AcDbEntity
  8
0
  6
K5LT_THIN
 62
     0
370
    18
100
AcDbLine
 10
0.0
 20
0.0
 30
0.0
 11
-1.0
 21
0.0
 31
0.0
  0
ENDBLK
  5
4E
330
46
100
AcDbEntity
  8
0
100
AcDbBlockEnd
  0
BLOCK
  5
57
330
4F
100
AcDbEntity
  8
0
100
AcDbBlockBegin
  2
KDIMARROW_02
 70
     0
 10
0.0
 20
0.0
 30
0.0
  3
KDIMARROW_02
  1

  0
LINE
  5
50
330
4F
100
AcDbEntity
  8
0
  6
K5LT_THIN
 62
     0
370
    18
100
AcDbLine
 10
0.0
 20
0.0
 30
0.0
 11
5.0
 21
-0.658262491226197
 31
0.0
  0
LINE
  5
51
330
4F
100
AcDbEntity
  8
0
  6
K5LT_THIN
 62
     0
370
    18
100
AcDbLine
 10
5.0
 20
-0.658262491226197
 30
0.0
 11
4.5
 21
-0.0000000000000006
 31
0.0
  0
LINE
  5
52
330
4F
100
AcDbEntity
  8
0
  6
K5LT_THIN
 62
     0
370
    18
100
AcDbLine
 10
4.5
 20
-0.0000000000000006
 30
0.0
 11
5.0
 21
0.6582624912261956
 31
0.0
  0
LINE
  5
53
330
4F
100
AcDbEntity
  8
0
  6
K5LT_THIN
 62
     0
370
    18
100
AcDbLine
 10
5.0
 20
0.6582624912261956
 30
0.0
 11
0.0
 21
0.0
 31
0.0
  0
LINE
  5
54
330
4F
100
AcDbEntity
  8
0
  6
K5LT_THIN
 62
     0
370
    18
100
AcDbLine
 10
0.0
 20
0.0
 30
0.0
 11
7.0
 21
-0.0000000000000009
 31
0.0
  0
HATCH
  5
55
330
4F
100
AcDbEntity
  8
0
 62
     0
100
AcDbHatch
 10
0.0
 20
0.0
 30
0.0
210
0.0
220
0.0
230
1.0
  2
SOLID
 70
     1
 71
     0
 91
        1
 92
        1
 93
        4
 72
     1
 10
4.5
 20
-0.0000000000000006
 11
5.0
 21
0.6582624912261956
 72
     1
 10
5.0
 20
0.6582624912261956
 11
0.0
 21
0.0
 72
     1
 10
0.0
 20
0.0
 11
5.0
 21
-0.658262491226197
 72
     1
 10
5.0
 20
-0.658262491226197
 11
4.5
 21
-0.0000000000000006
 97
        0
 75
     0
 76
     1
 98
        0
  0
LINE
  5
56
330
4F
100
AcDbEntity
  8
0
  6
K5LT_THIN
 62
     0
370
    18
100
AcDbLine
 10
0.0
 20
0.0
 30
0.0
 11
-1.0
 21
0.0
 31
0.0
  0
ENDBLK
  5
58
330
4F
100
AcDbEntity
  8
0
100
AcDbBlockEnd
  0
BLOCK
  5
5D
330
59
100
AcDbEntity
  8
0
100
AcDbBlockBegin
  2
KDIMARROW_03
 70
     0
 10
0.0
 20
0.0
 30
0.0
  3
KDIMARROW_03
  1

  0
LINE
  5
5A
330
59
100
AcDbEntity
  8
0
  6
K5LT_THIN
 62
     0
370
    18
100
AcDbLine
 10
-1.060500025749207
 20
-1.060500025749206
 30
0.0
 11
1.060500025749207
 21
1.060500025749206
 31
0.0
  0
LINE
  5
5B
330
59
100
AcDbEntity
  8
0
  6
K5LT_THIN
 62
     0
370
    18
100
AcDbLine
 10
0.0
 20
0.0
 30
0.0
 11
2.0
 21
-0.0000000000000002
 31
0.0
  0
LINE
  5
5C
330
59
100
AcDbEntity
  8
0
  6
K5LT_THIN
 62
     0
370
    18
100
AcDbLine
 10
0.0
 20
0.0
 30
0.0
 11
-1.0
 21
0.0
 31
0.0
  0
ENDBLK
  5
5E
330
59
100
AcDbEntity
  8
0
100
AcDbBlockEnd
  0
BLOCK
  5
63
330
5F
100
AcDbEntity
  8
0
100
AcDbBlockBegin
  2
KDIMARROW_04
 70
     0
 10
0.0
 20
0.0
 30
0.0
  3
KDIMARROW_04
  1

  0
LWPOLYLINE
  5
60
330
5F
100
AcDbEntity
  8
0
  6
K5LT_THIN
 62
     7
100
AcDbPolyline
 90
       15
 70
     0
 43
0.18
 10
-0.25
 20
0.0
 10
0.0
 20
-0.25
 10
0.25
 20
0.0
 10
0.0
 20
0.25
 10
-0.25
 20
0.0
 10
-0.5
 20
0.0000000000000001
 10
-0.0000000000000001
 20
-0.5
 10
0.5
 20
-0.0000000000000001
 10
0.0000000000000001
 20
0.5
 10
-0.5
 20
0.0000000000000001
 10
-0.75
 20
0.0000000000000001
 10
-0.0000000000000001
 20
-0.75
 10
0.75
 20
-0.0000000000000001
 10
0.0000000000000001
 20
0.75
 10
-0.75
 20
0.0000000000000001
  0
LWPOLYLINE
  5
61
330
5F
100
AcDbEntity
  8
0
  6
K5LT_THIN
 62
     7
100
AcDbPolyline
 90
       15
 70
     0
 43
0.18
 10
-0.25
 20
0.0
 10
0.0
 20
-0.25
 10
0.25
 20
0.0
 10
0.0
 20
0.25
 10
-0.25
 20
0.0
 10
-0.5
 20
0.0000000000000001
 10
-0.0000000000000001
 20
-0.5
 10
0.5
 20
-0.0000000000000001
 10
0.0000000000000001
 20
0.5
 10
-0.5
 20
0.0000000000000001
 10
-0.75
 20
0.0000000000000001
 10
-0.0000000000000001
 20
-0.75
 10
0.75
 20
-0.0000000000000001
 10
0.0000000000000001
 20
0.75
 10
-0.75
 20
0.0000000000000001
  0
LINE
  5
62
330
5F
100
AcDbEntity
  8
0
  6
K5LT_THIN
 62
     0
370
    18
100
AcDbLine
 10
0.0
 20
0.0
 30
0.0
 11
-1.0
 21
0.0
 31
0.0
  0
ENDBLK
  5
64
330
5F
100
AcDbEntity
  8
0
100
AcDbBlockEnd
  0
BLOCK
  5
6C
330
65
100
AcDbEntity
  8
0
100
AcDbBlockBegin
  2
KDIMARROW_05
 70
     0
 10
0.0
 20
0.0
 30
0.0
  3
KDIMARROW_05
  1

  0
LINE
  5
66
330
65
100
AcDbEntity
  8
0
  6
K5LT_THIN
 62
     0
370
    18
100
AcDbLine
 10
0.0
 20
0.0
 30
0.0
 11
-5.0
 21
-0.6582624912261956
 31
0.0
  0
LINE
  5
67
330
65
100
AcDbEntity
  8
0
  6
K5LT_THIN
 62
     0
370
    18
100
AcDbLine
 10
-5.0
 20
-0.6582624912261956
 30
0.0
 11
-5.0
 21
0.0000000000000006
 31
0.0
  0
LINE
  5
68
330
65
100
AcDbEntity
  8
0
  6
K5LT_THIN
 62
     0
370
    18
100
AcDbLine
 10
-5.0
 20
0.0000000000000006
 30
0.0
 11
-5.0
 21
0.658262491226197
 31
0.0
  0
LINE
  5
69
330
65
100
AcDbEntity
  8
0
  6
K5LT_THIN
 62
     0
370
    18
100
AcDbLine
 10
-5.0
 20
0.658262491226197
 30
0.0
 11
0.0
 21
0.0
 31
0.0
  0
HATCH
  5
6A
330
65
100
AcDbEntity
  8
0
 62
     0
100
AcDbHatch
 10
0.0
 20
0.0
 30
0.0
210
0.0
220
0.0
230
1.0
  2
SOLID
 70
     1
 71
     0
 91
        1
 92
        1
 93
        4
 72
     1
 10
0.0
 20
0.0
 11
-5.0
 21
0.658262491226197
 72
     1
 10
-5.0
 20
0.658262491226197
 11
-5.0
 21
0.0000000000000007
 72
     1
 10
-5.0
 20
0.0000000000000006
 11
-5.0
 21
-0.6582624912261956
 72
     1
 10
-5.0
 20
-0.6582624912261956
 11
0.0
 21
0.0
 97
        0
 75
     0
 76
     1
 98
        0
  0
LINE
  5
6B
330
65
100
AcDbEntity
  8
0
  6
K5LT_THIN
 62
     0
370
    18
100
AcDbLine
 10
0.0
 20
0.0
 30
0.0
 11
-1.0
 21
0.0
 31
0.0
  0
ENDBLK
  5
6D
330
65
100
AcDbEntity
  8
0
100
AcDbBlockEnd
  0
BLOCK
  5
76
330
6E
100
AcDbEntity
  8
0
100
AcDbBlockBegin
  2
KDIMARROW_06
 70
     0
 10
0.0
 20
0.0
 30
0.0
  3
KDIMARROW_06
  1

  0
LINE
  5
6F
330
6E
100
AcDbEntity
  8
0
  6
K5LT_THIN
 62
     0
370
    18
100
AcDbLine
 10
0.0
 20
0.0
 30
0.0
 11
5.0
 21
-0.658262491226197
 31
0.0
  0
LINE
  5
70
330
6E
100
AcDbEntity
  8
0
  6
K5LT_THIN
 62
     0
370
    18
100
AcDbLine
 10
5.0
 20
-0.658262491226197
 30
0.0
 11
5.0
 21
-0.0000000000000006
 31
0.0
  0
LINE
  5
71
330
6E
100
AcDbEntity
  8
0
  6
K5LT_THIN
 62
     0
370
    18
100
AcDbLine
 10
5.0
 20
-0.0000000000000006
 30
0.0
 11
5.0
 21
0.6582624912261956
 31
0.0
  0
LINE
  5
72
330
6E
100
AcDbEntity
  8
0
  6
K5LT_THIN
 62
     0
370
    18
100
AcDbLine
 10
5.0
 20
0.6582624912261956
 30
0.0
 11
0.0
 21
0.0
 31
0.0
  0
LINE
  5
73
330
6E
100
AcDbEntity
  8
0
  6
K5LT_THIN
 62
     0
370
    18
100
AcDbLine
 10
0.0
 20
0.0
 30
0.0
 11
7.0
 21
-0.0000000000000009
 31
0.0
  0
HATCH
  5
74
330
6E
100
AcDbEntity
  8
0
 62
     0
100
AcDbHatch
 10
0.0
 20
0.0
 30
0.0
210
0.0
220
0.0
230
1.0
  2
SOLID
 70
     1
 71
     0
 91
        1
 92
        1
 93
        4
 72
     1
 10
5.0
 20
-0.0000000000000006
 11
5.0
 21
0.6582624912261956
 72
     1
 10
5.0
 20
0.6582624912261956
 11
0.0
 21
0.0
 72
     1
 10
0.0
 20
0.0
 11
5.0
 21
-0.658262491226197
 72
     1
 10
5.0
 20
-0.658262491226197
 11
5.0
 21
-0.0000000000000007
 97
        0
 75
     0
 76
     1
 98
        0
  0
LINE
  5
75
330
6E
100
AcDbEntity
  8
0
  6
K5LT_THIN
 62
     0
370
    18
100
AcDbLine
 10
0.0
 20
0.0
 30
0.0
 11
-1.0
 21
0.0
 31
0.0
  0
ENDBLK
  5
77
330
6E
100
AcDbEntity
  8
0
100
AcDbBlockEnd
  0
BLOCK
  5
7C
330
78
100
AcDbEntity
  8
0
100
AcDbBlockBegin
  2
KDIMARROW_07
 70
     0
 10
0.0
 20
0.0
 30
0.0
  3
KDIMARROW_07
  1

  0
LINE
  5
79
330
78
100
AcDbEntity
  8
0
  6
K5LT_THIN
 62
     0
370
    18
100
AcDbLine
 10
0.0
 20
0.0
 30
0.0
 11
-5.0
 21
-0.6582624912261956
 31
0.0
  0
LINE
  5
7A
330
78
100
AcDbEntity
  8
0
  6
K5LT_THIN
 62
     0
370
    18
100
AcDbLine
 10
0.0
 20
0.0
 30
0.0
 11
-5.0
 21
0.658262491226197
 31
0.0
  0
LINE
  5
7B
330
78
100
AcDbEntity
  8
0
  6
K5LT_THIN
 62
     0
370
    18
100
AcDbLine
 10
0.0
 20
0.0
 30
0.0
 11
-1.0
 21
0.0
 31
0.0
  0
ENDBLK
  5
7D
330
78
100
AcDbEntity
  8
0
100
AcDbBlockEnd
  0
BLOCK
  5
83
330
7E
100
AcDbEntity
  8
0
100
AcDbBlockBegin
  2
KDIMARROW_08
 70
     0
 10
0.0
 20
0.0
 30
0.0
  3
KDIMARROW_08
  1

  0
LINE
  5
7F
330
7E
100
AcDbEntity
  8
0
  6
K5LT_THIN
 62
     0
370
    18
100
AcDbLine
 10
0.0
 20
0.0
 30
0.0
 11
5.0
 21
-0.658262491226197
 31
0.0
  0
LINE
  5
80
330
7E
100
AcDbEntity
  8
0
  6
K5LT_THIN
 62
     0
370
    18
100
AcDbLine
 10
0.0
 20
0.0
 30
0.0
 11
5.0
 21
0.6582624912261956
 31
0.0
  0
LINE
  5
81
330
7E
100
AcDbEntity
  8
0
  6
K5LT_THIN
 62
     0
370
    18
100
AcDbLine
 10
0.0
 20
0.0
 30
0.0
 11
7.0
 21
-0.0000000000000009
 31
0.0
  0
LINE
  5
82
330
7E
100
AcDbEntity
  8
0
  6
K5LT_THIN
 62
     0
370
    18
100
AcDbLine
 10
0.0
 20
0.0
 30
0.0
 11
-1.0
 21
0.0
 31
0.0
  0
ENDBLK
  5
84
330
7E
100
AcDbEntity
  8
0
100
AcDbBlockEnd
  0
BLOCK
  5
89
330
85
100
AcDbEntity
  8
0
100
AcDbBlockBegin
  2
KDIMARROW_09
 70
     0
 10
0.0
 20
0.0
 30
0.0
  3
KDIMARROW_09
  1

  0
LINE
  5
86
330
85
100
AcDbEntity
  8
0
  6
K5LT_THIN
 62
     0
370
    18
100
AcDbLine
 10
0.0
 20
0.0
 30
0.0
 11
-2.0
 21
-2.0
 31
0.0
  0
LINE
  5
87
330
85
100
AcDbEntity
  8
0
  6
K5LT_THIN
 62
     0
370
    18
100
AcDbLine
 10
0.0
 20
0.0
 30
0.0
 11
-2.0
 21
2.0
 31
0.0
  0
LINE
  5
88
330
85
100
AcDbEntity
  8
0
  6
K5LT_THIN
 62
     0
370
    18
100
AcDbLine
 10
0.0
 20
0.0
 30
0.0
 11
-1.0
 21
0.0
 31
0.0
  0
ENDBLK
  5
8A
330
85
100
AcDbEntity
  8
0
100
AcDbBlockEnd
  0
BLOCK
  5
90
330
8B
100
AcDbEntity
  8
0
100
AcDbBlockBegin
  2
KDIMARROW_10
 70
     0
 10
0.0
 20
0.0
 30
0.0
  3
KDIMARROW_10
  1

  0
LINE
  5
8C
330
8B
100
AcDbEntity
  8
0
  6
K5LT_THIN
 62
     0
370
    18
100
AcDbLine
 10
0.0
 20
0.0
 30
0.0
 11
2.0
 21
-2.0
 31
0.0
  0
LINE
  5
8D
330
8B
100
AcDbEntity
  8
0
  6
K5LT_THIN
 62
     0
370
    18
100
AcDbLine
 10
0.0
 20
0.0
 30
0.0
 11
2.0
 21
2.0
 31
0.0
  0
LINE
  5
8E
330
8B
100
AcDbEntity
  8
0
  6
K5LT_THIN
 62
     0
370
    18
100
AcDbLine
 10
0.0
 20
0.0
 30
0.0
 11
4.0
 21
-0.0000000000000005
 31
0.0
  0
LINE
  5
8F
330
8B
100
AcDbEntity
  8
0
  6
K5LT_THIN
 62
     0
370
    18
100
AcDbLine
 10
0.0
 20
0.0
 30
0.0
 11
-1.0
 21
0.0
 31
0.0
  0
ENDBLK
  5
91
330
8B
100
AcDbEntity
  8
0
100
AcDbBlockEnd
  0
BLOCK
  5
96
330
92
100
AcDbEntity
  8
0
100
AcDbBlockBegin
  2
KDIMARROW_11
 70
     0
 10
0.0
 20
0.0
 30
0.0
  3
KDIMARROW_11
  1

  0
CIRCLE
  5
93
330
92
100
AcDbEntity
  8
0
  6
K5LT_THIN
 62
     0
370
    18
100
AcDbCircle
 10
0.0
 20
0.0
 30
0.0
 40
2.5
  0
CIRCLE
  5
94
330
92
100
AcDbEntity
  8
0
  6
K5LT_THIN
 62
     0
370
    18
100
AcDbCircle
 10
0.0
 20
0.0
 30
0.0
 40
2.5
  0
LINE
  5
95
330
92
100
AcDbEntity
  8
0
  6
K5LT_THIN
 62
     0
370
    18
100
AcDbLine
 10
0.0
 20
0.0
 30
0.0
 11
-1.0
 21
0.0
 31
0.0
  0
ENDBLK
  5
97
330
92
100
AcDbEntity
  8
0
100
AcDbBlockEnd
  0
BLOCK
  5
9C
330
98
100
AcDbEntity
  8
0
100
AcDbBlockBegin
  2
KDIMARROW_12
 70
     0
 10
0.0
 20
0.0
 30
0.0
  3
KDIMARROW_12
  1

  0
CIRCLE
  5
99
330
98
100
AcDbEntity
  8
0
  6
K5LT_THIN
 62
     0
370
    18
100
AcDbCircle
 10
0.0
 20
0.0
 30
0.0
 40
1.5
  0
CIRCLE
  5
9A
330
98
100
AcDbEntity
  8
0
  6
K5LT_THIN
 62
     0
370
    18
100
AcDbCircle
 10
0.0
 20
0.0
 30
0.0
 40
1.5
  0
LINE
  5
9B
330
98
100
AcDbEntity
  8
0
  6
K5LT_THIN
 62
     0
370
    18
100
AcDbLine
 10
0.0
 20
0.0
 30
0.0
 11
-1.0
 21
0.0
 31
0.0
  0
ENDBLK
  5
9D
330
98
100
AcDbEntity
  8
0
100
AcDbBlockEnd
  0
BLOCK
  5
A2
330
9E
100
AcDbEntity
  8
0
100
AcDbBlockBegin
  2
KDIMARROW_13
 70
     0
 10
0.0
 20
0.0
 30
0.0
  3
KDIMARROW_13
  1

  0
LINE
  5
9F
330
9E
100
AcDbEntity
  8
0
  6
K5LT_THIN
 62
     0
370
    18
100
AcDbLine
 10
-1.060500025749206
 20
1.060500025749207
 30
0.0
 11
1.060500025749206
 21
-1.060500025749207
 31
0.0
  0
LINE
  5
A0
330
9E
100
AcDbEntity
  8
0
  6
K5LT_THIN
 62
     0
370
    18
100
AcDbLine
 10
0.0
 20
0.0
 30
0.0
 11
2.0
 21
-0.0000000000000002
 31
0.0
  0
LINE
  5
A1
330
9E
100
AcDbEntity
  8
0
  6
K5LT_THIN
 62
     0
370
    18
100
AcDbLine
 10
0.0
 20
0.0
 30
0.0
 11
-1.0
 21
0.0
 31
0.0
  0
ENDBLK
  5
A3
330
9E
100
AcDbEntity
  8
0
100
AcDbBlockEnd
  0
BLOCK
  5
167
330
A4
100
AcDbEntity
  8
0
100
AcDbBlockBegin
  2
U0
 70
     0
 10
0.0
 20
0.0
 30
0.0
  3
U0
  1

  0
MTEXT
  5
A7
330
A4
100
AcDbEntity
  8
0
 62
     7
100
AcDbMText
 10
100.1817588481279
 20
118.2415993225078
 30
0.0
 40
0.0
 41
0.0
 46
0.0
 71
     1
 72
     1
  1
\H3.5;\W0.965;\Q15;\Q15;\H5.00;26
  7
KTEXTSTYLE
 73
     1
 44
1.0
  0
DIMENSION
  5
BD
330
A4
100
AcDbEntity
  8
0
 62
     7
100
AcDbDimension
  2
D0
 10
197.4341102159375
 20
-0.2601932145290683
 30
0.0
 11
197.4341102159375
 21
87.73980678547093
 31
0.0
 70
   160
 71
     5
 42
-1.0
 73
     0
 74
     0
 75
     0
  3
KDIMSTYLE (1.00)
100
AcDbAlignedDimension
 13
185.0
 23
154.7398067854709
 33
0.0
 14
185.0
 24
-0.2601932145290675
 34
0.0
 50
90.0
100
AcDbRotatedDimension
1001
ACAD
1000
DSTYLE
1002
{
1070
   178
1070
     7
1070
   344
1005
46
1070
   343
1005
46
1070
    42
1040
0.0
1070
    76
1070
     0
1070
    75
1070
     0
1070
   283
1070
     1
1070
     3
1000
\H5.0;\W0.965;\Q15;<>
1002
}
  0
DIMENSION
  5
D0
330
A4
100
AcDbEntity
  8
0
 62
     7
100
AcDbDimension
  2
D1
 10
184.9921792742749
 20
163.0454708148852
 30
0.0
 11
91.99217927427495
 21
162.9579007554831
 31
0.0
 70
   161
 71
     5
 42
-1.0
 73
     0
 74
     0
 75
     0
  3
KDIMSTYLE (1.00)
100
AcDbAlignedDimension
 13
-1.0
 23
154.5646666666667
 33
0.0
 14
185.0
 24
154.7398067854709
 34
0.0
1001
ACAD
1000
DSTYLE
1002
{
1070
   178
1070
     7
1070
   344
1005
46
1070
   343
1005
46
1070
    42
1040
0.0
1070
    76
1070
     0
1070
    75
1070
     0
1070
   283
1070
     1
1070
     3
1000
\H5.0;\W0.965;\Q15;<>
1002
}
  0
MTEXT
  5
D1
330
A4
100
AcDbEntity
  8
0
 62
     7
100
AcDbMText
 10
10.11497603093039
 20
151.6532571439126
 30
0.0
 40
0.0
 41
0.0
 46
0.0
 71
     1
 72
     1
  1
\H3.5;\W0.965;\Q15;\Q15;\H5.00;Материал МДФ толщина - 2 мм (10 выпуск)
  7
KTEXTSTYLE
 73
     1
 44
1.0
  0
INSERT
  5
D3
330
A4
100
AcDbEntity
  8
0
100
AcDbBlockReference
  2
U1
 10
0.0
 20
0.0
 30
0.0
  0
ENDBLK
  5
168
330
A4
100
AcDbEntity
  8
0
100
AcDbBlockEnd
  0
BLOCK
  5
BB
330
AA
100
AcDbEntity
  8
0
100
AcDbBlockBegin
  2
D0
 70
     0
 10
0.0
 20
0.0
 30
0.0
  3
D0
  1

  0
WIPEOUT
  5
AC
330
AA
100
AcDbEntity
  8
0
 92
      152
310
98000000040000000C0000000E000000120000000C00000016000000000000C20C00000014000000010000006C00000007000000040000003194F2E82B8F6840373D8F0693BF54400000000000000000CA2D8C98F5B36740373D8F0693BF54400000000000000000CA2D8C98F5B36740C6FF84AFD106574000000000000000
310
003194F2E82B8F6840C6FF84AFD10657400000000000000000
100
AcDbWipeout
 90
        0
 10
189.623729966914
 20
82.99334873188207
 30
0.0
 11
9.11319946289062
 21
0.0
 31
0.0
 12
0.0
 22
9.11319946289062
 32
0.0
 13
1.0
 23
1.0
340
0
 70
     7
280
     1
281
    50
282
    50
283
     0
360
0
 71
     2
 91
        5
 14
0.2516986940182306
 24
0.5000000000000018
 14
-0.5
 24
0.5000000000000018
 14
-0.5
 24
-0.4999999999999982
 14
0.2516986940182306
 24
-0.4999999999999982
 14
0.2516986940182306
 24
0.5000000000000018
  0
LINE
  5
AD
330
AA
100
AcDbEntity
  8
0
  6
K5LT_THIN
 62
     7
370
    18
100
AcDbLine
 10
197.4341102159375
 20
-0.2601932145290683
 30
0.0
 11
196.7758477247113
 21
4.739806785470932
 31
0.0
  0
LINE
  5
AE
330
AA
100
AcDbEntity
  8
0
  6
K5LT_THIN
 62
     7
370
    18
100
AcDbLine
 10
196.7758477247113
 20
4.739806785470932
 30
0.0
 11
197.4341102159375
 21
4.239806785470932
 31
0.0
  0
LINE
  5
AF
330
AA
100
AcDbEntity
  8
0
  6
K5LT_THIN
 62
     7
370
    18
100
AcDbLine
 10
197.4341102159375
 20
4.239806785470932
 30
0.0
 11
198.0923727071637
 21
4.739806785470932
 31
0.0
  0
LINE
  5
B0
330
AA
100
AcDbEntity
  8
0
  6
K5LT_THIN
 62
     7
370
    18
100
AcDbLine
 10
198.0923727071637
 20
4.739806785470932
 30
0.0
 11
197.4341102159375
 21
-0.2601932145290683
 31
0.0
  0
HATCH
  5
B1
330
AA
100
AcDbEntity
  8
0
 62
     7
100
AcDbHatch
 10
0.0
 20
0.0
 30
0.0
210
0.0
220
0.0
230
1.0
  2
SOLID
 70
     1
 71
     0
 91
        1
 92
        1
 93
        4
 72
     1
 10
197.4341102159375
 20
-0.2601932145290683
 11
198.0923727071637
 21
4.739806785470932
 72
     1
 10
198.0923727071637
 20
4.739806785470932
 11
197.4341102159375
 21
4.239806785470932
 72
     1
 10
197.4341102159375
 20
4.239806785470932
 11
196.7758477247113
 21
4.739806785470932
 72
     1
 10
196.7758477247113
 20
4.739806785470932
 11
197.4341102159375
 21
-0.2601932145290684
 97
        0
 75
     0
 76
     1
 98
        0
  0
LINE
  5
B2
330
AA
100
AcDbEntity
  8
0
  6
K5LT_THIN
 62
     7
370
    18
100
AcDbLine
 10
197.4341102159375
 20
154.7398067854709
 30
0.0
 11
198.0923727071637
 21
149.7398067854709
 31
0.0
  0
LINE
  5
B3
330
AA
100
AcDbEntity
  8
0
  6
K5LT_THIN
 62
     7
370
    18
100
AcDbLine
 10
198.0923727071637
 20
149.7398067854709
 30
0.0
 11
197.4341102159375
 21
150.2398067854709
 31
0.0
  0
LINE
  5
B4
330
AA
100
AcDbEntity
  8
0
  6
K5LT_THIN
 62
     7
370
    18
100
AcDbLine
 10
197.4341102159375
 20
150.2398067854709
 30
0.0
 11
196.7758477247113
 21
149.7398067854709
 31
0.0
  0
LINE
  5
B5
330
AA
100
AcDbEntity
  8
0
  6
K5LT_THIN
 62
     7
370
    18
100
AcDbLine
 10
196.7758477247113
 20
149.7398067854709
 30
0.0
 11
197.4341102159375
 21
154.7398067854709
 31
0.0
  0
HATCH
  5
B6
330
AA
100
AcDbEntity
  8
0
 62
     7
100
AcDbHatch
 10
0.0
 20
0.0
 30
0.0
210
0.0
220
0.0
230
1.0
  2
SOLID
 70
     1
 71
     0
 91
        1
 92
        1
 93
        4
 72
     1
 10
198.0923727071637
 20
149.7398067854709
 11
197.4341102159375
 21
154.7398067854709
 72
     1
 10
197.4341102159375
 20
154.7398067854709
 11
196.7758477247113
 21
149.7398067854709
 72
     1
 10
196.7758477247113
 20
149.7398067854709
 11
197.4341102159375
 21
150.2398067854709
 72
     1
 10
197.4341102159375
 20
150.2398067854709
 11
198.0923727071637
 21
149.7398067854709
 97
        0
 75
     0
 76
     1
 98
        0
  0
LINE
  5
B7
330
AA
100
AcDbEntity
  8
0
  6
K5LT_THIN
 62
     7
370
    18
100
AcDbLine
 10
197.4341102159375
 20
-0.2601932145290683
 30
0.0
 11
197.4341102159375
 21
154.7398067854709
 31
0.0
  0
LINE
  5
B8
330
AA
100
AcDbEntity
  8
0
  6
K5LT_THIN
 62
     7
370
    18
100
AcDbLine
 10
185.0
 20
-0.2601932145290675
 30
0.0
 11
199.4341102159375
 21
-0.2601932145290684
 31
0.0
  0
LINE
  5
B9
330
AA
100
AcDbEntity
  8
0
  6
K5LT_THIN
 62
     7
370
    18
100
AcDbLine
 10
185.0
 20
154.7398067854709
 30
0.0
 11
199.4341102159375
 21
154.7398067854709
 31
0.0
  0
MTEXT
  5
BA
330
AA
100
AcDbEntity
  8
0
 62
     7
100
AcDbMText
 10
189.8995266473645
 20
82.99334873188207
 30
0.0
 40
0.0
 41
0.0
 46
0.0
 71
     1
 72
     1
  1
\H3.5;\W0.965;\Q15;\Q15;\H5.00;155
  7
KTEXTSTYLE
 11
6.123233995736766E-17
 21
1.0
 31
0.0
 73
     1
 44
1.0
  0
ENDBLK
  5
BC
330
AA
100
AcDbEntity
  8
0
100
AcDbBlockEnd
  0
BLOCK
  5
CE
330
BE
100
AcDbEntity
  8
0
100
AcDbBlockBegin
  2
D1
 70
     0
 10
0.0
 20
0.0
 30
0.0
  3
D1
  1

  0
WIPEOUT
  5
BF
330
BE
100
AcDbEntity
  8
0
 92
      152
310
98000000040000000C0000000E000000120000000C00000016000000000000C20C00000014000000010000006C0000000700000004000000D36EA0B944B65540B8D72EC4377D6440000000000000000018C0A70ADBB5554072D2360E6E5865400000000000000000D01B223CDE2D5840E7F1D33ABA58654000000000000000
310
008CCA1AEB472E58402EF7CBF0837D64400000000000000000
100
AcDbWipeout
 90
        0
 10
86.84149423963423
 20
163.9130574145217
 30
0.0
 11
9.881645309776857
 21
0.0
 31
0.0
 12
0.0
 22
9.881645309776857
 32
0.0
 13
1.0
 23
1.0
340
0
 70
     7
280
     1
281
    50
282
    50
283
     0
360
0
 71
     2
 91
        5
 14
-0.4993472334170601
 24
0.4999999999999964
 14
-0.5
 24
-0.1932425606199217
 14
0.4993472334170583
 24
-0.1941835595080228
 14
0.5
 24
0.4990590011118918
 14
-0.4993472334170601
 24
0.4999999999999964
  0
LINE
  5
C0
330
BE
100
AcDbEntity
  8
0
  6
K5LT_THIN
 62
     7
370
    18
100
AcDbLine
 10
184.9921792742749
 20
163.0454708148852
 30
0.0
 11
179.9928013194647
 21
162.3825005498558
 31
0.0
  0
LINE
  5
C1
330
BE
100
AcDbEntity
  8
0
  6
K5LT_THIN
 62
     7
370
    18
100
AcDbLine
 10
179.9928013194647
 20
162.3825005498558
 30
0.0
 11
180.4921812692048
 21
163.0412335558249
 31
0.0
  0
LINE
  5
C2
330
BE
100
AcDbEntity
  8
0
  6
K5LT_THIN
 62
     7
370
    18
100
AcDbLine
 10
180.4921812692048
 20
163.0412335558249
 30
0.0
 11
179.9915616622625
 21
163.6990249486694
 31
0.0
  0
LINE
  5
C3
330
BE
100
AcDbEntity
  8
0
  6
K5LT_THIN
 62
     7
370
    18
100
AcDbLine
 10
179.9915616622625
 20
163.6990249486694
 30
0.0
 11
184.9921792742749
 21
163.0454708148852
 31
0.0
  0
HATCH
  5
C4
330
BE
100
AcDbEntity
  8
0
 62
     7
100
AcDbHatch
 10
0.0
 20
0.0
 30
0.0
210
0.0
220
0.0
230
1.0
  2
SOLID
 70
     1
 71
     0
 91
        1
 92
        1
 93
        4
 72
     1
 10
184.9921792742749
 20
163.0454708148852
 11
179.9915616622625
 21
163.6990249486694
 72
     1
 10
179.9915616622625
 20
163.6990249486694
 11
180.4921812692048
 21
163.0412335558249
 72
     1
 10
180.4921812692048
 20
163.0412335558249
 11
179.9928013194647
 21
162.3825005498558
 72
     1
 10
179.9928013194647
 20
162.3825005498558
 11
184.9921792742749
 21
163.0454708148852
 97
        0
 75
     0
 76
     1
 98
        0
  0
LINE
  5
C5
330
BE
100
AcDbEntity
  8
0
  6
K5LT_THIN
 62
     7
370
    18
100
AcDbLine
 10
-1.00782072572505
 20
162.870330696081
 30
0.0
 11
3.991557229085146
 21
163.5333009611104
 31
0.0
  0
LINE
  5
C6
330
BE
100
AcDbEntity
  8
0
  6
K5LT_THIN
 62
     7
370
    18
100
AcDbLine
 10
3.991557229085146
 20
163.5333009611104
 30
0.0
 11
3.492177279345132
 21
162.8745679551414
 31
0.0
  0
LINE
  5
C7
330
BE
100
AcDbEntity
  8
0
  6
K5LT_THIN
 62
     7
370
    18
100
AcDbLine
 10
3.492177279345132
 20
162.8745679551414
 30
0.0
 11
3.992796886287387
 21
162.2167765622969
 31
0.0
  0
LINE
  5
C8
330
BE
100
AcDbEntity
  8
0
  6
K5LT_THIN
 62
     7
370
    18
100
AcDbLine
 10
3.992796886287387
 20
162.2167765622969
 30
0.0
 11
-1.00782072572505
 21
162.870330696081
 31
0.0
  0
HATCH
  5
C9
330
BE
100
AcDbEntity
  8
0
 62
     7
100
AcDbHatch
 10
0.0
 20
0.0
 30
0.0
210
0.0
220
0.0
230
1.0
  2
SOLID
 70
     1
 71
     0
 91
        1
 92
        1
 93
        4
 72
     1
 10
3.992796886287387
 20
162.2167765622969
 11
3.492177279345132
 21
162.8745679551414
 72
     1
 10
3.492177279345132
 20
162.8745679551414
 11
3.991557229085146
 21
163.5333009611104
 72
     1
 10
3.991557229085146
 20
163.5333009611104
 11
-1.00782072572505
 21
162.870330696081
 72
     1
 10
-1.00782072572505
 20
162.870330696081
 11
3.992796886287387
 21
162.2167765622969
 97
        0
 75
     0
 76
     1
 98
        0
  0
LINE
  5
CA
330
BE
100
AcDbEntity
  8
0
  6
K5LT_THIN
 62
     7
370
    18
100
AcDbLine
 10
184.9921792742749
 20
163.0454708148852
 30
0.0
 11
-1.00782072572505
 21
162.870330696081
 31
0.0
  0
LINE
  5
CB
330
BE
100
AcDbEntity
  8
0
  6
K5LT_THIN
 62
     7
370
    18
100
AcDbLine
 10
185.0
 20
154.7398067854709
 30
0.0
 11
184.9902960480259
 21
165.0454699282498
 31
0.0
  0
LINE
  5
CC
330
BE
100
AcDbEntity
  8
0
  6
K5LT_THIN
 62
     7
370
    18
100
AcDbLine
 10
-0.9999999999999999
 20
154.5646666666667
 30
0.0
 11
-1.009703951974098
 21
164.8703298094456
 31
0.0
  0
MTEXT
  5
CD
330
BE
100
AcDbEntity
  8
0
 62
     7
100
AcDbMText
 10
86.84175393340823
 20
170.4876379540243
 30
0.0
 40
0.0
 41
0.0
 46
0.0
 71
     1
 72
     1
  1
\H3.5;\W0.965;\Q15;\Q15;\H5.00;186
  7
KTEXTSTYLE
 11
0.9999995566822636
 21
0.0009416131245245601
 31
0.0
 73
     1
 44
1.0
  0
ENDBLK
  5
CF
330
BE
100
AcDbEntity
  8
0
100
AcDbBlockEnd
  0
BLOCK
  5
165
330
D2
100
AcDbEntity
  8
0
100
AcDbBlockBegin
  2
U1
 70
     0
 10
0.0
 20
0.0
 30
0.0
  3
U1
  1

  0
LINE
  5
D5
330
D2
100
AcDbEntity
  8
0
  6
K5LT_BASIC
 62
     5
420
      255
370
    60
100
AcDbLine
 10
-1.0
 20
154.5646666666667
 30
0.0
 11
185.0
 21
154.7398067854709
 31
0.0
  0
LINE
  5
D6
330
D2
100
AcDbEntity
  8
0
  6
K5LT_BASIC
 62
     5
420
      255
370
    60
100
AcDbLine
 10
185.0
 20
154.7398067854709
 30
0.0
 11
185.0
 21
-0.2601932145290675
 31
0.0
  0
LINE
  5
D7
330
D2
100
AcDbEntity
  8
0
  6
K5LT_BASIC
 62
     5
420
      255
370
    60
100
AcDbLine
 10
185.0
 20
-0.2601932145290675
 30
0.0
 11
-1.000000000000007
 21
-0.2601932145290675
 31
0.0
  0
LINE
  5
D8
330
D2
100
AcDbEntity
  8
0
  6
K5LT_BASIC
 62
     5
420
      255
370
    60
100
AcDbLine
 10
-1.000000000000007
 20
-0.2601932145290675
 30
0.0
 11
-1.0
 21
154.5646666666667
 31
0.0
  0
MTEXT
  5
D9
330
D2
100
AcDbEntity
  8
0
 62
     7
100
AcDbMText
 10
112.2015949183212
 20
31.85279293893396
 30
0.0
 40
0.0
 41
0.0
 46
0.0
 71
     1
 72
     1
  1
\H3.5;\W0.965;\Q15;\Q15;\H5.00;28
  7
KTEXTSTYLE
 73
     1
 44
1.0
  0
MTEXT
  5
DA
330
D2
100
AcDbEntity
  8
0
 62
     7
100
AcDbMText
 10
44.36734277414453
 20
69.77195202126127
 30
0.0
 40
0.0
 41
0.0
 46
0.0
 71
     1
 72
     1
  1
\H3.5;\W0.965;\Q15;\Q15;\H5.00;28
  7
KTEXTSTYLE
 73
     1
 44
1.0
  0
MTEXT
  5
DB
330
D2
100
AcDbEntity
  8
0
 62
     7
100
AcDbMText
 10
161.2757821241937
 20
113.1124545629109
 30
0.0
 40
0.0
 41
0.0
 46
0.0
 71
     1
 72
     1
  1
\H3.5;\W0.965;\Q15;\Q15;\H5.00;27
  7
KTEXTSTYLE
 73
     1
 44
1.0
  0
MTEXT
  5
DC
330
D2
100
AcDbEntity
  8
0
 62
     7
100
AcDbMText
 10
148.7585919766016
 20
95.01306916153172
 30
0.0
 40
0.0
 41
0.0
 46
0.0
 71
     1
 72
     1
  1
\H3.5;\W0.965;\Q15;\Q15;\H7.00;2920
  7
KTEXTSTYLE
 73
     1
 44
1.0
  0
INSERT
  5
DE
330
D2
100
AcDbEntity
  8
0
100
AcDbBlockReference
  2
U2
 10
0.0
 20
0.0
 30
0.0
  0
INSERT
  5
10C
330
D2
100
AcDbEntity
  8
0
100
AcDbBlockReference
  2
U3
 10
0.0
 20
0.0
 30
0.0
  0
INSERT
  5
13A
330
D2
100
AcDbEntity
  8
0
100
AcDbBlockReference
  2
U4
 10
0.0
 20
0.0
 30
0.0
  0
INSERT
  5
152
330
D2
100
AcDbEntity
  8
0
100
AcDbBlockReference
  2
U7
 10
0.0
 20
0.0
 30
0.0
  0
ENDBLK
  5
166
330
D2
100
AcDbEntity
  8
0
100
AcDbBlockEnd
  0
BLOCK
  5
109
330
DD
100
AcDbEntity
  8
0
100
AcDbBlockBegin
  2
U2
 70
     0
 10
0.0
 20
0.0
 30
0.0
  3
U2
  1

  0
LINE
  5
DF
330
DD
100
AcDbEntity
  8
0
  6
K5LT_BASIC
 62
     5
420
      255
370
    60
100
AcDbLine
 10
10.11497603093041
 20
83.29934471346712
 30
0.0
 11
10.11497603093041
 21
53.41657786901077
 31
0.0
  0
LINE
  5
E0
330
DD
100
AcDbEntity
  8
0
  6
K5LT_BASIC
 62
     5
420
      255
370
    60
100
AcDbLine
 10
12.39540875416995
 20
83.29934471346712
 30
0.0
 11
12.39540875416995
 21
85.97471905336693
 31
0.0
  0
LINE
  5
E1
330
DD
100
AcDbEntity
  8
0
  6
K5LT_BASIC
 62
     5
420
      255
370
    60
100
AcDbLine
 10
10.11497603093041
 20
83.29934471346712
 30
0.0
 11
12.39540875416995
 21
83.29934471346712
 31
0.0
  0
SPLINE
  5
E2
330
DD
100
AcDbEntity
  8
0
  6
K5LT_BASIC
 62
     5
420
      255
370
    60
100
AcDbSpline
210
0.0
220
0.0
230
1.0
 70
     8
 71
     3
 72
    17
 73
    13
 74
     0
 42
0.0
 43
0.0
 12
1.0
 22
0.0
 32
0.0
 13
1.0
 23
0.0
 33
0.0
 40
0.0
 40
0.0
 40
0.0
 40
0.0
 40
1.0
 40
1.0
 40
1.0
 40
2.0
 40
2.0
 40
2.0
 40
3.0
 40
3.0
 40
3.0
 40
4.0
 40
4.0
 40
4.0
 40
4.0
 10
42.63743744709694
 20
84.4313195559464
 30
0.0
 10
40.72535818319488
 20
84.56456723316082
 30
0.0
 10
38.81269961741574
 20
84.68764320675487
 30
0.0
 10
36.8994617497595
 20
84.80054747672858
 30
0.0
 10
33.50846646418805
 20
85.00065738134319
 30
0.0
 10
30.11394676961056
 20
85.13921783371379
 30
0.0
 10
26.72101652182022
 20
85.3050185230113
 30
0.0
 10
23.43711681514627
 20
85.46549126933583
 30
0.0
 10
20.1534796425649
 20
85.6319746402537
 30
0.0
 10
16.86899373559327
 20
85.77981480186561
 30
0.0
 10
15.3778973214931
 20
85.84693152609073
 30
0.0
 10
13.88670232768533
 20
85.9118996099245
 30
0.0
 10
12.39540875416995
 20
85.97471905336693
 30
0.0
  0
LINE
  5
E3
330
DD
100
AcDbEntity
  8
0
  6
K5LT_BASIC
 62
     5
420
      255
370
    60
100
AcDbLine
 10
42.63743744709694
 20
80.25206568254933
 30
0.0
 11
42.63743744709694
 21
84.4313195559464
 31
0.0
  0
LINE
  5
E4
330
DD
100
AcDbEntity
  8
0
  6
K5LT_BASIC
 62
     5
420
      255
370
    60
100
AcDbLine
 10
48.65077691844035
 20
80.25206568254933
 30
0.0
 11
42.63743744709694
 21
80.25206568254933
 31
0.0
  0
LINE
  5
E5
330
DD
100
AcDbEntity
  8
0
  6
K5LT_BASIC
 62
     5
420
      255
370
    60
100
AcDbLine
 10
48.65077691844035
 20
84.18402984702927
 30
0.0
 11
48.65077691844035
 21
80.25206568254933
 31
0.0
  0
SPLINE
  5
E6
330
DD
100
AcDbEntity
  8
0
  6
K5LT_BASIC
 62
     5
420
      255
370
    60
100
AcDbSpline
210
0.0
220
0.0
230
1.0
 70
    24
 71
     3
 72
     8
 73
     4
 74
     0
 42
0.0
 43
0.0
 12
1.0
 22
0.0
 32
0.0
 13
1.0
 23
0.0
 33
0.0
 40
0.0
 40
0.0
 40
0.0
 40
0.0
 40
1.0
 40
1.0
 40
1.0
 40
1.0
 10
51.83001318064329
 20
84.06038499257069
 30
0.0
 10
49.71052233917466
 20
84.14281489554307
 30
0.0
 10
50.77026775990898
 20
84.10159994405689
 30
0.0
 10
48.65077691844035
 20
84.18402984702927
 30
0.0
  0
LINE
  5
E7
330
DD
100
AcDbEntity
  8
0
  6
K5LT_BASIC
 62
     5
420
      255
370
    60
100
AcDbLine
 10
51.83001318064329
 20
81.91860075377227
 30
0.0
 11
51.83001318064329
 21
84.06038499257069
 31
0.0
  0
LINE
  5
E8
330
DD
100
AcDbEntity
  8
0
  6
K5LT_BASIC
 62
     5
420
      255
370
    60
100
AcDbLine
 10
53.88113334980648
 20
81.91860075377227
 30
0.0
 11
51.83001318064329
 21
81.91860075377227
 31
0.0
  0
LINE
  5
E9
330
DD
100
AcDbEntity
  8
0
  6
K5LT_BASIC
 62
     5
420
      255
370
    60
100
AcDbLine
 10
53.88113334980648
 20
84.01917004108451
 30
0.0
 11
53.88113334980648
 21
81.91860075377227
 31
0.0
  0
LINE
  5
EA
330
DD
100
AcDbEntity
  8
0
  6
K5LT_BASIC
 62
     5
420
      255
370
    60
100
AcDbLine
 10
42.23920721549435
 20
55.89501464159873
 30
0.0
 11
42.23920721549435
 21
78.4146039373548
 31
0.0
  0
LINE
  5
EB
330
DD
100
AcDbEntity
  8
0
  6
K5LT_BASIC
 62
     5
420
      255
370
    60
100
AcDbLine
 10
42.23920721549435
 20
78.4146039373548
 30
0.0
 11
15.88231304174737
 21
78.4146039373548
 31
0.0
  0
LINE
  5
EC
330
DD
100
AcDbEntity
  8
0
  6
K5LT_BASIC
 62
     5
420
      255
370
    60
100
AcDbLine
 10
15.88231304174737
 20
78.4146039373548
 30
0.0
 11
15.88231304174737
 21
55.89501464159873
 31
0.0
  0
LINE
  5
ED
330
DD
100
AcDbEntity
  8
0
  6
K5LT_BASIC
 62
     5
420
      255
370
    60
100
AcDbLine
 10
15.88231304174737
 20
55.89501464159873
 30
0.0
 11
42.23920721549435
 21
55.89501464159873
 31
0.0
  0
LINE
  5
EE
330
DD
100
AcDbEntity
  8
0
  6
K5LT_BASIC
 62
     5
420
      255
370
    60
100
AcDbLine
 10
10.11497603093041
 20
53.41657786901077
 30
0.0
 11
23.69892586213096
 21
53.41657786901077
 31
0.0
  0
LINE
  5
EF
330
DD
100
AcDbEntity
  8
0
  6
K5LT_BASIC
 62
     5
420
      255
370
    60
100
AcDbLine
 10
23.69892586213096
 20
53.41657786901077
 30
0.0
 11
23.69892586213096
 21
50.93814109642282
 31
0.0
  0
LINE
  5
F0
330
DD
100
AcDbEntity
  8
0
  6
K5LT_BASIC
 62
     5
420
      255
370
    60
100
AcDbLine
 10
23.69892586213096
 20
50.93814109642282
 30
0.0
 11
39.21052152505213
 21
50.93814109642282
 31
0.0
  0
LINE
  5
F1
330
DD
100
AcDbEntity
  8
0
  6
K5LT_BASIC
 62
     5
420
      255
370
    60
100
AcDbLine
 10
39.21052152505213
 20
50.93814109642282
 30
0.0
 11
39.21052152505213
 21
53.41657786901077
 31
0.0
  0
LINE
  5
F2
330
DD
100
AcDbEntity
  8
0
  6
K5LT_BASIC
 62
     5
420
      255
370
    60
100
AcDbLine
 10
39.21052152505213
 20
53.41657786901077
 30
0.0
 11
105.5391680670369
 21
53.41657786901077
 31
0.0
  0
LINE
  5
F3
330
DD
100
AcDbEntity
  8
0
  6
K5LT_BASIC
 62
     5
420
      255
370
    60
100
AcDbLine
 10
55.67586349782427
 20
55.89501464159873
 30
0.0
 11
55.67586349782427
 21
78.4146039373548
 31
0.0
  0
LINE
  5
F4
330
DD
100
AcDbEntity
  8
0
  6
K5LT_BASIC
 62
     5
420
      255
370
    60
100
AcDbLine
 10
55.67586349782427
 20
78.4146039373548
 30
0.0
 11
95.15992675421566
 21
78.4146039373548
 31
0.0
  0
LINE
  5
F5
330
DD
100
AcDbEntity
  8
0
  6
K5LT_BASIC
 62
     5
420
      255
370
    60
100
AcDbLine
 10
95.15992675421566
 20
55.89501464159873
 30
0.0
 11
55.67586349782427
 21
55.89501464159873
 31
0.0
  0
LINE
  5
F6
330
DD
100
AcDbEntity
  8
0
  6
K5LT_BASIC
 62
     5
420
      255
370
    60
100
AcDbLine
 10
95.15992675421566
 20
78.4146039373548
 30
0.0
 11
95.15992675421566
 21
55.89501464159873
 31
0.0
  0
SPLINE
  5
F7
330
DD
100
AcDbEntity
  8
0
  6
K5LT_BASIC
 62
     5
420
      255
370
    60
100
AcDbSpline
210
0.0
220
0.0
230
1.0
 70
     8
 71
     3
 72
    26
 73
    22
 74
     0
 42
0.0
 43
0.0
 12
1.0
 22
0.0
 32
0.0
 13
1.0
 23
0.0
 33
0.0
 40
0.0
 40
0.0
 40
0.0
 40
0.0
 40
1.0
 40
1.0
 40
1.0
 40
2.0
 40
2.0
 40
2.0
 40
3.0
 40
3.0
 40
3.0
 40
4.0
 40
4.0
 40
4.0
 40
5.0
 40
5.0
 40
5.0
 40
6.0
 40
6.0
 40
6.0
 40
7.0
 40
7.0
 40
7.0
 40
7.0
 10
96.90337889800438
 20
83.1204142637905
 30
0.0
 10
93.86258585259604
 20
83.14063926230219
 30
0.0
 10
90.82203291463475
 20
83.17598005142935
 30
0.0
 10
87.78172008412045
 20
83.226436631172
 30
0.0
 10
85.61113465771959
 20
83.2624593442153
 30
0.0
 10
83.44095265774753
 20
83.32429323413052
 30
0.0
 10
81.27033095540247
 20
83.35761846343556
 30
0.0
 10
79.00901511399047
 20
83.39233610624947
 30
0.0
 10
76.74692587391931
 20
83.38216180403617
 30
0.0
 10
74.48586684670609
 20
83.42790302297036
 30
0.0
 10
72.68432902094666
 20
83.46434812905316
 30
0.0
 10
70.88344135168754
 20
83.5331894092256
 30
0.0
 10
69.08207042321426
 20
83.5797338292498
 30
0.0
 10
67.43732460175138
 20
83.62223131776656
 30
0.0
 10
65.79217952913685
 20
83.65016622515398
 30
0.0
 10
64.14756921913167
 20
83.69705763410212
 30
0.0
 10
62.36904712171871
 20
83.74776715871458
 30
0.0
 10
60.59118348396718
 20
83.82102546839913
 30
0.0
 10
58.81278679849413
 20
83.87649404152332
 30
0.0
 10
57.16901840030724
 20
83.92776352956209
 30
0.0
 10
55.52513391741135
 20
83.97532219608249
 30
0.0
 10
53.88113334980648
 20
84.01917004108451
 30
0.0
  0
LINE
  5
F8
330
DD
100
AcDbEntity
  8
0
  6
K5LT_BASIC
 62
     5
420
      255
370
    60
100
AcDbLine
 10
98.8519430587094
 20
81.0841347547218
 30
0.0
 11
96.90337889800438
 21
81.0841347547218
 31
0.0
  0
LINE
  5
F9
330
DD
100
AcDbEntity
  8
0
  6
K5LT_BASIC
 62
     5
420
      255
370
    60
100
AcDbLine
 10
105.005303566199
 20
80.25206568254933
 30
0.0
 11
98.8519430587094
 21
80.25206568254933
 31
0.0
  0
LINE
  5
FA
330
DD
100
AcDbEntity
  8
0
  6
K5LT_BASIC
 62
     5
420
      255
370
    60
100
AcDbLine
 10
105.005303566199
 20
83.1204142637905
 30
0.0
 11
105.005303566199
 21
80.25206568254933
 31
0.0
  0
SPLINE
  5
FB
330
DD
100
AcDbEntity
  8
0
  6
K5LT_BASIC
 62
     5
420
      255
370
    60
100
AcDbSpline
210
0.0
220
0.0
230
1.0
 70
     8
 71
     3
 72
    35
 73
    31
 74
     0
 42
0.0
 43
0.0
 12
1.0
 22
0.0
 32
0.0
 13
1.0
 23
0.0
 33
0.0
 40
0.0
 40
0.0
 40
0.0
 40
0.0
 40
1.0
 40
1.0
 40
1.0
 40
2.0
 40
2.0
 40
2.0
 40
3.0
 40
3.0
 40
3.0
 40
4.0
 40
4.0
 40
4.0
 40
5.0
 40
5.0
 40
5.0
 40
6.0
 40
6.0
 40
6.0
 40
7.0
 40
7.0
 40
7.0
 40
8.0
 40
8.0
 40
8.0
 40
9.0
 40
9.0
 40
9.0
 40
10.0
 40
10.0
 40
10.0
 40
10.0
 10
152.0785114484942
 20
83.9104038609707
 30
0.0
 10
150.2025963490349
 20
83.7954160799418
 30
0.0
 10
148.3257996773777
 20
83.70555611616815
 30
0.0
 10
146.4481214335224
 20
83.64082396964977
 30
0.0
 10
144.7411158775927
 20
83.58197569033689
 30
0.0
 10
143.0325998246758
 20
83.56693328646324
 30
0.0
 10
141.3249189846605
 20
83.52658135435401
 30
0.0
 10
140.0182226505292
 20
83.4957045531821
 30
0.0
 10
138.7116495864001
 20
83.45937182348642
 30
0.0
 10
137.4049236225362
 20
83.42996175035798
 30
0.0
 10
135.1833417626047
 20
83.37996130132105
 30
0.0
 10
132.9614458835029
 20
83.3440331719618
 30
0.0
 10
130.7396504624215
 20
83.30420894941959
 30
0.0
 10
128.9201442878296
 20
83.27159549719697
 30
0.0
 10
127.1004990814006
 20
83.24640291891168
 30
0.0
 10
125.2810560855075
 20
83.21058039328757
 30
0.0
 10
124.1959711754006
 20
83.18921644724233
 30
0.0
 10
123.1110577344208
 20
83.15099100765269
 30
0.0
 10
122.0258957468947
 20
83.14156639317564
 30
0.0
 10
120.8206809130383
 20
83.13109912165149
 30
0.0
 10
119.6151456037015
 20
83.16376273294512
 30
0.0
 10
118.4098495875736
 20
83.16041763572161
 30
0.0
 10
116.3904083255673
 20
83.15481301472548
 30
0.0
 10
114.3714273454168
 20
83.07480433673838
 30
0.0
 10
112.3519696522686
 20
83.06251318505117
 30
0.0
 10
111.1318620372057
 20
83.05508716774844
 30
0.0
 10
109.9115594323915
 20
83.05296542300263
 30
0.0
 10
108.6914667954211
 20
83.06251318505117
 30
0.0
 10
107.4626696633321
 20
83.0721290636063
 30
0.0
 10
106.2339485869247
 20
83.09142942318607
 30
0.0
 10
105.005303566199
 20
83.1204142637905
 30
0.0
  0
LINE
  5
FC
330
DD
100
AcDbEntity
  8
0
  6
K5LT_BASIC
 62
     5
420
      255
370
    60
100
AcDbLine
 10
154.2834656303446
 20
81.0841347547218
 30
0.0
 11
152.0785114484942
 21
81.0841347547218
 31
0.0
  0
LINE
  5
FD
330
DD
100
AcDbEntity
  8
0
  6
K5LT_BASIC
 62
     5
420
      255
370
    60
100
AcDbLine
 10
152.0785114484942
 20
81.0841347547218
 30
0.0
 11
152.0785114484942
 21
83.9104038609707
 31
0.0
  0
LINE
  5
FE
330
DD
100
AcDbEntity
  8
0
  6
K5LT_BASIC
 62
     5
420
      255
370
    60
100
AcDbLine
 10
154.2834656303446
 20
53.41657786901077
 30
0.0
 11
154.2834656303446
 21
81.0841347547218
 31
0.0
  0
LINE
  5
FF
330
DD
100
AcDbEntity
  8
0
  6
K5LT_BASIC
 62
     5
420
      255
370
    60
100
AcDbLine
 10
140.2845704758058
 20
53.41657786901077
 30
0.0
 11
154.2834656303446
 21
53.41657786901077
 31
0.0
  0
LINE
  5
100
330
DD
100
AcDbEntity
  8
0
  6
K5LT_BASIC
 62
     5
420
      255
370
    60
100
AcDbLine
 10
140.2845704758058
 20
50.93814109642282
 30
0.0
 11
140.2845704758058
 21
53.41657786901077
 31
0.0
  0
LINE
  5
101
330
DD
100
AcDbEntity
  8
0
  6
K5LT_BASIC
 62
     5
420
      255
370
    60
100
AcDbLine
 10
105.5391680670369
 20
50.93814109642282
 30
0.0
 11
140.2845704758058
 21
50.93814109642282
 31
0.0
  0
LINE
  5
102
330
DD
100
AcDbEntity
  8
0
  6
K5LT_BASIC
 62
     5
420
      255
370
    60
100
AcDbLine
 10
105.5391680670369
 20
53.41657786901077
 30
0.0
 11
105.5391680670369
 21
50.93814109642282
 31
0.0
  0
LINE
  5
103
330
DD
100
AcDbEntity
  8
0
  6
K5LT_BASIC
 62
     5
420
      255
370
    60
100
AcDbLine
 10
148.745441173604
 20
55.89501464159873
 30
0.0
 11
105.005303566199
 21
55.89501464159873
 31
0.0
  0
LINE
  5
104
330
DD
100
AcDbEntity
  8
0
  6
K5LT_BASIC
 62
     5
420
      255
370
    60
100
AcDbLine
 10
148.745441173604
 20
78.4146039373548
 30
0.0
 11
148.745441173604
 21
55.89501464159873
 31
0.0
  0
LINE
  5
105
330
DD
100
AcDbEntity
  8
0
  6
K5LT_BASIC
 62
     5
420
      255
370
    60
100
AcDbLine
 10
105.005303566199
 20
55.89501464159873
 30
0.0
 11
105.005303566199
 21
78.4146039373548
 31
0.0
  0
LINE
  5
106
330
DD
100
AcDbEntity
  8
0
  6
K5LT_BASIC
 62
     5
420
      255
370
    60
100
AcDbLine
 10
105.005303566199
 20
78.4146039373548
 30
0.0
 11
148.745441173604
 21
78.4146039373548
 31
0.0
  0
LINE
  5
107
330
DD
100
AcDbEntity
  8
0
  6
K5LT_BASIC
 62
     5
420
      255
370
    60
100
AcDbLine
 10
96.90337889800438
 20
81.0841347547218
 30
0.0
 11
96.90337889800438
 21
83.1204142637905
 31
0.0
  0
LINE
  5
108
330
DD
100
AcDbEntity
  8
0
  6
K5LT_BASIC
 62
     5
420
      255
370
    60
100
AcDbLine
 10
98.8519430587094
 20
80.25206568254933
 30
0.0
 11
98.8519430587094
 21
81.0841347547218
 31
0.0
  0
ENDBLK
  5
10A
330
DD
100
AcDbEntity
  8
0
100
AcDbBlockEnd
  0
BLOCK
  5
137
330
10B
100
AcDbEntity
  8
0
100
AcDbBlockBegin
  2
U3
 70
     0
 10
0.0
 20
0.0
 30
0.0
  3
U3
  1

  0
LINE
  5
10D
330
10B
100
AcDbEntity
  8
0
  6
K5LT_BASIC
 62
     5
420
      255
370
    60
100
AcDbLine
 10
154.9166320680341
 20
43.26626743200072
 30
0.0
 11
154.9166320680341
 21
13.38350058754438
 31
0.0
  0
LINE
  5
10E
330
10B
100
AcDbEntity
  8
0
  6
K5LT_BASIC
 62
     5
420
      255
370
    60
100
AcDbLine
 10
152.6361993447945
 20
43.26626743200072
 30
0.0
 11
152.6361993447945
 21
45.94164177190053
 31
0.0
  0
LINE
  5
10F
330
10B
100
AcDbEntity
  8
0
  6
K5LT_BASIC
 62
     5
420
      255
370
    60
100
AcDbLine
 10
154.9166320680341
 20
43.26626743200072
 30
0.0
 11
152.6361993447945
 21
43.26626743200072
 31
0.0
  0
SPLINE
  5
110
330
10B
100
AcDbEntity
  8
0
  6
K5LT_BASIC
 62
     5
420
      255
370
    60
100
AcDbSpline
210
0.0
220
0.0
230
1.0
 70
     8
 71
     3
 72
    17
 73
    13
 74
     0
 42
0.0
 43
0.0
 12
1.0
 22
0.0
 32
0.0
 13
1.0
 23
0.0
 33
0.0
 40
0.0
 40
0.0
 40
0.0
 40
0.0
 40
1.0
 40
1.0
 40
1.0
 40
2.0
 40
2.0
 40
2.0
 40
3.0
 40
3.0
 40
3.0
 40
4.0
 40
4.0
 40
4.0
 40
4.0
 10
122.3941706518675
 20
44.39824227448
 30
0.0
 10
124.3062499157696
 20
44.53148995169441
 30
0.0
 10
126.2189084815487
 20
44.65456592528847
 30
0.0
 10
128.132146349205
 20
44.76747019526218
 30
0.0
 10
131.5231416347764
 20
44.96758009987679
 30
0.0
 10
134.9176613293539
 20
45.10614055224739
 30
0.0
 10
138.3105915771443
 20
45.2719412415449
 30
0.0
 10
141.5944912838182
 20
45.43241398786943
 30
0.0
 10
144.8781284563996
 20
45.5988973587873
 30
0.0
 10
148.1626143633712
 20
45.74673752039921
 30
0.0
 10
149.6537107774714
 20
45.81385424462433
 30
0.0
 10
151.1449057712792
 20
45.8788223284581
 30
0.0
 10
152.6361993447945
 20
45.94164177190053
 30
0.0
  0
LINE
  5
111
330
10B
100
AcDbEntity
  8
0
  6
K5LT_BASIC
 62
     5
420
      255
370
    60
100
AcDbLine
 10
122.3941706518675
 20
40.21898840108293
 30
0.0
 11
122.3941706518675
 21
44.39824227448
 31
0.0
  0
LINE
  5
112
330
10B
100
AcDbEntity
  8
0
  6
K5LT_BASIC
 62
     5
420
      255
370
    60
100
AcDbLine
 10
116.3808311805241
 20
40.21898840108293
 30
0.0
 11
122.3941706518675
 21
40.21898840108293
 31
0.0
  0
LINE
  5
113
330
10B
100
AcDbEntity
  8
0
  6
K5LT_BASIC
 62
     5
420
      255
370
    60
100
AcDbLine
 10
116.3808311805241
 20
44.15095256556287
 30
0.0
 11
116.3808311805241
 21
40.21898840108293
 31
0.0
  0
SPLINE
  5
114
330
10B
100
AcDbEntity
  8
0
  6
K5LT_BASIC
 62
     5
420
      255
370
    60
100
AcDbSpline
210
0.0
220
0.0
230
1.0
 70
    24
 71
     3
 72
     8
 73
     4
 74
     0
 42
0.0
 43
0.0
 12
1.0
 22
0.0
 32
0.0
 13
1.0
 23
0.0
 33
0.0
 40
0.0
 40
0.0
 40
0.0
 40
0.0
 40
1.0
 40
1.0
 40
1.0
 40
1.0
 10
113.2015949183212
 20
44.02730771110429
 30
0.0
 10
115.3210857597898
 20
44.10973761407668
 30
0.0
 10
114.2613403390555
 20
44.0685226625905
 30
0.0
 10
116.3808311805241
 20
44.15095256556287
 30
0.0
  0
LINE
  5
115
330
10B
100
AcDbEntity
  8
0
  6
K5LT_BASIC
 62
     5
420
      255
370
    60
100
AcDbLine
 10
113.2015949183212
 20
41.88552347230587
 30
0.0
 11
113.2015949183212
 21
44.02730771110429
 31
0.0
  0
LINE
  5
116
330
10B
100
AcDbEntity
  8
0
  6
K5LT_BASIC
 62
     5
420
      255
370
    60
100
AcDbLine
 10
111.150474749158
 20
41.88552347230587
 30
0.0
 11
113.2015949183212
 21
41.88552347230587
 31
0.0
  0
LINE
  5
117
330
10B
100
AcDbEntity
  8
0
  6
K5LT_BASIC
 62
     5
420
      255
370
    60
100
AcDbLine
 10
111.150474749158
 20
43.98609275961811
 30
0.0
 11
111.150474749158
 21
41.88552347230587
 31
0.0
  0
LINE
  5
118
330
10B
100
AcDbEntity
  8
0
  6
K5LT_BASIC
 62
     5
420
      255
370
    60
100
AcDbLine
 10
122.7924008834701
 20
15.86193736013233
 30
0.0
 11
122.7924008834701
 21
38.3815266558884
 31
0.0
  0
LINE
  5
119
330
10B
100
AcDbEntity
  8
0
  6
K5LT_BASIC
 62
     5
420
      255
370
    60
100
AcDbLine
 10
122.7924008834701
 20
38.3815266558884
 30
0.0
 11
149.1492950572171
 21
38.3815266558884
 31
0.0
  0
LINE
  5
11A
330
10B
100
AcDbEntity
  8
0
  6
K5LT_BASIC
 62
     5
420
      255
370
    60
100
AcDbLine
 10
149.1492950572171
 20
38.3815266558884
 30
0.0
 11
149.1492950572171
 21
15.86193736013233
 31
0.0
  0
LINE
  5
11B
330
10B
100
AcDbEntity
  8
0
  6
K5LT_BASIC
 62
     5
420
      255
370
    60
100
AcDbLine
 10
149.1492950572171
 20
15.86193736013233
 30
0.0
 11
122.7924008834701
 21
15.86193736013233
 31
0.0
  0
LINE
  5
11C
330
10B
100
AcDbEntity
  8
0
  6
K5LT_BASIC
 62
     5
420
      255
370
    60
100
AcDbLine
 10
154.9166320680341
 20
13.38350058754438
 30
0.0
 11
141.3326822368335
 21
13.38350058754438
 31
0.0
  0
LINE
  5
11D
330
10B
100
AcDbEntity
  8
0
  6
K5LT_BASIC
 62
     5
420
      255
370
    60
100
AcDbLine
 10
141.3326822368335
 20
13.38350058754438
 30
0.0
 11
141.3326822368335
 21
10.90506381495642
 31
0.0
  0
LINE
  5
11E
330
10B
100
AcDbEntity
  8
0
  6
K5LT_BASIC
 62
     5
420
      255
370
    60
100
AcDbLine
 10
141.3326822368335
 20
10.90506381495642
 30
0.0
 11
125.8210865739124
 21
10.90506381495642
 31
0.0
  0
LINE
  5
11F
330
10B
100
AcDbEntity
  8
0
  6
K5LT_BASIC
 62
     5
420
      255
370
    60
100
AcDbLine
 10
125.8210865739124
 20
10.90506381495642
 30
0.0
 11
125.8210865739124
 21
13.38350058754438
 31
0.0
  0
LINE
  5
120
330
10B
100
AcDbEntity
  8
0
  6
K5LT_BASIC
 62
     5
420
      255
370
    60
100
AcDbLine
 10
125.8210865739124
 20
13.38350058754438
 30
0.0
 11
59.49244003192757
 21
13.38350058754438
 31
0.0
  0
LINE
  5
121
330
10B
100
AcDbEntity
  8
0
  6
K5LT_BASIC
 62
     5
420
      255
370
    60
100
AcDbLine
 10
109.3557446011402
 20
15.86193736013233
 30
0.0
 11
109.3557446011402
 21
38.3815266558884
 31
0.0
  0
LINE
  5
122
330
10B
100
AcDbEntity
  8
0
  6
K5LT_BASIC
 62
     5
420
      255
370
    60
100
AcDbLine
 10
109.3557446011402
 20
38.3815266558884
 30
0.0
 11
69.87168134474882
 21
38.3815266558884
 31
0.0
  0
LINE
  5
123
330
10B
100
AcDbEntity
  8
0
  6
K5LT_BASIC
 62
     5
420
      255
370
    60
100
AcDbLine
 10
69.87168134474882
 20
15.86193736013233
 30
0.0
 11
109.3557446011402
 21
15.86193736013233
 31
0.0
  0
LINE
  5
124
330
10B
100
AcDbEntity
  8
0
  6
K5LT_BASIC
 62
     5
420
      255
370
    60
100
AcDbLine
 10
69.87168134474882
 20
38.3815266558884
 30
0.0
 11
69.87168134474882
 21
15.86193736013233
 31
0.0
  0
SPLINE
  5
125
330
10B
100
AcDbEntity
  8
0
  6
K5LT_BASIC
 62
     5
420
      255
370
    60
100
AcDbSpline
210
0.0
220
0.0
230
1.0
 70
     8
 71
     3
 72
    26
 73
    22
 74
     0
 42
0.0
 43
0.0
 12
1.0
 22
0.0
 32
0.0
 13
1.0
 23
0.0
 33
0.0
 40
0.0
 40
0.0
 40
0.0
 40
0.0
 40
1.0
 40
1.0
 40
1.0
 40
2.0
 40
2.0
 40
2.0
 40
3.0
 40
3.0
 40
3.0
 40
4.0
 40
4.0
 40
4.0
 40
5.0
 40
5.0
 40
5.0
 40
6.0
 40
6.0
 40
6.0
 40
7.0
 40
7.0
 40
7.0
 40
7.0
 10
68.1282292009601
 20
43.0873369823241
 30
0.0
 10
71.16902224636843
 20
43.10756198083578
 30
0.0
 10
74.20957518432974
 20
43.14290276996295
 30
0.0
 10
77.24988801484403
 20
43.19335934970561
 30
0.0
 10
79.4204734412449
 20
43.2293820627489
 30
0.0
 10
81.59065544121695
 20
43.29121595266412
 30
0.0
 10
83.76127714356201
 20
43.32454118196916
 30
0.0
 10
86.02259298497401
 20
43.35925882478308
 30
0.0
 10
88.28468222504517
 20
43.34908452256978
 30
0.0
 10
90.5457412522584
 20
43.39482574150396
 30
0.0
 10
92.34727907801782
 20
43.43127084758677
 30
0.0
 10
94.14816674727695
 20
43.5001121277592
 30
0.0
 10
95.94953767575022
 20
43.54665654778341
 30
0.0
 10
97.5942834972131
 20
43.58915403630017
 30
0.0
 10
99.23942856982764
 20
43.61708894368758
 30
0.0
 10
100.8840388798328
 20
43.66398035263573
 30
0.0
 10
102.6625609772458
 20
43.71468987724818
 30
0.0
 10
104.4404246149973
 20
43.78794818693273
 30
0.0
 10
106.2188213004704
 20
43.84341676005692
 30
0.0
 10
107.8625896986572
 20
43.89468624809569
 30
0.0
 10
109.5064741815531
 20
43.9422449146161
 30
0.0
 10
111.150474749158
 20
43.98609275961811
 30
0.0
  0
LINE
  5
126
330
10B
100
AcDbEntity
  8
0
  6
K5LT_BASIC
 62
     5
420
      255
370
    60
100
AcDbLine
 10
66.17966504025509
 20
41.0510574732554
 30
0.0
 11
68.1282292009601
 21
41.0510574732554
 31
0.0
  0
LINE
  5
127
330
10B
100
AcDbEntity
  8
0
  6
K5LT_BASIC
 62
     5
420
      255
370
    60
100
AcDbLine
 10
60.02630453276551
 20
40.21898840108293
 30
0.0
 11
66.17966504025509
 21
40.21898840108293
 31
0.0
  0
LINE
  5
128
330
10B
100
AcDbEntity
  8
0
  6
K5LT_BASIC
 62
     5
420
      255
370
    60
100
AcDbLine
 10
60.02630453276551
 20
43.0873369823241
 30
0.0
 11
60.02630453276551
 21
40.21898840108293
 31
0.0
  0
SPLINE
  5
129
330
10B
100
AcDbEntity
  8
0
  6
K5LT_BASIC
 62
     5
420
      255
370
    60
100
AcDbSpline
210
0.0
220
0.0
230
1.0
 70
     8
 71
     3
 72
    35
 73
    31
 74
     0
 42
0.0
 43
0.0
 12
1.0
 22
0.0
 32
0.0
 13
1.0
 23
0.0
 33
0.0
 40
0.0
 40
0.0
 40
0.0
 40
0.0
 40
1.0
 40
1.0
 40
1.0
 40
2.0
 40
2.0
 40
2.0
 40
3.0
 40
3.0
 40
3.0
 40
4.0
 40
4.0
 40
4.0
 40
5.0
 40
5.0
 40
5.0
 40
6.0
 40
6.0
 40
6.0
 40
7.0
 40
7.0
 40
7.0
 40
8.0
 40
8.0
 40
8.0
 40
9.0
 40
9.0
 40
9.0
 40
10.0
 40
10.0
 40
10.0
 40
10.0
 10
12.95309665047031
 20
43.87732657950431
 30
0.0
 10
14.82901174992958
 20
43.7623387984754
 30
0.0
 10
16.70580842158682
 20
43.67247883470176
 30
0.0
 10
18.58348666544208
 20
43.60774668818338
 30
0.0
 10
20.29049222137178
 20
43.54889840887049
 30
0.0
 10
21.99900827428866
 20
43.53385600499684
 30
0.0
 10
23.70668911430394
 20
43.49350407288761
 30
0.0
 10
25.01338544843532
 20
43.4626272717157
 30
0.0
 10
26.31995851256437
 20
43.42629454202002
 30
0.0
 10
27.6266844764283
 20
43.39688446889158
 30
0.0
 10
29.84826633635981
 20
43.34688401985465
 30
0.0
 10
32.07016221546158
 20
43.3109558904954
 30
0.0
 10
34.29195763654295
 20
43.27113166795319
 30
0.0
 10
36.11146381113485
 20
43.23851821573057
 30
0.0
 10
37.93110901756393
 20
43.21332563744529
 30
0.0
 10
39.75055201345702
 20
43.17750311182117
 30
0.0
 10
40.83563692356385
 20
43.15613916577593
 30
0.0
 10
41.92055036454364
 20
43.11791372618629
 30
0.0
 10
43.00571235206981
 20
43.10848911170924
 30
0.0
 10
44.21092718592617
 20
43.09802184018509
 30
0.0
 10
45.41646249526302
 20
43.13068545147872
 30
0.0
 10
46.62175851139089
 20
43.12734035425522
 30
0.0
 10
48.64119977339722
 20
43.12173573325908
 30
0.0
 10
50.66018075354765
 20
43.04172705527198
 30
0.0
 10
52.67963844669585
 20
43.02943590358478
 30
0.0
 10
53.89974606175883
 20
43.02200988628204
 30
0.0
 10
55.12004866657301
 20
43.01988814153624
 30
0.0
 10
56.34014130354333
 20
43.02943590358478
 30
0.0
 10
57.56893843563242
 20
43.0390517821399
 30
0.0
 10
58.79765951203981
 20
43.05835214171968
 30
0.0
 10
60.02630453276551
 20
43.0873369823241
 30
0.0
  0
LINE
  5
12A
330
10B
100
AcDbEntity
  8
0
  6
K5LT_BASIC
 62
     5
420
      255
370
    60
100
AcDbLine
 10
10.7481424686199
 20
41.0510574732554
 30
0.0
 11
12.95309665047031
 21
41.0510574732554
 31
0.0
  0
LINE
  5
12B
330
10B
100
AcDbEntity
  8
0
  6
K5LT_BASIC
 62
     5
420
      255
370
    60
100
AcDbLine
 10
12.95309665047031
 20
41.0510574732554
 30
0.0
 11
12.95309665047031
 21
43.87732657950431
 31
0.0
  0
LINE
  5
12C
330
10B
100
AcDbEntity
  8
0
  6
K5LT_BASIC
 62
     5
420
      255
370
    60
100
AcDbLine
 10
10.7481424686199
 20
13.38350058754438
 30
0.0
 11
10.7481424686199
 21
41.0510574732554
 31
0.0
  0
LINE
  5
12D
330
10B
100
AcDbEntity
  8
0
  6
K5LT_BASIC
 62
     5
420
      255
370
    60
100
AcDbLine
 10
24.74703762315866
 20
13.38350058754438
 30
0.0
 11
10.7481424686199
 21
13.38350058754438
 31
0.0
  0
LINE
  5
12E
330
10B
100
AcDbEntity
  8
0
  6
K5LT_BASIC
 62
     5
420
      255
370
    60
100
AcDbLine
 10
24.74703762315866
 20
10.90506381495642
 30
0.0
 11
24.74703762315866
 21
13.38350058754438
 31
0.0
  0
LINE
  5
12F
330
10B
100
AcDbEntity
  8
0
  6
K5LT_BASIC
 62
     5
420
      255
370
    60
100
AcDbLine
 10
59.49244003192757
 20
10.90506381495642
 30
0.0
 11
24.74703762315866
 21
10.90506381495642
 31
0.0
  0
LINE
  5
130
330
10B
100
AcDbEntity
  8
0
  6
K5LT_BASIC
 62
     5
420
      255
370
    60
100
AcDbLine
 10
59.49244003192757
 20
13.38350058754438
 30
0.0
 11
59.49244003192757
 21
10.90506381495642
 31
0.0
  0
LINE
  5
131
330
10B
100
AcDbEntity
  8
0
  6
K5LT_BASIC
 62
     5
420
      255
370
    60
100
AcDbLine
 10
16.2861669253605
 20
15.86193736013233
 30
0.0
 11
60.02630453276549
 21
15.86193736013233
 31
0.0
  0
LINE
  5
132
330
10B
100
AcDbEntity
  8
0
  6
K5LT_BASIC
 62
     5
420
      255
370
    60
100
AcDbLine
 10
16.2861669253605
 20
38.3815266558884
 30
0.0
 11
16.2861669253605
 21
15.86193736013233
 31
0.0
  0
LINE
  5
133
330
10B
100
AcDbEntity
  8
0
  6
K5LT_BASIC
 62
     5
420
      255
370
    60
100
AcDbLine
 10
60.02630453276549
 20
15.86193736013233
 30
0.0
 11
60.02630453276551
 21
38.3815266558884
 31
0.0
  0
LINE
  5
134
330
10B
100
AcDbEntity
  8
0
  6
K5LT_BASIC
 62
     5
420
      255
370
    60
100
AcDbLine
 10
60.02630453276551
 20
38.3815266558884
 30
0.0
 11
16.2861669253605
 21
38.3815266558884
 31
0.0
  0
LINE
  5
135
330
10B
100
AcDbEntity
  8
0
  6
K5LT_BASIC
 62
     5
420
      255
370
    60
100
AcDbLine
 10
68.1282292009601
 20
41.0510574732554
 30
0.0
 11
68.1282292009601
 21
43.0873369823241
 31
0.0
  0
LINE
  5
136
330
10B
100
AcDbEntity
  8
0
  6
K5LT_BASIC
 62
     5
420
      255
370
    60
100
AcDbLine
 10
66.17966504025509
 20
40.21898840108293
 30
0.0
 11
66.17966504025509
 21
41.0510574732554
 31
0.0
  0
ENDBLK
  5
138
330
10B
100
AcDbEntity
  8
0
100
AcDbBlockEnd
  0
BLOCK
  5
14F
330
139
100
AcDbEntity
  8
0
100
AcDbBlockBegin
  2
U4
 70
     0
 10
0.0
 20
0.0
 30
0.0
  3
U4
  1

  0
INSERT
  5
13C
330
139
100
AcDbEntity
  8
0
100
AcDbBlockReference
  2
U5
 10
0.0
 20
0.0
 30
0.0
  0
INSERT
  5
146
330
139
100
AcDbEntity
  8
0
100
AcDbBlockReference
  2
U6
 10
0.0
 20
0.0
 30
0.0
  0
ENDBLK
  5
150
330
139
100
AcDbEntity
  8
0
100
AcDbBlockEnd
  0
BLOCK
  5
143
330
13B
100
AcDbEntity
  8
0
100
AcDbBlockBegin
  2
U5
 70
     0
 10
0.0
 20
0.0
 30
0.0
  3
U5
  1

  0
LINE
  5
13D
330
13B
100
AcDbEntity
  8
0
  6
K5LT_BASIC
 62
     5
420
      255
370
    60
100
AcDbLine
 10
79.41551197886832
 20
128.784989199704
 30
0.0
 11
71.71851147701743
 21
128.784989199704
 31
0.0
  0
LINE
  5
13E
330
13B
100
AcDbEntity
  8
0
  6
K5LT_BASIC
 62
     5
420
      255
370
    60
100
AcDbLine
 10
71.71851147701743
 20
128.784989199704
 30
0.0
 11
71.71851147701743
 21
97.69820944531156
 31
0.0
  0
LINE
  5
13F
330
13B
100
AcDbEntity
  8
0
  6
K5LT_BASIC
 62
     5
420
      255
370
    60
100
AcDbLine
 10
71.71851147701743
 20
97.69820944531156
 30
0.0
 11
79.41551197886832
 21
97.69820944531156
 31
0.0
  0
LINE
  5
140
330
13B
100
AcDbEntity
  8
0
  6
K5LT_BASIC
 62
     5
420
      255
370
    60
100
AcDbLine
 10
79.41551197886832
 20
94.74459616698451
 30
0.0
 11
27.64747996267207
 21
94.74459616698451
 31
0.0
  0
SPLINE
  5
141
330
13B
100
AcDbEntity
  8
0
  6
K5LT_BASIC
 62
     5
420
      255
370
    60
100
AcDbSpline
210
0.0
220
0.0
230
1.0
 70
     8
 71
     3
 72
    62
 73
    58
 74
     0
 42
0.0
 43
0.0
 12
1.0
 22
0.0
 32
0.0
 13
1.0
 23
0.0
 33
0.0
 40
0.0
 40
0.0
 40
0.0
 40
0.0
 40
1.0
 40
1.0
 40
1.0
 40
2.0
 40
2.0
 40
2.0
 40
3.0
 40
3.0
 40
3.0
 40
4.0
 40
4.0
 40
4.0
 40
5.0
 40
5.0
 40
5.0
 40
6.0
 40
6.0
 40
6.0
 40
7.0
 40
7.0
 40
7.0
 40
8.0
 40
8.0
 40
8.0
 40
9.0
 40
9.0
 40
9.0
 40
10.0
 40
10.0
 40
10.0
 40
11.0
 40
11.0
 40
11.0
 40
12.0
 40
12.0
 40
12.0
 40
13.0
 40
13.0
 40
13.0
 40
14.0
 40
14.0
 40
14.0
 40
15.0
 40
15.0
 40
15.0
 40
16.0
 40
16.0
 40
16.0
 40
17.0
 40
17.0
 40
17.0
 40
18.0
 40
18.0
 40
18.0
 40
19.0
 40
19.0
 40
19.0
 40
19.0
 10
27.64747996267207
 20
94.74459616698451
 30
0.0
 10
27.21608821258644
 20
94.9582786693809
 30
0.0
 10
26.80488418846329
 20
95.20088374727817
 30
0.0
 10
26.41386789030258
 20
95.47241140067632
 30
0.0
 10
25.99742366491247
 20
95.76159659275982
 30
0.0
 10
25.61536708571458
 20
96.1036021375853
 30
0.0
 10
25.23323139993065
 20
96.43838671098062
 30
0.0
 10
24.65013670377002
 20
96.94922910640555
 30
0.0
 10
24.11162394144395
 20
97.5111660885146
 30
0.0
 10
23.56364444384911
 20
98.06027118260268
 30
0.0
 10
22.78721606675009
 20
98.8382944096228
 30
0.0
 10
22.03775567667978
 20
99.64347684825528
 30
0.0
 10
21.28585081090932
 20
100.4453954055763
 30
0.0
 10
20.25434701360589
 20
101.5455106923116
 30
0.0
 10
19.22749261159069
 20
102.6512300032963
 30
0.0
 10
18.2328918055031
 20
103.7845693177393
 30
0.0
 10
17.36048647075566
 20
104.7786679128214
 30
0.0
 10
16.49761738971392
 20
105.783142695711
 30
0.0
 10
15.66888326580647
 20
106.8136770809158
 30
0.0
 10
14.80171799811006
 20
107.8920007558273
 30
0.0
 10
13.95073891561711
 20
108.9867561549794
 30
0.0
 10
13.15257721056932
 20
110.1170741297343
 30
0.0
 10
12.72344212391928
 20
110.724794468822
 30
0.0
 10
12.26846139955049
 20
111.3206250803171
 30
0.0
 10
11.90038699350819
 20
111.9655454025388
 30
0.0
 10
11.62166705999059
 20
112.4539035887723
 30
0.0
 10
11.38848609135255
 20
112.9700611101243
 30
0.0
 10
11.1490728632715
 20
113.480099284127
 30
0.0
 10
10.92907794824941
 20
113.9487693139625
 30
0.0
 10
10.71358870179193
 20
114.4204229075837
 30
0.0
 10
10.5170149441835
 20
114.8992481967963
 30
0.0
 10
10.30596208227354
 20
115.4133424933733
 30
0.0
 10
10.10787793912328
 20
115.9343948136823
 30
0.0
 10
9.93265950955498
 20
116.4615045628441
 30
0.0
 10
9.693458162851499
 20
117.1810941754817
 30
0.0
 10
9.499552174773413
 20
117.9178400493024
 30
0.0
 10
9.324452832696693
 20
118.6558188479798
 30
0.0
 10
9.144063749300045
 20
119.4160919448441
 30
0.0
 10
8.97982940929839
 20
120.1839376724837
 30
0.0
 10
8.871279230331709
 20
120.9574637231493
 30
0.0
 10
8.79418517819613
 20
121.5068341456204
 30
0.0
 10
8.744707269046643
 20
122.0615059022401
 30
0.0
 10
8.704320534723564
 20
122.615125058116
 30
0.0
 10
8.654712054644506
 20
123.2951554028809
 30
0.0
 10
8.618492721918784
 20
123.9785897575451
 30
0.0
 10
8.624596288509196
 20
124.6600384472613
 30
0.0
 10
8.629892974320057
 20
125.2514008174733
 30
0.0
 10
8.673158244772566
 20
125.8432981585877
 30
0.0
 10
8.714314492219785
 20
126.4336983206169
 30
0.0
 10
8.769051010254714
 20
127.2189120152858
 30
0.0
 10
8.847894412879782
 20
128.003033628027
 30
0.0
 10
8.938222557859149
 20
128.784989199704
 30
0.0
 10
9.025928280150595
 20
129.5442428988628
 30
0.0
 10
9.138853149222541
 20
130.3007231476096
 30
0.0
 10
9.245722314197877
 20
131.0576365118551
 30
0.0
 10
9.508963562805917
 20
132.9220734534003
 30
0.0
 10
9.761044371499736
 20
134.7870711203796
 30
0.0
 10
10.11497603093039
 20
136.6393754620941
 30
0.0
  0
SPLINE
  5
142
330
13B
100
AcDbEntity
  8
0
  6
K5LT_BASIC
 62
     5
420
      255
370
    60
100
AcDbSpline
210
0.0
220
0.0
230
1.0
 70
     8
 71
     3
 72
    20
 73
    16
 74
     0
 42
0.0
 43
0.0
 12
1.0
 22
0.0
 32
0.0
 13
1.0
 23
0.0
 33
0.0
 40
0.0
 40
0.0
 40
0.0
 40
0.0
 40
1.0
 40
1.0
 40
1.0
 40
2.0
 40
2.0
 40
2.0
 40
3.0
 40
3.0
 40
3.0
 40
4.0
 40
4.0
 40
4.0
 40
5.0
 40
5.0
 40
5.0
 40
5.0
 10
10.11497603093039
 20
136.6393754620941
 30
0.0
 10
13.74844560532264
 20
136.7691003646954
 30
0.0
 10
17.38225107562283
 20
136.8868941496855
 30
0.0
 10
21.01639244183096
 20
136.9927568170642
 30
0.0
 10
26.81200939913938
 20
137.1615833453635
 30
0.0
 10
32.6088037219679
 20
137.2983704425826
 30
0.0
 10
38.40580615486999
 20
137.4082035610617
 30
0.0
 10
45.15290622245047
 20
137.5360377391028
 30
0.0
 10
51.90117512047713
 20
137.6137671241028
 30
0.0
 10
58.64926510960872
 20
137.6752774019994
 30
0.0
 10
63.04705456754883
 20
137.7153641898348
 30
0.0
 10
67.44502463983827
 20
137.7429376449439
 30
0.0
 10
71.84297794023348
 20
137.7604797423089
 30
0.0
 10
74.36713980440796
 20
137.7705478558521
 30
0.0
 10
76.89131781728624
 20
137.7770390403984
 30
0.0
 10
79.41551197886832
 20
137.7799532959476
 30
0.0
  0
ENDBLK
  5
144
330
13B
100
AcDbEntity
  8
0
100
AcDbBlockEnd
  0
BLOCK
  5
14D
330
145
100
AcDbEntity
  8
0
100
AcDbBlockBegin
  2
U6
 70
     0
 10
0.0
 20
0.0
 30
0.0
  3
U6
  1

  0
LINE
  5
147
330
145
100
AcDbEntity
  8
0
  6
K5LT_BASIC
 62
     5
420
      255
370
    60
100
AcDbLine
 10
79.41551197886832
 20
128.784989199704
 30
0.0
 11
87.11251248071922
 21
128.784989199704
 31
0.0
  0
LINE
  5
148
330
145
100
AcDbEntity
  8
0
  6
K5LT_BASIC
 62
     5
420
      255
370
    60
100
AcDbLine
 10
87.11251248071922
 20
128.784989199704
 30
0.0
 11
87.11251248071922
 21
97.69820944531156
 31
0.0
  0
LINE
  5
149
330
145
100
AcDbEntity
  8
0
  6
K5LT_BASIC
 62
     5
420
      255
370
    60
100
AcDbLine
 10
87.11251248071922
 20
97.69820944531156
 30
0.0
 11
79.41551197886832
 21
97.69820944531156
 31
0.0
  0
LINE
  5
14A
330
145
100
AcDbEntity
  8
0
  6
K5LT_BASIC
 62
     5
420
      255
370
    60
100
AcDbLine
 10
79.41551197886832
 20
94.74459616698451
 30
0.0
 11
131.1835439950646
 21
94.74459616698451
 31
0.0
  0
SPLINE
  5
14B
330
145
100
AcDbEntity
  8
0
  6
K5LT_BASIC
 62
     5
420
      255
370
    60
100
AcDbSpline
210
0.0
220
0.0
230
1.0
 70
     8
 71
     3
 72
    62
 73
    58
 74
     0
 42
0.0
 43
0.0
 12
1.0
 22
0.0
 32
0.0
 13
1.0
 23
0.0
 33
0.0
 40
0.0
 40
0.0
 40
0.0
 40
0.0
 40
1.0
 40
1.0
 40
1.0
 40
2.0
 40
2.0
 40
2.0
 40
3.0
 40
3.0
 40
3.0
 40
4.0
 40
4.0
 40
4.0
 40
5.0
 40
5.0
 40
5.0
 40
6.0
 40
6.0
 40
6.0
 40
7.0
 40
7.0
 40
7.0
 40
8.0
 40
8.0
 40
8.0
 40
9.0
 40
9.0
 40
9.0
 40
10.0
 40
10.0
 40
10.0
 40
11.0
 40
11.0
 40
11.0
 40
12.0
 40
12.0
 40
12.0
 40
13.0
 40
13.0
 40
13.0
 40
14.0
 40
14.0
 40
14.0
 40
15.0
 40
15.0
 40
15.0
 40
16.0
 40
16.0
 40
16.0
 40
17.0
 40
17.0
 40
17.0
 40
18.0
 40
18.0
 40
18.0
 40
19.0
 40
19.0
 40
19.0
 40
19.0
 10
131.1835439950646
 20
94.74459616698451
 30
0.0
 10
131.6149357451502
 20
94.9582786693809
 30
0.0
 10
132.0261397692734
 20
95.20088374727817
 30
0.0
 10
132.4171560674341
 20
95.47241140067632
 30
0.0
 10
132.8336002928242
 20
95.76159659275982
 30
0.0
 10
133.2156568720221
 20
96.1036021375853
 30
0.0
 10
133.597792557806
 20
96.43838671098062
 30
0.0
 10
134.1808872539666
 20
96.94922910640555
 30
0.0
 10
134.7194000162927
 20
97.5111660885146
 30
0.0
 10
135.2673795138875
 20
98.06027118260268
 30
0.0
 10
136.0438078909866
 20
98.8382944096228
 30
0.0
 10
136.7932682810569
 20
99.64347684825528
 30
0.0
 10
137.5451731468273
 20
100.4453954055763
 30
0.0
 10
138.5766769441308
 20
101.5455106923116
 30
0.0
 10
139.603531346146
 20
102.6512300032963
 30
0.0
 10
140.5981321522335
 20
103.7845693177393
 30
0.0
 10
141.470537486981
 20
104.7786679128214
 30
0.0
 10
142.3334065680227
 20
105.783142695711
 30
0.0
 10
143.1621406919302
 20
106.8136770809158
 30
0.0
 10
144.0293059596266
 20
107.8920007558273
 30
0.0
 10
144.8802850421195
 20
108.9867561549794
 30
0.0
 10
145.6784467471673
 20
110.1170741297343
 30
0.0
 10
146.1075818338174
 20
110.724794468822
 30
0.0
 10
146.5625625581862
 20
111.3206250803171
 30
0.0
 10
146.9306369642285
 20
111.9655454025388
 30
0.0
 10
147.2093568977461
 20
112.4539035887723
 30
0.0
 10
147.4425378663841
 20
112.9700611101243
 30
0.0
 10
147.6819510944651
 20
113.480099284127
 30
0.0
 10
147.9019460094872
 20
113.9487693139625
 30
0.0
 10
148.1174352559447
 20
114.4204229075837
 30
0.0
 10
148.3140090135531
 20
114.8992481967963
 30
0.0
 10
148.5250618754631
 20
115.4133424933733
 30
0.0
 10
148.7231460186134
 20
115.9343948136823
 30
0.0
 10
148.8983644481817
 20
116.4615045628441
 30
0.0
 10
149.1375657948851
 20
117.1810941754817
 30
0.0
 10
149.3314717829632
 20
117.9178400493024
 30
0.0
 10
149.50657112504
 20
118.6558188479798
 30
0.0
 10
149.6869602084366
 20
119.4160919448441
 30
0.0
 10
149.8511945484383
 20
120.1839376724837
 30
0.0
 10
149.9597447274049
 20
120.9574637231493
 30
0.0
 10
150.0368387795405
 20
121.5068341456204
 30
0.0
 10
150.08631668869
 20
122.0615059022401
 30
0.0
 10
150.1267034230131
 20
122.615125058116
 30
0.0
 10
150.1763119030921
 20
123.2951554028809
 30
0.0
 10
150.2125312358179
 20
123.9785897575451
 30
0.0
 10
150.2064276692275
 20
124.6600384472613
 30
0.0
 10
150.2011309834166
 20
125.2514008174733
 30
0.0
 10
150.1578657129641
 20
125.8432981585877
 30
0.0
 10
150.1167094655169
 20
126.4336983206169
 30
0.0
 10
150.0619729474819
 20
127.2189120152858
 30
0.0
 10
149.9831295448569
 20
128.003033628027
 30
0.0
 10
149.8928013998775
 20
128.784989199704
 30
0.0
 10
149.8050956775861
 20
129.5442428988628
 30
0.0
 10
149.6921708085141
 20
130.3007231476096
 30
0.0
 10
149.5853016435388
 20
131.0576365118551
 30
0.0
 10
149.3220603949307
 20
132.9220734534003
 30
0.0
 10
149.0699795862369
 20
134.7870711203796
 30
0.0
 10
148.7160479268063
 20
136.6393754620941
 30
0.0
  0
SPLINE
  5
14C
330
145
100
AcDbEntity
  8
0
  6
K5LT_BASIC
 62
     5
420
      255
370
    60
100
AcDbSpline
210
0.0
220
0.0
230
1.0
 70
     8
 71
     3
 72
    20
 73
    16
 74
     0
 42
0.0
 43
0.0
 12
1.0
 22
0.0
 32
0.0
 13
1.0
 23
0.0
 33
0.0
 40
0.0
 40
0.0
 40
0.0
 40
0.0
 40
1.0
 40
1.0
 40
1.0
 40
2.0
 40
2.0
 40
2.0
 40
3.0
 40
3.0
 40
3.0
 40
4.0
 40
4.0
 40
4.0
 40
5.0
 40
5.0
 40
5.0
 40
5.0
 10
148.7160479268063
 20
136.6393754620941
 30
0.0
 10
145.082578352414
 20
136.7691003646954
 30
0.0
 10
141.4487728821138
 20
136.8868941496855
 30
0.0
 10
137.8146315159057
 20
136.9927568170642
 30
0.0
 10
132.0190145585973
 20
137.1615833453635
 30
0.0
 10
126.2222202357687
 20
137.2983704425826
 30
0.0
 10
120.4252178028667
 20
137.4082035610617
 30
0.0
 10
113.6781177352862
 20
137.5360377391028
 30
0.0
 10
106.9298488372595
 20
137.6137671241028
 30
0.0
 10
100.1817588481279
 20
137.6752774019994
 30
0.0
 10
95.78396939018782
 20
137.7153641898348
 30
0.0
 10
91.38599931789838
 20
137.7429376449439
 30
0.0
 10
86.98804601750317
 20
137.7604797423089
 30
0.0
 10
84.46388415332869
 20
137.7705478558521
 30
0.0
 10
81.93970614045041
 20
137.7770390403984
 30
0.0
 10
79.41551197886832
 20
137.7799532959476
 30
0.0
  0
ENDBLK
  5
14E
330
145
100
AcDbEntity
  8
0
100
AcDbBlockEnd
  0
BLOCK
  5
163
330
151
100
AcDbEntity
  8
0
100
AcDbBlockBegin
  2
U7
 70
     0
 10
0.0
 20
0.0
 30
0.0
  3
U7
  1

  0
INSERT
  5
154
330
151
100
AcDbEntity
  8
0
100
AcDbBlockReference
  2
U8
 10
0.0
 20
0.0
 30
0.0
  0
INSERT
  5
15C
330
151
100
AcDbEntity
  8
0
100
AcDbBlockReference
  2
U9
 10
0.0
 20
0.0
 30
0.0
  0
ENDBLK
  5
164
330
151
100
AcDbEntity
  8
0
100
AcDbBlockEnd
  0
BLOCK
  5
159
330
153
100
AcDbEntity
  8
0
100
AcDbBlockBegin
  2
U8
 70
     0
 10
0.0
 20
0.0
 30
0.0
  3
U8
  1

  0
LINE
  5
155
330
153
100
AcDbEntity
  8
0
  6
K5LT_BASIC
 62
     5
420
      255
370
    60
100
AcDbLine
 10
156.8749334002442
 20
134.0634394968452
 30
0.0
 11
171.8749334002442
 21
134.0634394968452
 31
0.0
  0
LINE
  5
156
330
153
100
AcDbEntity
  8
0
  6
K5LT_BASIC
 62
     5
420
      255
370
    60
100
AcDbLine
 10
171.8749334002442
 20
134.0634394968452
 30
0.0
 11
171.8749334002442
 21
103.0634394968452
 31
0.0
  0
LINE
  5
157
330
153
100
AcDbEntity
  8
0
  6
K5LT_BASIC
 62
     5
420
      255
370
    60
100
AcDbLine
 10
171.8749334002442
 20
103.0634394968452
 30
0.0
 11
156.8749334002442
 21
103.0634394968452
 31
0.0
  0
LINE
  5
158
330
153
100
AcDbEntity
  8
0
  6
K5LT_BASIC
 62
     5
420
      255
370
    60
100
AcDbLine
 10
156.8749334002442
 20
103.0634394968452
 30
0.0
 11
156.8749334002442
 21
134.0634394968452
 31
0.0
  0
ENDBLK
  5
15A
330
153
100
AcDbEntity
  8
0
100
AcDbBlockEnd
  0
BLOCK
  5
161
330
15B
100
AcDbEntity
  8
0
100
AcDbBlockBegin
  2
U9
 70
     0
 10
0.0
 20
0.0
 30
0.0
  3
U9
  1

  0
LINE
  5
15D
330
15B
100
AcDbEntity
  8
0
  6
K5LT_BASIC
 62
     5
420
      255
370
    60
100
AcDbLine
 10
159.3049150715781
 20
118.3885550586009
 30
0.0
 11
169.4049150715781
 21
118.3885550586009
 31
0.0
  0
LINE
  5
15E
330
15B
100
AcDbEntity
  8
0
  6
K5LT_BASIC
 62
     5
420
      255
370
    60
100
AcDbLine
 10
169.4049150715781
 20
118.3885550586009
 30
0.0
 11
169.4049150715781
 21
128.4885550586009
 31
0.0
  0
LINE
  5
15F
330
15B
100
AcDbEntity
  8
0
  6
K5LT_BASIC
 62
     5
420
      255
370
    60
100
AcDbLine
 10
169.4049150715781
 20
128.4885550586009
 30
0.0
 11
159.3049150715781
 21
128.4885550586009
 31
0.0
  0
LINE
  5
160
330
15B
100
AcDbEntity
  8
0
  6
K5LT_BASIC
 62
     5
420
      255
370
    60
100
AcDbLine
 10
159.3049150715781
 20
128.4885550586009
 30
0.0
 11
159.3049150715781
 21
118.3885550586009
 31
0.0
  0
ENDBLK
  5
162
330
15B
100
AcDbEntity
  8
0
100
AcDbBlockEnd
  0
ENDSEC
  0
SECTION
  2
ENTITIES
  0
INSERT
  5
A5
330
1F
100
AcDbEntity
  8
0
100
AcDbBlockReference
  2
U0
 10
0.0
 20
0.0
 30
0.0
  0
ENDSEC
  0
SECTION
  2
OBJECTS
  0
DICTIONARY
  5
C
330
0
100
AcDbDictionary
281
     1
  3
ACAD_GROUP
350
D
  3
ACAD_LAYOUT
350
1A
  3
ACAD_MATERIAL
350
3B
  3
ACAD_MLEADERSTYLE
350
1AE
  3
ACAD_MLINESTYLE
350
17
  3
ACAD_PLOTSETTINGS
350
19
  3
ACAD_PLOTSTYLENAME
350
E
  3
ACAD_SCALELIST
350
169
  3
ACAD_TABLESTYLE
350
1AD
  3
ACAD_VISUALSTYLE
350
2A
  3
ACAD_WIPEOUT_VARS
350
AB
  3
AcDbVariableDictionary
350
18B
  0
DICTIONARY
  5
D
102
{ACAD_REACTORS
330
C
102
}
330
C
100
AcDbDictionary
281
     1
  0
DICTIONARY
  5
1A
102
{ACAD_REACTORS
330
C
102
}
330
C
100
AcDbDictionary
281
     1
  3
Layout1
350
1E
  3
Layout2
350
26
  3
Model
350
22
  0
DICTIONARY
  5
3B
102
{ACAD_REACTORS
330
C
102
}
330
C
100
AcDbDictionary
281
     1
  3
ByBlock
350
3D
  3
ByLayer
350
3C
  3
Global
350
3E
  0
DICTIONARY
  5
1AE
102
{ACAD_REACTORS
330
C
102
}
330
C
100
AcDbDictionary
281
     1
  0
DICTIONARY
  5
17
102
{ACAD_REACTORS
330
C
102
}
330
C
100
AcDbDictionary
281
     1
  3
Standard
350
18
  0
DICTIONARY
  5
19
102
{ACAD_REACTORS
330
C
102
}
330
C
100
AcDbDictionary
281
     1
  0
ACDBDICTIONARYWDFLT
  5
E
102
{ACAD_REACTORS
330
C
102
}
330
C
100
AcDbDictionary
281
     1
  3
Normal
350
F
100
AcDbDictionaryWithDefault
340
F
  0
DICTIONARY
  5
169
102
{ACAD_REACTORS
330
C
102
}
330
C
100
AcDbDictionary
281
     1
  3
A0
350
16A
  3
A1
350
16B
  3
A2
350
16C
  3
A3
350
16D
  3
A4
350
16E
  3
A5
350
16F
  3
A6
350
170
  3
A7
350
171
  3
A8
350
172
  3
A9
350
173
  3
B0
350
174
  3
B1
350
175
  3
B2
350
176
  3
B3
350
177
  3
B4
350
178
  3
B5
350
179
  3
B6
350
17A
  3
B7
350
17B
  3
B8
350
17C
  3
B9
350
17D
  3
C0
350
17E
  3
C1
350
17F
  3
C2
350
180
  3
C3
350
181
  3
C4
350
182
  3
C5
350
183
  3
C6
350
184
  3
C7
350
185
  3
C8
350
186
  3
C9
350
187
  3
D0
350
188
  3
D1
350
189
  3
D2
350
18A
  0
DICTIONARY
  5
1AD
102
{ACAD_REACTORS
330
C
102
}
330
C
100
AcDbDictionary
281
     1
  0
DICTIONARY
  5
2A
102
{ACAD_REACTORS
330
C
102
}
330
C
100
AcDbDictionary
281
     1
  3
2dWireframe
350
2F
  3
3D Hidden
350
31
  3
3dWireframe
350
30
  3
Basic
350
32
  3
Brighten
350
36
  3
ColorChange
350
3A
  3
Conceptual
350
34
  3
Dim
350
35
  3
Facepattern
350
39
  3
Flat
350
2B
  3
FlatWithEdges
350
2C
  3
Gouraud
350
2D
  3
GouraudWithEdges
350
2E
  3
Linepattern
350
38
  3
Realistic
350
33
  3
Thicken
350
37
  0
WIPEOUTVARIABLES
  5
AB
102
{ACAD_REACTORS
330
C
102
}
330
C
100
AcDbWipeoutVariables
 70
     0
  0
DICTIONARY
  5
18B
102
{ACAD_REACTORS
330
C
102
}
330
C
100
AcDbDictionary
281
     1
  3
CANNOSCALE
350
18C
  0
LAYOUT
  5
1E
102
{ACAD_REACTORS
330
1A
102
}
330
1A
100
AcDbPlotSettings
  1

  2
none_device
  4

  6

 40
0.0
 41
0.0
 42
0.0
 43
0.0
 44
0.0
 45
0.0
 46
0.0
 47
0.0
 48
0.0
 49
0.0
140
0.0
141
0.0
142
1.0
143
1.0
 70
   688
 72
     0
 73
     0
 74
     5
  7

 75
    16
 76
     0
 77
     2
 78
   300
147
1.0
148
0.0
149
0.0
100
AcDbLayout
  1
Layout1
 70
     1
 71
     1
 10
0.0
 20
0.0
 11
420.0
 21
297.0
 12
0.0
 22
0.0
 32
0.0
 14
1.000000000000000E+20
 24
1.000000000000000E+20
 34
1.000000000000000E+20
 15
-1.000000000000000E+20
 25
-1.000000000000000E+20
 35
-1.000000000000000E+20
146
0.0
 13
0.0
 23
0.0
 33
0.0
 16
1.0
 26
0.0
 36
0.0
 17
0.0
 27
1.0
 37
0.0
 76
     0
330
1B
  0
LAYOUT
  5
26
102
{ACAD_REACTORS
330
1A
102
}
330
1A
100
AcDbPlotSettings
  1

  2
none_device
  4

  6

 40
0.0
 41
0.0
 42
0.0
 43
0.0
 44
0.0
 45
0.0
 46
0.0
 47
0.0
 48
0.0
 49
0.0
140
0.0
141
0.0
142
1.0
143
1.0
 70
   688
 72
     0
 73
     0
 74
     5
  7

 75
    16
 76
     0
 77
     2
 78
   300
147
1.0
148
0.0
149
0.0
100
AcDbLayout
  1
Layout2
 70
     1
 71
     2
 10
0.0
 20
0.0
 11
0.0
 21
0.0
 12
0.0
 22
0.0
 32
0.0
 14
0.0
 24
0.0
 34
0.0
 15
0.0
 25
0.0
 35
0.0
146
0.0
 13
0.0
 23
0.0
 33
0.0
 16
1.0
 26
0.0
 36
0.0
 17
0.0
 27
1.0
 37
0.0
 76
     0
330
23
  0
LAYOUT
  5
22
102
{ACAD_REACTORS
330
1A
102
}
330
1A
100
AcDbPlotSettings
  1

  2
none_device
  4

  6

 40
0.0
 41
0.0
 42
0.0
 43
0.0
 44
0.0
 45
0.0
 46
0.0
 47
0.0
 48
0.0
 49
0.0
140
0.0
141
0.0
142
1.0
143
1.0
 70
  1712
 72
     0
 73
     0
 74
     0
  7

 75
     0
 76
     0
 77
     2
 78
   300
147
1.0
148
0.0
149
0.0
100
AcDbLayout
  1
Model
 70
     1
 71
     0
 10
0.0
 20
0.0
 11
420.0
 21
297.0
 12
0.0
 22
0.0
 32
0.0
 14
1.000000000000000E+20
 24
1.000000000000000E+20
 34
1.000000000000000E+20
 15
-1.000000000000000E+20
 25
-1.000000000000000E+20
 35
-1.000000000000000E+20
146
0.0
 13
0.0
 23
0.0
 33
0.0
 16
1.0
 26
0.0
 36
0.0
 17
0.0
 27
1.0
 37
0.0
 76
     0
330
1F
331
29
  0
MATERIAL
  5
3D
102
{ACAD_REACTORS
330
3B
102
}
330
3B
100
AcDbMaterial
  1
ByBlock
 72
     1
 94
      127
  0
MATERIAL
  5
3C
102
{ACAD_REACTORS
330
3B
102
}
330
3B
100
AcDbMaterial
  1
ByLayer
 72
     1
 94
      127
  0
MATERIAL
  5
3E
102
{ACAD_REACTORS
330
3B
102
}
330
3B
100
AcDbMaterial
  1
Global
 72
     1
 94
      127
  0
MLINESTYLE
  5
18
102
{ACAD_REACTORS
330
17
102
}
330
17
100
AcDbMlineStyle
  2
Standard
 70
     0
  3

 62
   256
 51
90.0
 52
90.0
 71
     2
 49
0.5
 62
   256
  6
BYLAYER
 49
-0.5
 62
   256
  6
BYLAYER
  0
ACDBPLACEHOLDER
  5
F
102
{ACAD_REACTORS
330
E
102
}
330
E
  0
SCALE
  5
16A
102
{ACAD_REACTORS
330
169
102
}
330
169
100
AcDbScale
 70
     0
300
1:1
140
1.0
141
1.0
290
     1
  0
SCALE
  5
16B
102
{ACAD_REACTORS
330
169
102
}
330
169
100
AcDbScale
 70
     0
300
1:2
140
1.0
141
2.0
290
     0
  0
SCALE
  5
16C
102
{ACAD_REACTORS
330
169
102
}
330
169
100
AcDbScale
 70
     0
300
1:4
140
1.0
141
4.0
290
     0
  0
SCALE
  5
16D
102
{ACAD_REACTORS
330
169
102
}
330
169
100
AcDbScale
 70
     0
300
1:5
140
1.0
141
5.0
290
     0
  0
SCALE
  5
16E
102
{ACAD_REACTORS
330
169
102
}
330
169
100
AcDbScale
 70
     0
300
1:8
140
1.0
141
8.0
290
     0
  0
SCALE
  5
16F
102
{ACAD_REACTORS
330
169
102
}
330
169
100
AcDbScale
 70
     0
300
1:10
140
1.0
141
10.0
290
     0
  0
SCALE
  5
170
102
{ACAD_REACTORS
330
169
102
}
330
169
100
AcDbScale
 70
     0
300
1:16
140
1.0
141
16.0
290
     0
  0
SCALE
  5
171
102
{ACAD_REACTORS
330
169
102
}
330
169
100
AcDbScale
 70
     0
300
1:20
140
1.0
141
20.0
290
     0
  0
SCALE
  5
172
102
{ACAD_REACTORS
330
169
102
}
330
169
100
AcDbScale
 70
     0
300
1:30
140
1.0
141
30.0
290
     0
  0
SCALE
  5
173
102
{ACAD_REACTORS
330
169
102
}
330
169
100
AcDbScale
 70
     0
300
1:40
140
1.0
141
40.0
290
     0
  0
SCALE
  5
174
102
{ACAD_REACTORS
330
169
102
}
330
169
100
AcDbScale
 70
     0
300
1:50
140
1.0
141
50.0
290
     0
  0
SCALE
  5
175
102
{ACAD_REACTORS
330
169
102
}
330
169
100
AcDbScale
 70
     0
300
1:100
140
1.0
141
100.0
290
     0
  0
SCALE
  5
176
102
{ACAD_REACTORS
330
169
102
}
330
169
100
AcDbScale
 70
     0
300
2:1
140
2.0
141
1.0
290
     0
  0
SCALE
  5
177
102
{ACAD_REACTORS
330
169
102
}
330
169
100
AcDbScale
 70
     0
300
4:1
140
4.0
141
1.0
290
     0
  0
SCALE
  5
178
102
{ACAD_REACTORS
330
169
102
}
330
169
100
AcDbScale
 70
     0
300
8:1
140
8.0
141
1.0
290
     0
  0
SCALE
  5
179
102
{ACAD_REACTORS
330
169
102
}
330
169
100
AcDbScale
 70
     0
300
10:1
140
10.0
141
1.0
290
     0
  0
SCALE
  5
17A
102
{ACAD_REACTORS
330
169
102
}
330
169
100
AcDbScale
 70
     0
300
100:1
140
100.0
141
1.0
290
     0
  0
SCALE
  5
17B
102
{ACAD_REACTORS
330
169
102
}
330
169
100
AcDbScale
 70
     0
300
1/128" = 1'-0"
140
0.0078125
141
12.0
290
     0
  0
SCALE
  5
17C
102
{ACAD_REACTORS
330
169
102
}
330
169
100
AcDbScale
 70
     0
300
1/64" = 1'-0"
140
0.015625
141
12.0
290
     0
  0
SCALE
  5
17D
102
{ACAD_REACTORS
330
169
102
}
330
169
100
AcDbScale
 70
     0
300
1/32" = 1'-0"
140
0.03125
141
12.0
290
     0
  0
SCALE
  5
17E
102
{ACAD_REACTORS
330
169
102
}
330
169
100
AcDbScale
 70
     0
300
1/16" = 1'-0"
140
0.0625
141
12.0
290
     0
  0
SCALE
  5
17F
102
{ACAD_REACTORS
330
169
102
}
330
169
100
AcDbScale
 70
     0
300
3/32" = 1'-0"
140
0.09375
141
12.0
290
     0
  0
SCALE
  5
180
102
{ACAD_REACTORS
330
169
102
}
330
169
100
AcDbScale
 70
     0
300
1/8" = 1'-0"
140
0.125
141
12.0
290
     0
  0
SCALE
  5
181
102
{ACAD_REACTORS
330
169
102
}
330
169
100
AcDbScale
 70
     0
300
3/16" = 1'-0"
140
0.1875
141
12.0
290
     0
  0
SCALE
  5
182
102
{ACAD_REACTORS
330
169
102
}
330
169
100
AcDbScale
 70
     0
300
1/4" = 1'-0"
140
0.25
141
12.0
290
     0
  0
SCALE
  5
183
102
{ACAD_REACTORS
330
169
102
}
330
169
100
AcDbScale
 70
     0
300
3/8" = 1'-0"
140
0.375
141
12.0
290
     0
  0
SCALE
  5
184
102
{ACAD_REACTORS
330
169
102
}
330
169
100
AcDbScale
 70
     0
300
1/2" = 1'-0"
140
0.5
141
12.0
290
     0
  0
SCALE
  5
185
102
{ACAD_REACTORS
330
169
102
}
330
169
100
AcDbScale
 70
     0
300
3/4" = 1'-0"
140
0.75
141
12.0
290
     0
  0
SCALE
  5
186
102
{ACAD_REACTORS
330
169
102
}
330
169
100
AcDbScale
 70
     0
300
1" = 1'-0"
140
1.0
141
12.0
290
     0
  0
SCALE
  5
187
102
{ACAD_REACTORS
330
169
102
}
330
169
100
AcDbScale
 70
     0
300
1-1/2" = 1'-0"
140
1.5
141
12.0
290
     0
  0
SCALE
  5
188
102
{ACAD_REACTORS
330
169
102
}
330
169
100
AcDbScale
 70
     0
300
3" = 1'-0"
140
3.0
141
12.0
290
     0
  0
SCALE
  5
189
102
{ACAD_REACTORS
330
169
102
}
330
169
100
AcDbScale
 70
     0
300
6" = 1'-0"
140
6.0
141
12.0
290
     0
  0
SCALE
  5
18A
102
{ACAD_REACTORS
330
169
102
}
330
169
100
AcDbScale
 70
     0
300
1'-0" = 1'-0"
140
12.0
141
12.0
290
     0
  0
VISUALSTYLE
  5
2F
102
{ACAD_REACTORS
330
2A
102
}
102
{ACAD_XDICTIONARY
360
195
102
}
330
2A
100
AcDbVisualStyle
  2
2dWireframe
 70
     4
 71
     0
 72
     2
 73
     0
 90
        0
 40
-0.6
 41
-30.0
 62
     5
 63
     7
421
 16777215
 74
     1
 91
        4
 64
     7
 65
   257
 75
     1
175
     1
 42
1.0
 92
        0
 66
   257
 43
1.0
 76
     1
 77
     6
 78
     2
 67
     7
 79
     5
170
     0
171
     0
290
     0
174
     0
 93
        1
 44
0.0
173
     0
291
     0
 45
0.0
  0
VISUALSTYLE
  5
31
102
{ACAD_REACTORS
330
2A
102
}
102
{ACAD_XDICTIONARY
360
199
102
}
330
2A
100
AcDbVisualStyle
  2
3D Hidden
 70
     6
 71
     1
 72
     2
 73
     2
 90
        0
 40
-0.6
 41
-30.0
 62
     5
 63
     7
421
 16777215
 74
     2
 91
        2
 64
     7
 65
   257
 75
     2
175
     1
 42
40.0
 92
        0
 66
   257
 43
1.0
 76
     1
 77
     6
 78
     2
 67
     7
 79
     3
170
     0
171
     0
290
     0
174
     0
 93
        1
 44
0.0
173
     0
291
     0
 45
0.0
  0
VISUALSTYLE
  5
30
102
{ACAD_REACTORS
330
2A
102
}
102
{ACAD_XDICTIONARY
360
197
102
}
330
2A
100
AcDbVisualStyle
  2
3dWireframe
 70
     5
 71
     0
 72
     2
 73
     0
 90
        0
 40
-0.6
 41
-30.0
 62
     5
 63
     7
421
 16777215
 74
     1
 91
        4
 64
     7
 65
   257
 75
     1
175
     1
 42
1.0
 92
        0
 66
   257
 43
1.0
 76
     1
 77
     6
 78
     2
 67
     7
 79
     5
170
     0
171
     0
290
     0
174
     0
 93
        1
 44
0.0
173
     0
291
     0
 45
0.0
  0
VISUALSTYLE
  5
32
102
{ACAD_REACTORS
330
2A
102
}
102
{ACAD_XDICTIONARY
360
19B
102
}
330
2A
100
AcDbVisualStyle
  2
Basic
 70
     7
 71
     1
 72
     0
 73
     1
 90
        0
 40
-0.6
 41
-30.0
 62
     5
 63
     7
421
 16777215
 74
     0
 91
        4
 64
     7
 65
   257
 75
     1
175
     1
 42
1.0
 92
        8
 66
     7
 43
1.0
 76
     1
 77
     6
 78
     2
 67
     7
 79
     5
170
     0
171
     0
290
     0
174
     0
 93
        1
 44
0.0
173
     0
291
     1
 45
0.0
  0
VISUALSTYLE
  5
36
102
{ACAD_REACTORS
330
2A
102
}
102
{ACAD_XDICTIONARY
360
1A3
102
}
330
2A
100
AcDbVisualStyle
  2
Brighten
 70
    12
 71
     2
 72
     2
 73
     0
 90
        0
 40
-0.6
 41
-30.0
 62
     5
 63
     7
421
 16777215
 74
     1
 91
        4
 64
     7
 65
   257
 75
     1
175
     1
 42
1.0
 92
        8
 66
     7
 43
1.0
 76
     1
 77
     6
 78
     2
 67
     7
 79
     5
170
     0
171
     0
290
     0
174
     0
 93
        1
 44
50.0
173
     0
291
     1
 45
0.0
  0
VISUALSTYLE
  5
3A
102
{ACAD_REACTORS
330
2A
102
}
102
{ACAD_XDICTIONARY
360
1AB
102
}
330
2A
100
AcDbVisualStyle
  2
ColorChange
 70
    16
 71
     2
 72
     2
 73
     3
 90
        0
 40
-0.6
 41
-30.0
 62
     5
 63
     8
421
  8421504
 74
     1
 91
        4
 64
     7
 65
   257
 75
     1
175
     1
 42
1.0
 92
        8
 66
     8
424
  8421504
 43
1.0
 76
     1
 77
     6
 78
     2
 67
     7
 79
     5
170
     0
171
     0
290
     0
174
     0
 93
        1
 44
0.0
173
     0
291
     1
 45
0.0
  0
VISUALSTYLE
  5
34
102
{ACAD_REACTORS
330
2A
102
}
102
{ACAD_XDICTIONARY
360
19F
102
}
330
2A
100
AcDbVisualStyle
  2
Conceptual
 70
     9
 71
     3
 72
     2
 73
     0
 90
        0
 40
-0.6
 41
-30.0
 62
     5
 63
     7
421
 16777215
 74
     2
 91
        2
 64
     7
 65
   257
 75
     1
175
     1
 42
40.0
 92
        8
 66
     7
 43
1.0
 76
     1
 77
     6
 78
     2
 67
     7
 79
     3
170
     0
171
     0
290
     0
174
     0
 93
        1
 44
0.0
173
     0
291
     0
 45
0.0
  0
VISUALSTYLE
  5
35
102
{ACAD_REACTORS
330
2A
102
}
102
{ACAD_XDICTIONARY
360
1A1
102
}
330
2A
100
AcDbVisualStyle
  2
Dim
 70
    11
 71
     2
 72
     2
 73
     0
 90
        0
 40
-0.6
 41
-30.0
 62
     5
 63
     7
421
 16777215
 74
     1
 91
        4
 64
     7
 65
   257
 75
     1
175
     1
 42
1.0
 92
        8
 66
     7
 43
1.0
 76
     1
 77
     6
 78
     2
 67
     7
 79
     5
170
     0
171
     0
290
     0
174
     0
 93
        1
 44
-50.0
173
     0
291
     1
 45
0.0
  0
VISUALSTYLE
  5
39
102
{ACAD_REACTORS
330
2A
102
}
102
{ACAD_XDICTIONARY
360
1A9
102
}
330
2A
100
AcDbVisualStyle
  2
Facepattern
 70
    15
 71
     2
 72
     2
 73
     0
 90
        0
 40
-0.6
 41
-30.0
 62
     5
 63
     7
421
 16777215
 74
     1
 91
        4
 64
     7
 65
   257
 75
     1
175
     1
 42
1.0
 92
        8
 66
     7
 43
1.0
 76
     1
 77
     6
 78
     2
 67
     7
 79
     5
170
     0
171
     0
290
     0
174
     0
 93
        1
 44
0.0
173
     0
291
     1
 45
0.0
  0
VISUALSTYLE
  5
2B
102
{ACAD_REACTORS
330
2A
102
}
102
{ACAD_XDICTIONARY
360
18D
102
}
330
2A
100
AcDbVisualStyle
  2
Flat
 70
     0
 71
     2
 72
     1
 73
     1
 90
        2
 40
-0.6
 41
30.0
 62
     5
 63
     7
421
 16777215
 74
     0
 91
        4
 64
     7
 65
   257
 75
     1
175
     1
 42
1.0
 92
        8
 66
     7
 43
1.0
 76
     1
 77
     6
 78
     2
 67
     7
 79
     5
170
     0
171
     0
290
     0
174
     0
 93
       13
 44
0.0
173
     0
291
     1
 45
0.0
  0
VISUALSTYLE
  5
2C
102
{ACAD_REACTORS
330
2A
102
}
102
{ACAD_XDICTIONARY
360
18F
102
}
330
2A
100
AcDbVisualStyle
  2
FlatWithEdges
 70
     1
 71
     2
 72
     1
 73
     1
 90
        2
 40
-0.6
 41
30.0
 62
     5
 63
     7
421
 16777215
 74
     1
 91
        4
 64
     7
 65
   257
 75
     1
175
     1
 42
1.0
 92
        0
 66
   257
 43
1.0
 76
     1
 77
     6
 78
     2
 67
     7
 79
     5
170
     0
171
     0
290
     0
174
     0
 93
       13
 44
0.0
173
     0
291
     1
 45
0.0
  0
VISUALSTYLE
  5
2D
102
{ACAD_REACTORS
330
2A
102
}
102
{ACAD_XDICTIONARY
360
191
102
}
330
2A
100
AcDbVisualStyle
  2
Gouraud
 70
     2
 71
     2
 72
     2
 73
     1
 90
        2
 40
-0.6
 41
30.0
 62
     5
 63
     7
421
 16777215
 74
     0
 91
        4
 64
     7
 65
   257
 75
     1
175
     1
 42
1.0
 92
        0
 66
     7
 43
1.0
 76
     1
 77
     6
 78
     2
 67
     7
 79
     5
170
     0
171
     0
290
     0
174
     0
 93
       13
 44
0.0
173
     0
291
     1
 45
0.0
  0
VISUALSTYLE
  5
2E
102
{ACAD_REACTORS
330
2A
102
}
102
{ACAD_XDICTIONARY
360
193
102
}
330
2A
100
AcDbVisualStyle
  2
GouraudWithEdges
 70
     3
 71
     2
 72
     2
 73
     1
 90
        2
 40
-0.6
 41
30.0
 62
     5
 63
     7
421
 16777215
 74
     1
 91
        4
 64
     7
 65
   257
 75
     1
175
     1
 42
1.0
 92
        0
 66
   257
 43
1.0
 76
     1
 77
     6
 78
     2
 67
     7
 79
     5
170
     0
171
     0
290
     0
174
     0
 93
       13
 44
0.0
173
     0
291
     1
 45
0.0
  0
VISUALSTYLE
  5
38
102
{ACAD_REACTORS
330
2A
102
}
102
{ACAD_XDICTIONARY
360
1A7
102
}
330
2A
100
AcDbVisualStyle
  2
Linepattern
 70
    14
 71
     2
 72
     2
 73
     0
 90
        0
 40
-0.6
 41
-30.0
 62
     5
 63
     7
421
 16777215
 74
     1
 91
        4
 64
     7
 65
   257
 75
     7
175
     7
 42
1.0
 92
        8
 66
     7
 43
1.0
 76
     1
 77
     6
 78
     2
 67
     7
 79
     5
170
     0
171
     0
290
     0
174
     0
 93
        1
 44
0.0
173
     0
291
     1
 45
0.0
  0
VISUALSTYLE
  5
33
102
{ACAD_REACTORS
330
2A
102
}
102
{ACAD_XDICTIONARY
360
19D
102
}
330
2A
100
AcDbVisualStyle
  2
Realistic
 70
     8
 71
     2
 72
     2
 73
     0
 90
        0
 40
-0.6
 41
-30.0
 62
     5
 63
     7
421
 16777215
 74
     1
 91
        0
 64
     7
 65
   257
 75
     1
175
     1
 42
1.0
 92
        8
 66
     8
424
  7895160
 43
1.0
 76
     1
 77
     6
 78
     2
 67
     7
 79
     5
170
     0
171
     0
290
     0
174
     0
 93
       13
 44
0.0
173
     0
291
     0
 45
0.0
  0
VISUALSTYLE
  5
37
102
{ACAD_REACTORS
330
2A
102
}
102
{ACAD_XDICTIONARY
360
1A5
102
}
330
2A
100
AcDbVisualStyle
  2
Thicken
 70
    13
 71
     2
 72
     2
 73
     0
 90
        0
 40
-0.6
 41
-30.0
 62
     5
 63
     7
421
 16777215
 74
     1
 91
        4
 64
     7
 65
   257
 75
     1
175
     1
 42
1.0
 92
       12
 66
     7
 43
1.0
 76
     1
 77
     6
 78
     2
 67
     7
 79
     5
170
     0
171
     0
290
     0
174
     0
 93
        1
 44
0.0
173
     0
291
     1
 45
0.0
  0
DICTIONARYVAR
  5
18C
102
{ACAD_REACTORS
330
18B
102
}
330
18B
100
DictionaryVariables
280
     0
  1
1:1
  0
DICTIONARY
  5
195
330
2F
100
AcDbDictionary
280
     1
281
     1
  3
ACAD_XREC_ROUNDTRIP
360
196
  0
DICTIONARY
  5
199
330
31
100
AcDbDictionary
280
     1
281
     1
  3
ACAD_XREC_ROUNDTRIP
360
19A
  0
DICTIONARY
  5
197
330
30
100
AcDbDictionary
280
     1
281
     1
  3
ACAD_XREC_ROUNDTRIP
360
198
  0
DICTIONARY
  5
19B
330
32
100
AcDbDictionary
280
     1
281
     1
  3
ACAD_XREC_ROUNDTRIP
360
19C
  0
DICTIONARY
  5
1A3
330
36
100
AcDbDictionary
280
     1
281
     1
  3
ACAD_XREC_ROUNDTRIP
360
1A4
  0
DICTIONARY
  5
1AB
330
3A
100
AcDbDictionary
280
     1
281
     1
  3
ACAD_XREC_ROUNDTRIP
360
1AC
  0
DICTIONARY
  5
19F
330
34
100
AcDbDictionary
280
     1
281
     1
  3
ACAD_XREC_ROUNDTRIP
360
1A0
  0
DICTIONARY
  5
1A1
330
35
100
AcDbDictionary
280
     1
281
     1
  3
ACAD_XREC_ROUNDTRIP
360
1A2
  0
DICTIONARY
  5
1A9
330
39
100
AcDbDictionary
280
     1
281
     1
  3
ACAD_XREC_ROUNDTRIP
360
1AA
  0
DICTIONARY
  5
18D
330
2B
100
AcDbDictionary
280
     1
281
     1
  3
ACAD_XREC_ROUNDTRIP
360
18E
  0
DICTIONARY
  5
18F
330
2C
100
AcDbDictionary
280
     1
281
     1
  3
ACAD_XREC_ROUNDTRIP
360
190
  0
DICTIONARY
  5
191
330
2D
100
AcDbDictionary
280
     1
281
     1
  3
ACAD_XREC_ROUNDTRIP
360
192
  0
DICTIONARY
  5
193
330
2E
100
AcDbDictionary
280
     1
281
     1
  3
ACAD_XREC_ROUNDTRIP
360
194
  0
DICTIONARY
  5
1A7
330
38
100
AcDbDictionary
280
     1
281
     1
  3
ACAD_XREC_ROUNDTRIP
360
1A8
  0
DICTIONARY
  5
19D
330
33
100
AcDbDictionary
280
     1
281
     1
  3
ACAD_XREC_ROUNDTRIP
360
19E
  0
DICTIONARY
  5
1A5
330
37
100
AcDbDictionary
280
     1
281
     1
  3
ACAD_XREC_ROUNDTRIP
360
1A6
  0
XRECORD
  5
196
102
{ACAD_REACTORS
330
195
102
}
330
195
100
AcDbXrecord
280
     1
102
RTVSPropertyOp0
 70
     1
102
RTVSPropertyOp1
 70
     1
102
RTVSPropertyOp2
 70
     1
102
RTVSPropertyOp3
 70
     1
102
RTVSPropertyOp4
 70
     1
102
RTVSPropertyOp5
 70
     1
102
RTVSPropertyOp6
 70
     1
102
RTVSPropertyOp7
 70
     1
102
RTVSPropertyOp8
 70
     1
102
RTVSPropertyOp9
 70
     1
102
RTVSPropertyOp10
 70
     1
102
RTVSPropertyOp11
 70
     1
102
RTVSPropertyOp12
 70
     1
102
RTVSPropertyOp13
 70
     1
102
RTVSPropertyOp14
 70
     1
102
RTVSPropertyOp15
 70
     1
102
RTVSPropertyOp16
 70
     1
102
RTVSPropertyOp17
 70
     1
102
RTVSPropertyOp18
 70
     1
102
RTVSPropertyOp19
 70
     1
102
RTVSPropertyOp20
 70
     1
102
RTVSPropertyOp21
 70
     1
102
RTVSPropertyOp22
 70
     1
102
RTVSPropertyOp23
 70
     1
102
RTVSPropertyOp24
 70
     1
102
RTVSPropertyOp25
 70
     1
102
RTVSPropertyOp26
 70
     1
102
RTVSPropertyOp27
 70
     1
102
RTVSPropertyOp28
 70
     1
102
RTVSPropertyOp29
 70
     1
102
RTVSPropertyOp30
 70
     1
102
RTVSPropertyOp31
 70
     1
102
RTVSPropertyOp32
 70
     1
  0
XRECORD
  5
19A
102
{ACAD_REACTORS
330
199
102
}
330
199
100
AcDbXrecord
280
     1
102
RTVSPropertyOp0
 70
     1
102
RTVSPropertyOp1
 70
     1
102
RTVSPropertyOp2
 70
     1
102
RTVSPropertyOp3
 70
     1
102
RTVSPropertyOp4
 70
     1
102
RTVSPropertyOp5
 70
     1
102
RTVSPropertyOp6
 70
     1
102
RTVSPropertyOp7
 70
     1
102
RTVSPropertyOp8
 70
     1
102
RTVSPropertyOp9
 70
     1
102
RTVSPropertyOp10
 70
     1
102
RTVSPropertyOp11
 70
     1
102
RTVSPropertyOp12
 70
     1
102
RTVSPropertyOp13
 70
     1
102
RTVSPropertyOp14
 70
     1
102
RTVSPropertyOp15
 70
     1
102
RTVSPropertyOp16
 70
     1
102
RTVSPropertyOp17
 70
     1
102
RTVSPropertyOp18
 70
     1
102
RTVSPropertyOp19
 70
     1
102
RTVSPropertyOp20
 70
     1
102
RTVSPropertyOp21
 70
     1
102
RTVSPropertyOp22
 70
     1
102
RTVSPropertyOp23
 70
     1
102
RTVSPropertyOp24
 70
     1
102
RTVSPropertyOp25
 70
     1
102
RTVSPropertyOp26
 70
     1
102
RTVSPropertyOp27
 70
     1
102
RTVSPropertyOp28
 70
     1
102
RTVSPropertyOp29
 70
     1
102
RTVSPropertyOp30
 70
     1
102
RTVSPropertyOp31
 70
     1
102
RTVSPropertyOp32
 70
     1
  0
XRECORD
  5
198
102
{ACAD_REACTORS
330
197
102
}
330
197
100
AcDbXrecord
280
     1
102
RTVSPropertyOp0
 70
     1
102
RTVSPropertyOp1
 70
     1
102
RTVSPropertyOp2
 70
     1
102
RTVSPropertyOp3
 70
     1
102
RTVSPropertyOp4
 70
     1
102
RTVSPropertyOp5
 70
     1
102
RTVSPropertyOp6
 70
     1
102
RTVSPropertyOp7
 70
     1
102
RTVSPropertyOp8
 70
     1
102
RTVSPropertyOp9
 70
     1
102
RTVSPropertyOp10
 70
     1
102
RTVSPropertyOp11
 70
     1
102
RTVSPropertyOp12
 70
     1
102
RTVSPropertyOp13
 70
     1
102
RTVSPropertyOp14
 70
     1
102
RTVSPropertyOp15
 70
     1
102
RTVSPropertyOp16
 70
     1
102
RTVSPropertyOp17
 70
     1
102
RTVSPropertyOp18
 70
     1
102
RTVSPropertyOp19
 70
     1
102
RTVSPropertyOp20
 70
     1
102
RTVSPropertyOp21
 70
     1
102
RTVSPropertyOp22
 70
     1
102
RTVSPropertyOp23
 70
     1
102
RTVSPropertyOp24
 70
     1
102
RTVSPropertyOp25
 70
     1
102
RTVSPropertyOp26
 70
     1
102
RTVSPropertyOp27
 70
     1
102
RTVSPropertyOp28
 70
     1
102
RTVSPropertyOp29
 70
     1
102
RTVSPropertyOp30
 70
     1
102
RTVSPropertyOp31
 70
     1
102
RTVSPropertyOp32
 70
     1
  0
XRECORD
  5
19C
102
{ACAD_REACTORS
330
19B
102
}
330
19B
100
AcDbXrecord
280
     1
102
RTVSPropertyOp0
 70
     1
102
RTVSPropertyOp1
 70
     1
102
RTVSPropertyOp2
 70
     1
102
RTVSPropertyOp3
 70
     1
102
RTVSPropertyOp4
 70
     1
102
RTVSPropertyOp5
 70
     1
102
RTVSPropertyOp6
 70
     1
102
RTVSPropertyOp7
 70
     1
102
RTVSPropertyOp8
 70
     1
102
RTVSPropertyOp9
 70
     1
102
RTVSPropertyOp10
 70
     1
102
RTVSPropertyOp11
 70
     1
102
RTVSPropertyOp12
 70
     1
102
RTVSPropertyOp13
 70
     1
102
RTVSPropertyOp14
 70
     1
102
RTVSPropertyOp15
 70
     1
102
RTVSPropertyOp16
 70
     1
102
RTVSPropertyOp17
 70
     1
102
RTVSPropertyOp18
 70
     1
102
RTVSPropertyOp19
 70
     1
102
RTVSPropertyOp20
 70
     1
102
RTVSPropertyOp21
 70
     1
102
RTVSPropertyOp22
 70
     1
102
RTVSPropertyOp23
 70
     1
102
RTVSPropertyOp24
 70
     1
102
RTVSPropertyOp25
 70
     1
102
RTVSPropertyOp26
 70
     1
102
RTVSPropertyOp27
 70
     1
102
RTVSPropertyOp28
 70
     1
102
RTVSPropertyOp29
 70
     1
102
RTVSPropertyOp30
 70
     1
102
RTVSPropertyOp31
 70
     1
102
RTVSPropertyOp32
 70
     1
  0
XRECORD
  5
1A4
102
{ACAD_REACTORS
330
1A3
102
}
330
1A3
100
AcDbXrecord
280
     1
102
RTVSPropertyOp0
 70
     1
102
RTVSPropertyOp1
 70
     1
102
RTVSPropertyOp2
 70
     1
102
RTVSPropertyOp3
 70
     1
102
RTVSPropertyOp4
 70
     1
102
RTVSPropertyOp5
 70
     1
102
RTVSPropertyOp6
 70
     1
102
RTVSPropertyOp7
 70
     1
102
RTVSPropertyOp8
 70
     1
102
RTVSPropertyOp9
 70
     1
102
RTVSPropertyOp10
 70
     1
102
RTVSPropertyOp11
 70
     1
102
RTVSPropertyOp12
 70
     1
102
RTVSPropertyOp13
 70
     1
102
RTVSPropertyOp14
 70
     1
102
RTVSPropertyOp15
 70
     1
102
RTVSPropertyOp16
 70
     1
102
RTVSPropertyOp17
 70
     1
102
RTVSPropertyOp18
 70
     1
102
RTVSPropertyOp19
 70
     1
102
RTVSPropertyOp20
 70
     1
102
RTVSPropertyOp21
 70
     1
102
RTVSPropertyOp22
 70
     1
102
RTVSPropertyOp23
 70
     1
102
RTVSPropertyOp24
 70
     1
102
RTVSPropertyOp25
 70
     1
102
RTVSPropertyOp26
 70
     1
102
RTVSPropertyOp27
 70
     1
102
RTVSPropertyOp28
 70
     1
102
RTVSPropertyOp29
 70
     1
102
RTVSPropertyOp30
 70
     1
102
RTVSPropertyOp31
 70
     1
102
RTVSPropertyOp32
 70
     1
  0
XRECORD
  5
1AC
102
{ACAD_REACTORS
330
1AB
102
}
330
1AB
100
AcDbXrecord
280
     1
102
RTVSPropertyOp0
 70
     1
102
RTVSPropertyOp1
 70
     1
102
RTVSPropertyOp2
 70
     1
102
RTVSPropertyOp3
 70
     1
102
RTVSPropertyOp4
 70
     1
102
RTVSPropertyOp5
 70
     1
102
RTVSPropertyOp6
 70
     1
102
RTVSPropertyOp7
 70
     1
102
RTVSPropertyOp8
 70
     1
102
RTVSPropertyOp9
 70
     1
102
RTVSPropertyOp10
 70
     1
102
RTVSPropertyOp11
 70
     1
102
RTVSPropertyOp12
 70
     1
102
RTVSPropertyOp13
 70
     1
102
RTVSPropertyOp14
 70
     1
102
RTVSPropertyOp15
 70
     1
102
RTVSPropertyOp16
 70
     1
102
RTVSPropertyOp17
 70
     1
102
RTVSPropertyOp18
 70
     1
102
RTVSPropertyOp19
 70
     1
102
RTVSPropertyOp20
 70
     1
102
RTVSPropertyOp21
 70
     1
102
RTVSPropertyOp22
 70
     1
102
RTVSPropertyOp23
 70
     1
102
RTVSPropertyOp24
 70
     1
102
RTVSPropertyOp25
 70
     1
102
RTVSPropertyOp26
 70
     1
102
RTVSPropertyOp27
 70
     1
102
RTVSPropertyOp28
 70
     1
102
RTVSPropertyOp29
 70
     1
102
RTVSPropertyOp30
 70
     1
102
RTVSPropertyOp31
 70
     1
102
RTVSPropertyOp32
 70
     1
  0
XRECORD
  5
1A0
102
{ACAD_REACTORS
330
19F
102
}
330
19F
100
AcDbXrecord
280
     1
102
RTVSPropertyOp0
 70
     1
102
RTVSPropertyOp1
 70
     1
102
RTVSPropertyOp2
 70
     1
102
RTVSPropertyOp3
 70
     1
102
RTVSPropertyOp4
 70
     1
102
RTVSPropertyOp5
 70
     1
102
RTVSPropertyOp6
 70
     1
102
RTVSPropertyOp7
 70
     1
102
RTVSPropertyOp8
 70
     1
102
RTVSPropertyOp9
 70
     1
102
RTVSPropertyOp10
 70
     1
102
RTVSPropertyOp11
 70
     1
102
RTVSPropertyOp12
 70
     1
102
RTVSPropertyOp13
 70
     1
102
RTVSPropertyOp14
 70
     1
102
RTVSPropertyOp15
 70
     1
102
RTVSPropertyOp16
 70
     1
102
RTVSPropertyOp17
 70
     1
102
RTVSPropertyOp18
 70
     1
102
RTVSPropertyOp19
 70
     1
102
RTVSPropertyOp20
 70
     1
102
RTVSPropertyOp21
 70
     1
102
RTVSPropertyOp22
 70
     1
102
RTVSPropertyOp23
 70
     1
102
RTVSPropertyOp24
 70
     1
102
RTVSPropertyOp25
 70
     1
102
RTVSPropertyOp26
 70
     1
102
RTVSPropertyOp27
 70
     1
102
RTVSPropertyOp28
 70
     1
102
RTVSPropertyOp29
 70
     1
102
RTVSPropertyOp30
 70
     1
102
RTVSPropertyOp31
 70
     1
102
RTVSPropertyOp32
 70
     1
  0
XRECORD
  5
1A2
102
{ACAD_REACTORS
330
1A1
102
}
330
1A1
100
AcDbXrecord
280
     1
102
RTVSPropertyOp0
 70
     1
102
RTVSPropertyOp1
 70
     1
102
RTVSPropertyOp2
 70
     1
102
RTVSPropertyOp3
 70
     1
102
RTVSPropertyOp4
 70
     1
102
RTVSPropertyOp5
 70
     1
102
RTVSPropertyOp6
 70
     1
102
RTVSPropertyOp7
 70
     1
102
RTVSPropertyOp8
 70
     1
102
RTVSPropertyOp9
 70
     1
102
RTVSPropertyOp10
 70
     1
102
RTVSPropertyOp11
 70
     1
102
RTVSPropertyOp12
 70
     1
102
RTVSPropertyOp13
 70
     1
102
RTVSPropertyOp14
 70
     1
102
RTVSPropertyOp15
 70
     1
102
RTVSPropertyOp16
 70
     1
102
RTVSPropertyOp17
 70
     1
102
RTVSPropertyOp18
 70
     1
102
RTVSPropertyOp19
 70
     1
102
RTVSPropertyOp20
 70
     1
102
RTVSPropertyOp21
 70
     1
102
RTVSPropertyOp22
 70
     1
102
RTVSPropertyOp23
 70
     1
102
RTVSPropertyOp24
 70
     1
102
RTVSPropertyOp25
 70
     1
102
RTVSPropertyOp26
 70
     1
102
RTVSPropertyOp27
 70
     1
102
RTVSPropertyOp28
 70
     1
102
RTVSPropertyOp29
 70
     1
102
RTVSPropertyOp30
 70
     1
102
RTVSPropertyOp31
 70
     1
102
RTVSPropertyOp32
 70
     1
  0
XRECORD
  5
1AA
102
{ACAD_REACTORS
330
1A9
102
}
330
1A9
100
AcDbXrecord
280
     1
102
RTVSPropertyOp0
 70
     1
102
RTVSPropertyOp1
 70
     1
102
RTVSPropertyOp2
 70
     1
102
RTVSPropertyOp3
 70
     1
102
RTVSPropertyOp4
 70
     1
102
RTVSPropertyOp5
 70
     1
102
RTVSPropertyOp6
 70
     1
102
RTVSPropertyOp7
 70
     1
102
RTVSPropertyOp8
 70
     1
102
RTVSPropertyOp9
 70
     1
102
RTVSPropertyOp10
 70
     1
102
RTVSPropertyOp11
 70
     1
102
RTVSPropertyOp12
 70
     1
102
RTVSPropertyOp13
 70
     1
102
RTVSPropertyOp14
 70
     1
102
RTVSPropertyOp15
 70
     1
102
RTVSPropertyOp16
 70
     1
102
RTVSPropertyOp17
 70
     1
102
RTVSPropertyOp18
 70
     1
102
RTVSPropertyOp19
 70
     1
102
RTVSPropertyOp20
 70
     1
102
RTVSPropertyOp21
 70
     1
102
RTVSPropertyOp22
 70
     1
102
RTVSPropertyOp23
 70
     1
102
RTVSPropertyOp24
 70
     1
102
RTVSPropertyOp25
 70
     1
102
RTVSPropertyOp26
 70
     1
102
RTVSPropertyOp27
 70
     1
102
RTVSPropertyOp28
 70
     1
102
RTVSPropertyOp29
 70
     1
102
RTVSPropertyOp30
 70
     1
102
RTVSPropertyOp31
 70
     1
102
RTVSPropertyOp32
 70
     1
  0
XRECORD
  5
18E
102
{ACAD_REACTORS
330
18D
102
}
330
18D
100
AcDbXrecord
280
     1
102
RTVSPropertyOp0
 70
     1
102
RTVSPropertyOp1
 70
     1
102
RTVSPropertyOp2
 70
     1
102
RTVSPropertyOp3
 70
     1
102
RTVSPropertyOp4
 70
     1
102
RTVSPropertyOp5
 70
     1
102
RTVSPropertyOp6
 70
     1
102
RTVSPropertyOp7
 70
     1
102
RTVSPropertyOp8
 70
     1
102
RTVSPropertyOp9
 70
     1
102
RTVSPropertyOp10
 70
     1
102
RTVSPropertyOp11
 70
     1
102
RTVSPropertyOp12
 70
     1
102
RTVSPropertyOp13
 70
     1
102
RTVSPropertyOp14
 70
     1
102
RTVSPropertyOp15
 70
     1
102
RTVSPropertyOp16
 70
     1
102
RTVSPropertyOp17
 70
     1
102
RTVSPropertyOp18
 70
     1
102
RTVSPropertyOp19
 70
     1
102
RTVSPropertyOp20
 70
     1
102
RTVSPropertyOp21
 70
     1
102
RTVSPropertyOp22
 70
     1
102
RTVSPropertyOp23
 70
     1
102
RTVSPropertyOp24
 70
     1
102
RTVSPropertyOp25
 70
     1
102
RTVSPropertyOp26
 70
     1
102
RTVSPropertyOp27
 70
     1
102
RTVSPropertyOp28
 70
     1
102
RTVSPropertyOp29
 70
     1
102
RTVSPropertyOp30
 70
     1
102
RTVSPropertyOp31
 70
     1
102
RTVSPropertyOp32
 70
     1
  0
XRECORD
  5
190
102
{ACAD_REACTORS
330
18F
102
}
330
18F
100
AcDbXrecord
280
     1
102
RTVSPropertyOp0
 70
     1
102
RTVSPropertyOp1
 70
     1
102
RTVSPropertyOp2
 70
     1
102
RTVSPropertyOp3
 70
     1
102
RTVSPropertyOp4
 70
     1
102
RTVSPropertyOp5
 70
     1
102
RTVSPropertyOp6
 70
     1
102
RTVSPropertyOp7
 70
     1
102
RTVSPropertyOp8
 70
     1
102
RTVSPropertyOp9
 70
     1
102
RTVSPropertyOp10
 70
     1
102
RTVSPropertyOp11
 70
     1
102
RTVSPropertyOp12
 70
     1
102
RTVSPropertyOp13
 70
     1
102
RTVSPropertyOp14
 70
     1
102
RTVSPropertyOp15
 70
     1
102
RTVSPropertyOp16
 70
     1
102
RTVSPropertyOp17
 70
     1
102
RTVSPropertyOp18
 70
     1
102
RTVSPropertyOp19
 70
     1
102
RTVSPropertyOp20
 70
     1
102
RTVSPropertyOp21
 70
     1
102
RTVSPropertyOp22
 70
     1
102
RTVSPropertyOp23
 70
     1
102
RTVSPropertyOp24
 70
     1
102
RTVSPropertyOp25
 70
     1
102
RTVSPropertyOp26
 70
     1
102
RTVSPropertyOp27
 70
     1
102
RTVSPropertyOp28
 70
     1
102
RTVSPropertyOp29
 70
     1
102
RTVSPropertyOp30
 70
     1
102
RTVSPropertyOp31
 70
     1
102
RTVSPropertyOp32
 70
     1
  0
XRECORD
  5
192
102
{ACAD_REACTORS
330
191
102
}
330
191
100
AcDbXrecord
280
     1
102
RTVSPropertyOp0
 70
     1
102
RTVSPropertyOp1
 70
     1
102
RTVSPropertyOp2
 70
     1
102
RTVSPropertyOp3
 70
     1
102
RTVSPropertyOp4
 70
     1
102
RTVSPropertyOp5
 70
     1
102
RTVSPropertyOp6
 70
     1
102
RTVSPropertyOp7
 70
     1
102
RTVSPropertyOp8
 70
     1
102
RTVSPropertyOp9
 70
     1
102
RTVSPropertyOp10
 70
     1
102
RTVSPropertyOp11
 70
     1
102
RTVSPropertyOp12
 70
     1
102
RTVSPropertyOp13
 70
     1
102
RTVSPropertyOp14
 70
     1
102
RTVSPropertyOp15
 70
     1
102
RTVSPropertyOp16
 70
     1
102
RTVSPropertyOp17
 70
     1
102
RTVSPropertyOp18
 70
     1
102
RTVSPropertyOp19
 70
     1
102
RTVSPropertyOp20
 70
     1
102
RTVSPropertyOp21
 70
     1
102
RTVSPropertyOp22
 70
     1
102
RTVSPropertyOp23
 70
     1
102
RTVSPropertyOp24
 70
     1
102
RTVSPropertyOp25
 70
     1
102
RTVSPropertyOp26
 70
     1
102
RTVSPropertyOp27
 70
     1
102
RTVSPropertyOp28
 70
     1
102
RTVSPropertyOp29
 70
     1
102
RTVSPropertyOp30
 70
     1
102
RTVSPropertyOp31
 70
     1
102
RTVSPropertyOp32
 70
     1
  0
XRECORD
  5
194
102
{ACAD_REACTORS
330
193
102
}
330
193
100
AcDbXrecord
280
     1
102
RTVSPropertyOp0
 70
     1
102
RTVSPropertyOp1
 70
     1
102
RTVSPropertyOp2
 70
     1
102
RTVSPropertyOp3
 70
     1
102
RTVSPropertyOp4
 70
     1
102
RTVSPropertyOp5
 70
     1
102
RTVSPropertyOp6
 70
     1
102
RTVSPropertyOp7
 70
     1
102
RTVSPropertyOp8
 70
     1
102
RTVSPropertyOp9
 70
     1
102
RTVSPropertyOp10
 70
     1
102
RTVSPropertyOp11
 70
     1
102
RTVSPropertyOp12
 70
     1
102
RTVSPropertyOp13
 70
     1
102
RTVSPropertyOp14
 70
     1
102
RTVSPropertyOp15
 70
     1
102
RTVSPropertyOp16
 70
     1
102
RTVSPropertyOp17
 70
     1
102
RTVSPropertyOp18
 70
     1
102
RTVSPropertyOp19
 70
     1
102
RTVSPropertyOp20
 70
     1
102
RTVSPropertyOp21
 70
     1
102
RTVSPropertyOp22
 70
     1
102
RTVSPropertyOp23
 70
     1
102
RTVSPropertyOp24
 70
     1
102
RTVSPropertyOp25
 70
     1
102
RTVSPropertyOp26
 70
     1
102
RTVSPropertyOp27
 70
     1
102
RTVSPropertyOp28
 70
     1
102
RTVSPropertyOp29
 70
     1
102
RTVSPropertyOp30
 70
     1
102
RTVSPropertyOp31
 70
     1
102
RTVSPropertyOp32
 70
     1
  0
XRECORD
  5
1A8
102
{ACAD_REACTORS
330
1A7
102
}
330
1A7
100
AcDbXrecord
280
     1
102
RTVSPropertyOp0
 70
     1
102
RTVSPropertyOp1
 70
     1
102
RTVSPropertyOp2
 70
     1
102
RTVSPropertyOp3
 70
     1
102
RTVSPropertyOp4
 70
     1
102
RTVSPropertyOp5
 70
     1
102
RTVSPropertyOp6
 70
     1
102
RTVSPropertyOp7
 70
     1
102
RTVSPropertyOp8
 70
     1
102
RTVSPropertyOp9
 70
     1
102
RTVSPropertyOp10
 70
     1
102
RTVSPropertyOp11
 70
     1
102
RTVSPropertyOp12
 70
     1
102
RTVSPropertyOp13
 70
     1
102
RTVSPropertyOp14
 70
     1
102
RTVSPropertyOp15
 70
     1
102
RTVSPropertyOp16
 70
     1
102
RTVSPropertyOp17
 70
     1
102
RTVSPropertyOp18
 70
     1
102
RTVSPropertyOp19
 70
     1
102
RTVSPropertyOp20
 70
     1
102
RTVSPropertyOp21
 70
     1
102
RTVSPropertyOp22
 70
     1
102
RTVSPropertyOp23
 70
     1
102
RTVSPropertyOp24
 70
     1
102
RTVSPropertyOp25
 70
     1
102
RTVSPropertyOp26
 70
     1
102
RTVSPropertyOp27
 70
     1
102
RTVSPropertyOp28
 70
     1
102
RTVSPropertyOp29
 70
     1
102
RTVSPropertyOp30
 70
     1
102
RTVSPropertyOp31
 70
     1
102
RTVSPropertyOp32
 70
     1
  0
XRECORD
  5
19E
102
{ACAD_REACTORS
330
19D
102
}
330
19D
100
AcDbXrecord
280
     1
102
RTVSPropertyOp0
 70
     1
102
RTVSPropertyOp1
 70
     1
102
RTVSPropertyOp2
 70
     1
102
RTVSPropertyOp3
 70
     1
102
RTVSPropertyOp4
 70
     1
102
RTVSPropertyOp5
 70
     1
102
RTVSPropertyOp6
 70
     1
102
RTVSPropertyOp7
 70
     1
102
RTVSPropertyOp8
 70
     1
102
RTVSPropertyOp9
 70
     1
102
RTVSPropertyOp10
 70
     1
102
RTVSPropertyOp11
 70
     1
102
RTVSPropertyOp12
 70
     1
102
RTVSPropertyOp13
 70
     1
102
RTVSPropertyOp14
 70
     1
102
RTVSPropertyOp15
 70
     1
102
RTVSPropertyOp16
 70
     1
102
RTVSPropertyOp17
 70
     1
102
RTVSPropertyOp18
 70
     1
102
RTVSPropertyOp19
 70
     1
102
RTVSPropertyOp20
 70
     1
102
RTVSPropertyOp21
 70
     1
102
RTVSPropertyOp22
 70
     1
102
RTVSPropertyOp23
 70
     1
102
RTVSPropertyOp24
 70
     1
102
RTVSPropertyOp25
 70
     1
102
RTVSPropertyOp26
 70
     1
102
RTVSPropertyOp27
 70
     1
102
RTVSPropertyOp28
 70
     1
102
RTVSPropertyOp29
 70
     1
102
RTVSPropertyOp30
 70
     1
102
RTVSPropertyOp31
 70
     1
102
RTVSPropertyOp32
 70
     1
  0
XRECORD
  5
1A6
102
{ACAD_REACTORS
330
1A5
102
}
330
1A5
100
AcDbXrecord
280
     1
102
RTVSPropertyOp0
 70
     1
102
RTVSPropertyOp1
 70
     1
102
RTVSPropertyOp2
 70
     1
102
RTVSPropertyOp3
 70
     1
102
RTVSPropertyOp4
 70
     1
102
RTVSPropertyOp5
 70
     1
102
RTVSPropertyOp6
 70
     1
102
RTVSPropertyOp7
 70
     1
102
RTVSPropertyOp8
 70
     1
102
RTVSPropertyOp9
 70
     1
102
RTVSPropertyOp10
 70
     1
102
RTVSPropertyOp11
 70
     1
102
RTVSPropertyOp12
 70
     1
102
RTVSPropertyOp13
 70
     1
102
RTVSPropertyOp14
 70
     1
102
RTVSPropertyOp15
 70
     1
102
RTVSPropertyOp16
 70
     1
102
RTVSPropertyOp17
 70
     1
102
RTVSPropertyOp18
 70
     1
102
RTVSPropertyOp19
 70
     1
102
RTVSPropertyOp20
 70
     1
102
RTVSPropertyOp21
 70
     1
102
RTVSPropertyOp22
 70
     1
102
RTVSPropertyOp23
 70
     1
102
RTVSPropertyOp24
 70
     1
102
RTVSPropertyOp25
 70
     1
102
RTVSPropertyOp26
 70
     1
102
RTVSPropertyOp27
 70
     1
102
RTVSPropertyOp28
 70
     1
102
RTVSPropertyOp29
 70
     1
102
RTVSPropertyOp30
 70
     1
102
RTVSPropertyOp31
 70
     1
102
RTVSPropertyOp32
 70
     1
  0
ENDSEC
  0
SECTION
  2
THUMBNAILIMAGE
 90
    16364
310
28000000B40000005500000001000800000000000000000000000000000000000000000000000000FFFFFF00FF000000FFFF000000FF000000FFFF000000FF00FF00FF000000000080808000C0C0C000FF000000FF7F7F00A5000000A55252007F0000007F3F3F004C0000004C2626002600000026131300FF3F0000FF9F7F
310
00A5290000A56752007F1F00007F4F3F004C1300004C2F26002609000026171300FF7F0000FFBF7F00A5520000A57C52007F3F00007F5F3F004C2600004C39260026130000261C1300FFBF0000FFDF7F00A57C0000A59152007F5F00007F6F3F004C3900004C422600261C000026211300FFFF0000FFFF7F00A5A50000A5A5
310
52007F7F00007F7F3F004C4C00004C4C26002626000026261300BFFF0000DFFF7F007CA5000091A552005F7F00006F7F3F00394C0000424C26001C260000212613007FFF0000BFFF7F0052A500007CA552003F7F00005F7F3F00264C0000394C2600132600001C2613003FFF00009FFF7F0029A5000067A552001F7F00004F
310
7F3F00134C00002F4C2600092600001726130000FF00007FFF7F0000A5000052A55200007F00003F7F3F00004C0000264C2600002600001326130000FF3F007FFF9F0000A5290052A56700007F1F003F7F4F00004C1300264C2F00002609001326170000FF7F007FFFBF0000A5520052A57C00007F3F003F7F5F00004C2600
310
264C39000026130013261C0000FFBF007FFFDF0000A57C0052A59100007F5F003F7F6F00004C3900264C420000261C001326210000FFFF007FFFFF0000A5A50052A5A500007F7F003F7F7F00004C4C00264C4C00002626001326260000BFFF007FDFFF00007CA5005291A500005F7F003F6F7F0000394C0026424C00001C26
310
0013212600007FFF007FBFFF000052A500527CA500003F7F003F5F7F0000264C0026394C0000132600131C2600003FFF007F9FFF000029A5005267A500001F7F003F4F7F0000134C00262F4C0000092600131726000000FF007F7FFF000000A5005252A50000007F003F3F7F0000004C0026264C0000002600131326003F00
310
FF009F7FFF002900A5006752A5001F007F004F3F7F0013004C002F264C0009002600171326007F00FF00BF7FFF005200A5007C52A5003F007F005F3F7F0026004C0039264C00130026001C132600BF00FF00DF7FFF007C00A5009152A5005F007F006F3F7F0039004C0042264C001C00260021132600FF00FF00FF7FFF00A5
310
00A500A552A5007F007F007F3F7F004C004C004C264C002600260026132600FF00BF00FF7FDF00A5007C00A55291007F005F007F3F6F004C0039004C26420026001C0026132100FF007F00FF7FBF00A5005200A5527C007F003F007F3F5F004C0026004C2639002600130026131C00FF003F00FF7F9F00A5002900A5526700
310
7F001F007F3F4F004C0013004C262F002600090026131700000000002D2D2D005B5B5B0089898900B7B7B700B3B3B30000000000000000000000000000000000000000000000000000000000000000000000000000000000000000000000000000000000000000000000000000000000000000000000000000000000000000
310
00000000000000000000000000000000000000000000000000000000000000000000000000000000000000000000000000000000000000000000000000000000000000000000000000000000000000000000000000000000000000000000000000000000000000000000000000000000000000000000000000000000000000
310
00000000000000000000000000000001010101010101010101010101010101010101010101010101010101010101010101010101010101010101010101010101010101010101010101010101010101010101010101010101010101010101010101010101010101010101010707070707070700000000000000000000000000
310
00000000000000000000000000000000000000000000000000000000000000000000000000000000000000000000000000000000000000000000000000000000000000000100000000000000000000000000000000000000000000000000000000000000000000000000000000000000000000000000000000000000000000
310
00000000000000000000000000000000000000000000000000000000000000000100000000000700000000000000000000000000000000000000000000000000000000000000000000000000000000000000000000000000000000000000000000000000000000000000000000000000000000000000000000010000000000
310
00000000000000000000000000000000000000000000000000000000000000000000000000000000000000000000000000000000000000000000000000000000000000000000000000000000000000000000000000010000000000070000000000000000000000000000000000000000000000000000000000000000000000
310
00000000000000000000000000000000000000000000000000000000000000000000000000000000000000000000000100000000000000000000000000000000000000000000000000000000000000000000000000000000000000000000000000000000000000000000000000000000000000000000000000000000000000
310
00000000000000000000000100000000000700000000000000000000000000000000000000000000000000000000000000000000000000000000000000000000000000000000000000000000000000000000000000000000000000000000000000000000010000000000000000000000000000000000000000000000000000
310
00000000000000000000000000000000000000000000000000000000000000000000000000000000000000000000000000000000000000000000000000000000010000000000070000000000000000000000000000000000000000000000000000000000000000000000000000000000000000000000000000000000000000
310
00000000000000000000000000000000000000000000000000000100000000000000000000000001010101010101010101010101010101010100000000000000000000000000000000000000000000000000000000000000010101010101010101000000000000000000000000000000000000000001000000000007000000
310
00000000000000000000000000000000000000000000000000000000000000000000000000000000000000000000000000000000000000000000000000000000000000000000000000000000000000010000000000010101010101010100000000000000000000000000000000010101010101010101010101010101010101
310
01010101010101010101010101010100000000000000010101010101010000000000000000000000000000010000000000070000000000000000000000000000000000000000000000000000000000000000000000000000000000000000000000000000000000000000000000000000000000000000000000000000000000
310
00000000000100000000000100000000000000000000000000000000000000000000000000000000000000000000000000000000000000000000000000000000000000000000000000000000000000000001000000000000000000000000000001000000000007000000000000000000000000000000000000000000000000
310
00000000000000000000000000000000000000000000000000000000000000000000000000000000000000000000000000000000000000000000010000000000010000010101010101010101010101010101010101010101010000000001010101010101010101010101010101010101010000000000010101010101010101
310
01010101010000010000000000000000000000000000010000000000070000000000000000000000000000000000000000000000000000000000000000000000000000000000000000000000000000000000000000000000000000000000000000000000000000000000000000000001000000000001000001000000000000
310
00000000000000000000000000000100000000010000000000000000000000000000000000000100000000000100000000000000000000000001000001000000000000000000000000000001000000000007000000000000000000000000000000000000000000000000000000000000000000000000000000000000000000
310
00000000000000000000000000000000000000000000000000000000000000000000000000010000000000010000010000000000000000000000000000000000000000010000000001000000000000000000000000000000000000010000000000010000000000000000000000000100000100000000000000000000000000
310
00010000000000070000000000000000000000000000000000000000000000000000000000000000000000000000000000000000000000000000000000000000000000000000000000000000000000000000000000000000000001000000000001000001000000000000000000000000000000000000000001000000000100
310
00000000000000000000000000000000000100000000000100000000000000000000000001000001000000000000000000000000000001000000000007000000000000000000000000000000000000000000000000000000000000000000000000000000000000000000000000000000000000000000000000000000000000
310
00000000000000000000000000000000010000000000010000010000000000000000000000000000000000000000010000000001000000000000000000000000000000000000010000000000010000000000000000000000000100000100000000000000000000000000000100000000000700000000000000000000000000
310
00000000000000000000000000000000000000000000000000000000000000000000000000000000000000000000000000000000000000000000000000000000000000000001000000000001000001000000000000000000000000000000000000000001000000000100000000000000000000000000000000000001070707
310
07070100000000000000000000000001000001000000000000000000000000000001000000000007000000000000000000000000000000000000000000000000000000000000000000000000000000000000000000000000000000000000000000000000000000000000000000000000000000000000000000000100000000
310
00010000010000000000000000000000000000000000000000010000000001000000000000000000000000000000000000010007070707010000000000000000000000000100000100000000000000000000000000000100000000000700000000000000000000000000000000000000000000000000000000000000000000
310
00000000000000000000000000000000000000000000000000000000000000000000000000000000000000000000000001000000000001000001000000000000000000000000000000000000000001000000000100000000000000000000000000000000000001000707070701000000000000000000000000010000010000
310
00000000000000000000000001000000000007000000000000000000000000000000000000000000000000000000000000000000000000000000000000000000000000000000000000000000000000000000000000000000000000000000000000000000000100000000000100000100000000000000000000000000000000
310
00000000010000000001000000000000000000000000000000000000010000000000010000000000000000000000000100000100000000000000000000000000000100000000000700000000000000000000000000000000000000000000000000000000000000000000000000000000000000000000000000000000000000
310
00000000000000000000000000000000000000000000000000000001000000000001000001000000000000000000000000000000000000000001000000000100000000000000000000000000000000000001000000000001000000000000000000000000010000010000000000000000000000000000010000000000070000
310
00000000000000000000000000000000000000000000000000000000000000000000000000000000000000000000000000000000000000000000000000000000000000000000000000000000000000000100000000000100000100000000000000000000000000000000000000000100000000010000000000000000000000
310
00000000000000010000000000010000000000000000000000000100000100000000000000000000000000000100000000000700000000000000000000000000000000000000000000000000000000000000000000000000000000000000000000000000000000000000000000000000000000000000000000000000000000
310
00000000000001000000000001000001010101010101010101010101010101010101010101000000000101010101010101010101010101010101010101000000000001010101010101010101010101010000010000000000000000000000000000010000000000070000000000000000000000000000000000000000000000
310
00000000000000000000000000000000000000000000000000000000000000000000000000000000000000000000000000000000000000000000000100000000000101000000000000000000000000000000000000000000000101010101000000000000000000000000000000000000000001010101010100000000000000
310
00000000000000000100000000000000000000000000000100000000000700000000000000000000000000000000000000000000000000000000000000000000000000000000000000000000000000000000000000000000000000000000000000000000000000000000000000000000010000000000000101010101010101
310
01010101010101010101010101010101000000010101010101010101010101010101010101010101010101000001000000000000000000000000000001010000000000000000000000000000010000000000070000000000000000000000000000000000000000000000000000000000000000000000000000000000000000
310
00000000000000000000000000000000000000000000000000000000000000000000000000000100000000000000000000000000000000000000000000000000000000000000000000000000000000000000000000000000000000000000000000000101010101010101010101010101010100000000000000000000000000
310
00000100000000000700000000000000000000000000000000000000000000000000000000000000000000000000000000000000000000000000000000000000000000000000000000000000000000000000000000000000000000010000000000000000000000000000000000000000000000000000000000000000000000
310
00000000000000000000000000000000000000000000000000000000000000000000000000000000000000000000000000000000000000010000000000070000000000000000000000000000000000000000000000000000000000000000000000000000000000000000000000000000000000000000000000000000000000
310
00000000000000000000000000000000000100000000000000000000000000000000000000000000000000000000000000000000000000000000000000000000000000000000000000000000000000000000000000000000000000000000000000000000000000000000000001000000000007000000000000000000000000
310
00000000000000000000000000000000000000000000000000000000000000000000000000000000000000000000000000000000000000000000000000000000000000000000010000000000000000000000010101010101010101000000000000000000000000000000000000000000000000000000000000000101010101
310
01010101010101010101010101000000000000000000000000000000000000000000010000000000070000000000000000000000000000000000000000000000000000000000000000000000000000000000000000000000000000000000000000000000000000000000000000000000000000000000000000000001000000
310
00000101010101010100000000000000010101010101010101010101010101010101010101010101010101010101010101000000000000000000000000000000000101010101010101000000000000000000000000000001000000000007000000000000000000000000000000000000000000000000000000000000000000
310
00000000000000000000000000000000000000000000000000000000000000000000000000000000000000000000000000010000000000010001010101010101010101010101010000000000000101010101010101010101010101010101010101000000000101010101010101010101010101010101010101010100000100
310
00000000000000000000000000010000000000070000000000000000000000000000000000000000000000000000000000000000000000000000000000000000000000000000000000000000000000000000000000000000000000000000000000000000000001000000000001000100000000000000000000000001000000
310
00000001000000000000000000000000000000000000010000000001000000000000000000000000000000000000000001000001000000000000000000000000000001000000000007000000000000000000000000000000000000000000000000000000000000000000000000000000000000000000000000000000000000
310
00000000000000000000000000000000000000000000000000000000010000000000010001000000000000000000000000010000000000000100000000000000000000000000000000000001000000000100000000000000000000000000000000000000000100000100000000000000000000000000000100000000000700
310
00000000000000000000000000000000000000000000000000000000000000000000000000000000000000000000000000000000000000000000000000000000000000000000000000000000000000000001000000000001000100000000000000000000000001000000000000010000000000000000000000000000000000
310
00010000000001000000000000000000000000000000000000000001000001000000000000000000000000000001000000000007000000000000000000000000000000000000000000000000000000000000000000000000000000000000000000000000000000000000000000000000000000000000000000000000000000
310
00000000000000010000000000010001000000000000000000000000010000000000000100000000000000000000000000000000000001000000000100000000000000000000000000000000000000000100000100000000000000000000000000000100000000000700000000000000000000000000000000000000000000
310
00000000000000000000000000000000000000000000000000000000000000000000000000000000000000000000000000000000000000000000000001000000000001000100000000000000000000000001070707070700010000000000000000000000000000000000000100000000010000000000000000000000000000
310
00000000000001000001000000000000000000000000000001000000000007000000000000000000000000000000000000000000000000000000000000000000000000000000000000000000000000000000000000000000000000000000000000000000000000000000000000000000000100000000000100010000000000
310
00000000000000010007070707000100000000000000000000000000000000000001000000000100000000000000000000000000000000000000000100000100000000000000000000000000000100000000000700000000000000000000000000000000000000000000000000000000000000000000000000000000000000
310
00000000000000000000000000000000000000000000000000000000000000000000000000000001000000000001000100000000000000000000000001000707070707010000000000000000000000000000000000000100000000010000000000000000000000000000000000000000010000010000000000000000000000
310
00000001000000000007000000000000000000000000000000000000000000000000000000000000000000000000000000000000000000000000000000000000000000000000000000000000000000000000000000000000000000000100000000000100010000000000000000000000000100000000000001000000000000
310
00000000000000000000000001000000000100000000000000000000000000000000000000000100000100000000000000000000000000000100000000000700000000000000000000000000000000000000000000000000000000000000000000000000000000000000000000000000000000000000000000000000000000
310
00000000000000000000000000000000000001000000000001000100000000000000000000000001000000000000010000000000000000000000000000000000000100000000010000000000000000000000000000000000000000010000010000000000000000000000000000010000000000070000000000000000000000
310
00000000000000000000000000000000000000000000000000000000000000000000000000000000000000000000000000000000000000000000000000000000000000000000000100000000000100010000000000000000000000000100000000000001000000000000000000000000000000000000010000000001000000
310
00000000000000000000000000000000000100000100000000000000000000000000000100000000000700000000000000000000000000000000000000000000000000000000000000000000000000000000000000000000000000000000000000000000000000000000000000000000000000000000000000000000010000
310
00000001000101010101010101010101010101000000000000010101010101010101010101010101010101010100000000010101010101010101010101010101010101010101010000010000000000000000000000000000010000000000070000000000000000000000000000000000000000000000000000000000000000
310
00000000000000000000000000000000000000000000000000000000000000000000000000000000000000000000000000000100000000000100000000000000000000000000000101010100000000000000000000000000000000000000000000000101010101000000000000000000000000000000000000000000000101
310
00000000000000000000000000000100000000000700000000000000000000000000000000000000000000000000000000000000000000000000000000000000000000000000000000000000000000000000000000000000000000000000000000000000000000010000000000010000000000000000000000000000010000
310
01000101000000000000000000000000000000000001010101000000010101010101010101000000000000000000000000000001000000000000000000000000000000010000070707070000000000000000000000000000000000000000000000000000000000000000000000000000000000000000000000000000000000
310
00000000000000000000000000000000000000000000000000000000000100000000000101000000000000000101010101010100000101010101010101010101010101010101010101010000000000000000000000000000000001010101010101010101010101010100000000000000000000000000000001000707000007
310
00000000000000000000000000000000000000000000000000000000000000000000000000000000000000000000000000000000000000000000000000000000000000000000000000000000000000000000010000000000000101010101010101000000000000000000000000000000000000000000000000000000000000
310
00000000000000000000000000000000000000000000000000000000000000000000000000000000000000000000010000070707070000000000000000000000000000000000000000000000000000000000000000000000000000000000000000000000000000000000000000000000000000000000000000000000000000
310
00000000000000000100000000000000000000000000000000000000000000000000000000000000000000000000000000000000000000000000000000000000000000000000000000000000000000000007070700070707070707070707000000000001000707070707000000000000000000000000000000000000000000
310
00000000000000000000000000000000000000000000000000000000000000000000000000000000000000000000000000000000000000000000000000010000000000000000000000000000000000000000000000000000000000000000000000000000000000000000000000000000000000000000000000000000000000
310
00000000000000000707000707070707000700070000000000010007070707070000000000000000000000000000000000000000000000000000000000000000000000000000000000000000000000000000000000000000000000000000000000000000000000000000000000000000000001000000000000000000000000
310
00000000000000000000000000000000000000000000000000000000000000000000000000000000000000000000000000000000000000000000000000070007070007070007070007000000000001000707000707000000000000000000000000000000000000000000000000000000000000000000000000000000000000
310
00000000000000000000000000000000000000000000000000000000000000000000000000000000010000000000000000000000000001010101010101010101010101010101010101010101010101010101010101010101010101010101010101010101010101010101000000000000000007070707070707070707070700
310
00000000010007070700070000000000000000000000000000000000000000000000000000000000000000000000000000000000000000000000000000000000000000000000000000000000000000000000000000000000000000000001000000000000000000000000010000000000000000000000000000000000000000
310
00000000000000000000000000000000000000000000000000000000000000010100000000000000000000000000000000000000000000000001000000000007000000000000000000000000000000000000000000000000000000000000000000000000000000000000000000000000000000000000000000000000000000
310
00000000000000000000000000000000000000010000000000000000000000010000000000000000000000000000000000000000000000010101010101010100000000000000000000000000000000000000000000000100000000000000000000000000000000000000000000000100000000000700000000000000000000
310
00000000000000000000000000000000000000000000000000000000000000000000000000000000000000000000000000000000000000000000000000000000000000000000000001000000000000000000000100000000000000000000000000000000000000000000000001000000000000010000000000000000000000
310
00000000000000000000000000010000000000000000000000000000000000000000000001000000000007000000000000000000000000000000000000000000000000000000000000000000000000000000000000000000000000000000000000000000000000000000000000000000000000000000000000000000000100
310
00000000000000000100000000000000000000000000000000000000000000000000010000000000000100000000000000000000000000000000000000000000000001000000000000000001010101010101010000000000000100000000000700000000000000000000000000000000000000000000000000000000000000
310
00000000000000000000000000000000000000000000000000000000000000000000000000000000000000000000000000000001000000000000000001010000000000000000000000000000000000000000000000000001000000000000010000000000000000000000000000000000000000000000000001010000000000
310
00010000000000000100000000000001000000000007000000000000000000000000000000000000000000000000000000000000000000000000000000000000000000000000000000000000000000000000000000000000000000000000000000000000000000000100000000000000010000000000000000000000000000
310
00000000000000000000000000010000000000000100000000000000000000000000000000000000000000000000000100000000000001000000000000010000000000000100000000000700000000000000000000000000000000000000000000000000000000000000000000000000000000000000000000000000000000
310
00000000000000000000000000000000000000000000000000000000000001000000000000010100000000000000000000000000000000000000000000000000000001000000000000010000000000000000000000000000000000000000000000000000000100000000000100070707070001000000000000010000000000
310
07000000000000000000000000000000000000000000000000000000000000000000000000000000000000000000000000000000000000000000000000000000000000000000000000000000000000000000000100000000000001000000000000000000000000000000000000000000000000000000000100000000000001
310
00000000000000000000000000000000000000000000000000000000010000000001000007070007010000000000000100000000000700000000000000000000000000000000000000000000000000000000000000000000000000000000000000000000000000000000000000000000000000000000000000000000000000
310
00000000000000000001000000000001000000000000000000000000000000000000000000000000000000000001000000000000010000000000070707070700000000000000000000000000000000000001010000000100000707070701000000000000010000000000070000000000000000000000000000000000000000
310
00000000000000000000000000000000000000000000000000000000000000000000000000000000000000000000000000000000000000000000000000000100000000000100000000000000000000000000000000000000000000000000000000000100000000000001000000000000070707070000000000000000000000
310
00000000000000000100000001000000000000010000000000000100000000000700000000000000000000000000000000000000000000000000000000000000000000000000000000000000000000000000000000000000000000000000000000000000000000000000000000000000000000010000000001000000000000
310
00000000000000000000000000000000000000000000000001000000000000010000000000000707070707000000000000000000000000000000000000010000000100000000000001000000000000010000000000070000000000000000000000000000000000000000000000000000000000000000000000000000000000
310
00000000000000000000000000000000000000000000000000000000000000000000000000000000000100000000010000000000000000000000000000000000000000000000000000000000000100000000000001000000000000000700070000000000000000000000000000000000000000010000010101010101010100
310
00000000000100000000000700000000000000000000000000000000000000000000000000000000000000000000000000000000000000000000000000000000000000000000000000000000000000000000000000000000000000000000010000000001000000000000000000000000000000000000000000000000000000
310
00000001000000000000010000000000000000000000000000000000000000000000000000000000000100000101000000000101000000000000010000000000070000000000000000000000000000000000000000000000000000000000000000000000000000000000000000000000000000000000000000000000000000
310
00000000000000000000000000000000000000000100000000010000000000000000000000000000000000000000000000000000000000000100000000000001000000000000000000000000000000000000000000000000000000000000010000010100000000010100000000000001000000000007000000000000000000
310
00000000000000000000000000000000000000000000000000000000000000000000000000000000000000000000000000000000000000000000000000000000000000000000000000010000000001000000000000000000000000000000000000000000000000000000000000010000000000000100000000000000000000
310
00000000000000000000000000000000000000000100000101000000000101000000000000010000000000070000000000000000000000000000000000000000000000000000000000000000000000000000000000000000000000000000000000000000000000000000000000000000000000000000000000000000000001
310
00000000010000000000000000000000000000000000000000000000000000000000000100000000000001000000000000000000000000000000000000000000000000000000000000010000010100000000010100000000000001000000000007000000000000000000000000000000000000000000000000000000000000
310
00000000000000000000000000000000000000000000000000000000000000000000000000000000000000000000000000000000010000000001000000000000000000000000000000000000000000000000000000000000010101010101010100000000000000000000000000000000000000000000000000000000000001
310
00000101010101010101000000000000010000000000070000000000000000000000000000000000000000000000000000000000000000000000000000000000000000000000000000000000000000000000000000000000000000000000000000000000000000000001000000000100000000000000000000000000000000
310
00000000000000000000000000000000000000000000000000000000000000000000000000000000000000000000000000000000010000010000000000000100000000000001000000000007000000000000000000000000000000000000000000000000000000000000000000000000000000000000000000000000000000
310
00000000000000000000000000000000000000000000000000000000000000010000000001000000000000000000000000000000000000000000000000000000000000000000000000000000000000000000000000000000000000000000000000000000000000000100000001010101010101010000000000000100000000
310
00070000000000000000000000000000000000000000000000000000000000000000000000000000000000000000000000000000000000000000000000000000000000000000000000000000000000000000000001000000000100000000000000000000000000000000000000000000000000000000000000000000000000
310
00000000000000000000000000000000000000000000000000000000000001000000000000000000000000000000000001000000000007000000000000000000000000000000000000000000000000000000000000000000000000000000000000000000000000000000000000000000000000000000000000000000000000
310
00000000000000000000010000000000010101010101010101010101010101010101010101010101010101010101010101010101010101010101010101010101010101010101010101010101010101010101010100000000000000000000000000000000000100000000000700000000000000000000000000000000000000
310
00000000000000000000000000000000000000000000000000000000000000000000000000000000000000000000000000000000000000000000000000000001000000000000000000000000000000000000000000000000000000000000000000000000000000000000000000000000000000000000000000000000000000
310
00000000000000000000000000000000000000000000000000000001000000000007000000000000000000000000000000000000000000000000000000000000000000000000000000000000000000000000000000000000000000000000000000000000000000000000000000000000000000000100000000000000000000
310
00000000000000000000000000000000000000000000000000000000000000000000000000000000000000000000000000000000000000000000000000000000000000000000000000000000000000000100000000000700000000000000000000000000000000000000000000000000000000000000000000000000000000
310
00000000000000000000000000000000000000000000000000000000000000000000000000000000000001000000000000000000000000000000000000000000000000000000000000000000000000000000000000000000000000000000000000000000000000000000000700000000000000000000000000000000000000
310
07000000000001000000000007000000000000000000000000000000000000000000000000000000000000000000000000000000000000000000000000000000000000000000000000000000000000000000000000000000000000000000000100000000000700070007000700070007000700070000000700070007000000
310
00070007000700070007000700070000000000000000070700000007000700000007000700070700000007000700070007000700070007000000000100000000000700000000000000000000000000000000000000000000000000000000000000000000000000000000000000000000000000000000000000000000000000
310
00000000000000000000000000000000000000000001000000000007070707070707070707070707070707000007070707070700000007070707070707070707070707070000070707000000070000000707070700000700000707070000000707070707070707070707070700000000010000000000070000000000000000
310
00000000000000000000000000000000000000000000000000000000000000000000000000000000000000000000000000000000000000000000000000000000000000000000000000000100000000000707070707070707070707070707070700000707070707070000070707070707070707070707070707000000000000
310
00070707000007070707000007070707070700000007070707070707070707070707000000000100000000000700000000000000000000000000000000000000000000000000000000000000000000000000000000000000000000000000000000000000000000000000000000000000000000000000000000000000000000
310
01000000000000000000000000000000000000000000000000000000000000000000000000000000000000000000000000000000000000000000000000000000000007000000000000000000000000000000000000000700000000010000000000070000000000000000000000000000000000000000000000000000000000
310
00000000000000000000000000000000000000000000000000000000000000000000000000000000000000000000000000000000000101010101010101010101010101010101010101010101010101010101010101010101010101010101010101010101010101010101010101010101010101010101010101010101010101
310
01010101010101010101010101010101010107070707070707000000000000000000000000000000000000000000000000000000000000000000000000000000000000000000000000000000000000000000000000000000000000000000000000000000000000000000070000000000000000000000000000000000000000
310
00000000000000000000000000000000000000000000000000000000000000000000000000000000000000000000000000000000000000000000000000000000000000000000070000000000000000000000000000000000000000000000000000000000000000000000000000000000000000000000000000000000000000
310
00000000000000000000000000000000000000000000000000000000000000000700000000000000000000000000000000000000000000000000000000000000000000000000000000000000000000000000000000000000000000000000000000000000000000000000000000000000000000000000000000000007000000
310
00000000000000000000000000000000000000000000000000000000000000000000000000000000000000000000000000000000000000000000000000000000000000000000000000000000000000000000000000070707070000000000000000000000000000000000000000000000000000000000000000000000000000
310
00000000000000000000000000000000000000000000000000000000000000000000000000000000000000000000000707070000000000000000000000000000000000000000000000000000000000000000000000000000000000000000000000000000000000000000000000000000000000000000000000000000000000
310
00000000000000000000000707070707070707070707070707070707070707070707070707070707070707070707070707070707070707070707070707070707070707070707070707070707070707070707070707070707070707070707070707070707070707000000000000000000000000000000000000000000000000
310
00000000000000000000000000000000000000000000000000000000000000000000000000000000000000000000000000000000000000000000000000000000070007070000000000000000000000000000000000000000000000000000000000000000000000000000000000000000000000000000000000000000000000
310
00000000000000000000000000000000000000000000000000070700070000000000000000000000000000000000000000000000000000000000000000000000000000000000000000000000000000000000000000000000000000000000000000000000000000000000000000000000000000000000000000000000000000
310
00000000000000000000000000000000000000000000000000000000000000000007070707070700000000000000000000000000000000000000000000000000000000000000000000000000000000000000000000000000000000000000000000000000000000000000000000000000000000000000000000000000000000
310
00000000000000000000000000000000000000000000000000000000000000000000000000000000000000000000000000000000000000000000000000000000000000000000000000000000000000000000000000000007070707070000000000000000000000000000000000000000000000000000000000000000000000
310
00000000000000000000000000000000000000000000000000000000000000000000000000000000000000000000000000000000000000000000000000000000000000000000000000000000000000000000000000000000000000000000000000000000000000000000000000000000000000000000000000000000000000
310
000000000000000000000000070707070707070000000000000000000000000000000000000000000000000000000000000000000000000000000000000000000000000000000000000000000000000000000000000000000000000000000000000000000000000000000000
  0
ENDSEC
  0
EOF
